<mxfile host="Electron" modified="2024-10-18T09:29:33.696Z" agent="Mozilla/5.0 (Windows NT 10.0; Win64; x64) AppleWebKit/537.36 (KHTML, like Gecko) draw.io/24.5.1 Chrome/124.0.6367.207 Electron/30.0.6 Safari/537.36" etag="qsmfotiRkjmJZF4_jMWR" version="24.5.1" type="device" pages="2">
  <diagram name="Block_Diagram" id="DRObXTTNFktGTjhnOxtg">
    <mxGraphModel dx="-3060" dy="-2989" grid="1" gridSize="10" guides="1" tooltips="1" connect="1" arrows="1" fold="1" page="1" pageScale="1" pageWidth="827" pageHeight="1169" math="0" shadow="0">
      <root>
        <mxCell id="0" />
        <mxCell id="1" parent="0" />
        <mxCell id="2_bzZY8JqZcMzYyIOrCb-83" value="" style="rounded=1;whiteSpace=wrap;html=1;strokeWidth=5;fillColor=none;" parent="1" vertex="1">
          <mxGeometry x="4350" y="3644.33" width="2140" height="720" as="geometry" />
        </mxCell>
        <mxCell id="2_bzZY8JqZcMzYyIOrCb-36" value="" style="rounded=1;whiteSpace=wrap;html=1;fillColor=none;strokeWidth=3;" parent="1" vertex="1">
          <mxGeometry x="4838" y="4454.33" width="340" height="214.75" as="geometry" />
        </mxCell>
        <mxCell id="2_bzZY8JqZcMzYyIOrCb-20" value="" style="edgeStyle=orthogonalEdgeStyle;rounded=0;orthogonalLoop=1;jettySize=auto;html=1;strokeWidth=5;fillColor=#1ba1e2;strokeColor=#006EAF;" parent="1" source="2_bzZY8JqZcMzYyIOrCb-19" target="2_bzZY8JqZcMzYyIOrCb-18" edge="1">
          <mxGeometry relative="1" as="geometry" />
        </mxCell>
        <mxCell id="2_bzZY8JqZcMzYyIOrCb-19" value="" style="rounded=1;whiteSpace=wrap;html=1;fillColor=none;strokeWidth=3;" parent="1" vertex="1">
          <mxGeometry x="5198.5" y="4447.33" width="201" height="223.75" as="geometry" />
        </mxCell>
        <mxCell id="38zsFc9XFxdLZFiAZhFn-38" value="&lt;font style=&quot;font-size: 24px;&quot;&gt;HALL_STATE&lt;/font&gt;&lt;div&gt;&lt;font style=&quot;font-size: 24px;&quot;&gt;(CCW)&lt;/font&gt;&lt;/div&gt;" style="rounded=1;whiteSpace=wrap;html=1;strokeWidth=5;" parent="1" vertex="1">
          <mxGeometry x="6820" y="4381.3099999999995" width="200" height="80" as="geometry" />
        </mxCell>
        <mxCell id="38zsFc9XFxdLZFiAZhFn-42" value="" style="edgeStyle=orthogonalEdgeStyle;rounded=0;orthogonalLoop=1;jettySize=auto;html=1;strokeWidth=3;" parent="1" source="38zsFc9XFxdLZFiAZhFn-39" target="38zsFc9XFxdLZFiAZhFn-41" edge="1">
          <mxGeometry relative="1" as="geometry" />
        </mxCell>
        <mxCell id="38zsFc9XFxdLZFiAZhFn-39" value="&lt;font style=&quot;font-size: 18px;&quot;&gt;001&lt;/font&gt;" style="ellipse;whiteSpace=wrap;html=1;aspect=fixed;strokeWidth=3;" parent="1" vertex="1">
          <mxGeometry x="6800" y="4256.3099999999995" width="80" height="80" as="geometry" />
        </mxCell>
        <mxCell id="38zsFc9XFxdLZFiAZhFn-44" style="edgeStyle=orthogonalEdgeStyle;rounded=0;orthogonalLoop=1;jettySize=auto;html=1;strokeWidth=3;" parent="1" source="38zsFc9XFxdLZFiAZhFn-41" target="38zsFc9XFxdLZFiAZhFn-43" edge="1">
          <mxGeometry relative="1" as="geometry" />
        </mxCell>
        <mxCell id="38zsFc9XFxdLZFiAZhFn-41" value="&lt;font style=&quot;font-size: 18px;&quot;&gt;101&lt;/font&gt;" style="ellipse;whiteSpace=wrap;html=1;aspect=fixed;strokeWidth=3;" parent="1" vertex="1">
          <mxGeometry x="6960" y="4256.3099999999995" width="80" height="80" as="geometry" />
        </mxCell>
        <mxCell id="38zsFc9XFxdLZFiAZhFn-53" style="edgeStyle=orthogonalEdgeStyle;rounded=0;orthogonalLoop=1;jettySize=auto;html=1;entryX=1;entryY=0.5;entryDx=0;entryDy=0;strokeWidth=3;" parent="1" source="38zsFc9XFxdLZFiAZhFn-43" target="38zsFc9XFxdLZFiAZhFn-45" edge="1">
          <mxGeometry relative="1" as="geometry">
            <Array as="points">
              <mxPoint x="7120" y="4536.3099999999995" />
            </Array>
          </mxGeometry>
        </mxCell>
        <mxCell id="38zsFc9XFxdLZFiAZhFn-43" value="&lt;font style=&quot;font-size: 18px;&quot;&gt;100&lt;/font&gt;" style="ellipse;whiteSpace=wrap;html=1;aspect=fixed;strokeWidth=3;" parent="1" vertex="1">
          <mxGeometry x="7080" y="4376.3099999999995" width="80" height="80" as="geometry" />
        </mxCell>
        <mxCell id="38zsFc9XFxdLZFiAZhFn-48" value="" style="edgeStyle=orthogonalEdgeStyle;rounded=0;orthogonalLoop=1;jettySize=auto;html=1;strokeWidth=3;" parent="1" source="38zsFc9XFxdLZFiAZhFn-45" target="38zsFc9XFxdLZFiAZhFn-47" edge="1">
          <mxGeometry relative="1" as="geometry" />
        </mxCell>
        <mxCell id="38zsFc9XFxdLZFiAZhFn-45" value="&lt;font style=&quot;font-size: 18px;&quot;&gt;110&lt;/font&gt;" style="ellipse;whiteSpace=wrap;html=1;aspect=fixed;strokeWidth=3;" parent="1" vertex="1">
          <mxGeometry x="6960" y="4496.3099999999995" width="80" height="80" as="geometry" />
        </mxCell>
        <mxCell id="38zsFc9XFxdLZFiAZhFn-50" style="edgeStyle=orthogonalEdgeStyle;rounded=0;orthogonalLoop=1;jettySize=auto;html=1;entryX=0.5;entryY=1;entryDx=0;entryDy=0;strokeWidth=3;" parent="1" source="38zsFc9XFxdLZFiAZhFn-47" target="38zsFc9XFxdLZFiAZhFn-49" edge="1">
          <mxGeometry relative="1" as="geometry" />
        </mxCell>
        <mxCell id="38zsFc9XFxdLZFiAZhFn-47" value="&lt;font style=&quot;font-size: 18px;&quot;&gt;010&lt;/font&gt;" style="ellipse;whiteSpace=wrap;html=1;aspect=fixed;strokeWidth=3;" parent="1" vertex="1">
          <mxGeometry x="6800" y="4496.3099999999995" width="80" height="80" as="geometry" />
        </mxCell>
        <mxCell id="38zsFc9XFxdLZFiAZhFn-51" style="edgeStyle=orthogonalEdgeStyle;rounded=0;orthogonalLoop=1;jettySize=auto;html=1;exitX=0.5;exitY=0;exitDx=0;exitDy=0;entryX=0;entryY=0.5;entryDx=0;entryDy=0;strokeWidth=3;" parent="1" source="38zsFc9XFxdLZFiAZhFn-49" target="38zsFc9XFxdLZFiAZhFn-39" edge="1">
          <mxGeometry relative="1" as="geometry" />
        </mxCell>
        <mxCell id="38zsFc9XFxdLZFiAZhFn-49" value="&lt;font style=&quot;font-size: 18px;&quot;&gt;011&lt;/font&gt;" style="ellipse;whiteSpace=wrap;html=1;aspect=fixed;strokeWidth=3;" parent="1" vertex="1">
          <mxGeometry x="6680" y="4376.3099999999995" width="80" height="80" as="geometry" />
        </mxCell>
        <mxCell id="38zsFc9XFxdLZFiAZhFn-54" value="&lt;font style=&quot;font-size: 18px;&quot;&gt;CNT = 0&lt;/font&gt;" style="endArrow=none;dashed=1;html=1;dashPattern=1 3;strokeWidth=3;rounded=0;entryX=0.5;entryY=1;entryDx=0;entryDy=0;" parent="1" target="38zsFc9XFxdLZFiAZhFn-45" edge="1">
          <mxGeometry width="50" height="50" relative="1" as="geometry">
            <mxPoint x="7060" y="4696.3099999999995" as="sourcePoint" />
            <mxPoint x="7150" y="4559.3099999999995" as="targetPoint" />
          </mxGeometry>
        </mxCell>
        <mxCell id="38zsFc9XFxdLZFiAZhFn-55" value="&lt;font style=&quot;font-size: 18px;&quot;&gt;CNT = N&lt;/font&gt;" style="endArrow=none;dashed=1;html=1;dashPattern=1 3;strokeWidth=3;rounded=0;entryX=0.5;entryY=1;entryDx=0;entryDy=0;" parent="1" target="38zsFc9XFxdLZFiAZhFn-47" edge="1">
          <mxGeometry width="50" height="50" relative="1" as="geometry">
            <mxPoint x="6780" y="4696.3099999999995" as="sourcePoint" />
            <mxPoint x="6850" y="4606.3099999999995" as="targetPoint" />
          </mxGeometry>
        </mxCell>
        <mxCell id="38zsFc9XFxdLZFiAZhFn-57" value="" style="endArrow=none;html=1;rounded=0;strokeWidth=3;" parent="1" edge="1">
          <mxGeometry width="50" height="50" relative="1" as="geometry">
            <mxPoint x="6820" y="4736.3099999999995" as="sourcePoint" />
            <mxPoint x="6820" y="4696.3099999999995" as="targetPoint" />
          </mxGeometry>
        </mxCell>
        <mxCell id="38zsFc9XFxdLZFiAZhFn-58" value="" style="endArrow=none;html=1;rounded=0;strokeWidth=3;" parent="1" edge="1">
          <mxGeometry width="50" height="50" relative="1" as="geometry">
            <mxPoint x="6860" y="4696.3099999999995" as="sourcePoint" />
            <mxPoint x="6820" y="4696.3099999999995" as="targetPoint" />
          </mxGeometry>
        </mxCell>
        <mxCell id="38zsFc9XFxdLZFiAZhFn-59" value="" style="endArrow=none;html=1;rounded=0;strokeWidth=3;" parent="1" edge="1">
          <mxGeometry width="50" height="50" relative="1" as="geometry">
            <mxPoint x="6860" y="4736.3099999999995" as="sourcePoint" />
            <mxPoint x="6860" y="4696.3099999999995" as="targetPoint" />
          </mxGeometry>
        </mxCell>
        <mxCell id="38zsFc9XFxdLZFiAZhFn-60" value="" style="endArrow=none;html=1;rounded=0;strokeWidth=3;" parent="1" edge="1">
          <mxGeometry width="50" height="50" relative="1" as="geometry">
            <mxPoint x="6899.71" y="4736.3099999999995" as="sourcePoint" />
            <mxPoint x="6899.71" y="4696.3099999999995" as="targetPoint" />
          </mxGeometry>
        </mxCell>
        <mxCell id="38zsFc9XFxdLZFiAZhFn-61" value="" style="endArrow=none;html=1;rounded=0;strokeWidth=3;" parent="1" edge="1">
          <mxGeometry width="50" height="50" relative="1" as="geometry">
            <mxPoint x="6939.71" y="4696.3099999999995" as="sourcePoint" />
            <mxPoint x="6899.71" y="4696.3099999999995" as="targetPoint" />
          </mxGeometry>
        </mxCell>
        <mxCell id="38zsFc9XFxdLZFiAZhFn-62" value="" style="endArrow=none;html=1;rounded=0;strokeWidth=3;" parent="1" edge="1">
          <mxGeometry width="50" height="50" relative="1" as="geometry">
            <mxPoint x="6939.71" y="4736.3099999999995" as="sourcePoint" />
            <mxPoint x="6939.71" y="4696.3099999999995" as="targetPoint" />
          </mxGeometry>
        </mxCell>
        <mxCell id="38zsFc9XFxdLZFiAZhFn-63" value="" style="endArrow=none;html=1;rounded=0;strokeWidth=3;" parent="1" edge="1">
          <mxGeometry width="50" height="50" relative="1" as="geometry">
            <mxPoint x="6979.43" y="4736.3099999999995" as="sourcePoint" />
            <mxPoint x="6979.43" y="4696.3099999999995" as="targetPoint" />
          </mxGeometry>
        </mxCell>
        <mxCell id="38zsFc9XFxdLZFiAZhFn-64" value="" style="endArrow=none;html=1;rounded=0;strokeWidth=3;" parent="1" edge="1">
          <mxGeometry width="50" height="50" relative="1" as="geometry">
            <mxPoint x="7019.43" y="4696.3099999999995" as="sourcePoint" />
            <mxPoint x="6979.43" y="4696.3099999999995" as="targetPoint" />
          </mxGeometry>
        </mxCell>
        <mxCell id="38zsFc9XFxdLZFiAZhFn-65" value="" style="endArrow=none;html=1;rounded=0;strokeWidth=3;" parent="1" edge="1">
          <mxGeometry width="50" height="50" relative="1" as="geometry">
            <mxPoint x="7019.43" y="4736.3099999999995" as="sourcePoint" />
            <mxPoint x="7019.43" y="4696.3099999999995" as="targetPoint" />
          </mxGeometry>
        </mxCell>
        <mxCell id="38zsFc9XFxdLZFiAZhFn-66" value="" style="endArrow=none;html=1;rounded=0;strokeWidth=3;" parent="1" edge="1">
          <mxGeometry width="50" height="50" relative="1" as="geometry">
            <mxPoint x="6900" y="4736.3099999999995" as="sourcePoint" />
            <mxPoint x="6860" y="4736.3099999999995" as="targetPoint" />
          </mxGeometry>
        </mxCell>
        <mxCell id="38zsFc9XFxdLZFiAZhFn-67" value="" style="endArrow=none;html=1;rounded=0;strokeWidth=3;" parent="1" edge="1">
          <mxGeometry width="50" height="50" relative="1" as="geometry">
            <mxPoint x="6979.71" y="4736.3099999999995" as="sourcePoint" />
            <mxPoint x="6939.71" y="4736.3099999999995" as="targetPoint" />
          </mxGeometry>
        </mxCell>
        <mxCell id="38zsFc9XFxdLZFiAZhFn-68" value="" style="endArrow=none;html=1;rounded=0;strokeWidth=3;" parent="1" edge="1">
          <mxGeometry width="50" height="50" relative="1" as="geometry">
            <mxPoint x="7059.43" y="4736.3099999999995" as="sourcePoint" />
            <mxPoint x="7019.43" y="4736.3099999999995" as="targetPoint" />
          </mxGeometry>
        </mxCell>
        <mxCell id="38zsFc9XFxdLZFiAZhFn-69" value="" style="endArrow=none;html=1;rounded=0;strokeWidth=3;" parent="1" edge="1">
          <mxGeometry width="50" height="50" relative="1" as="geometry">
            <mxPoint x="6820" y="4735.74" as="sourcePoint" />
            <mxPoint x="6780" y="4735.74" as="targetPoint" />
          </mxGeometry>
        </mxCell>
        <mxCell id="38zsFc9XFxdLZFiAZhFn-70" value="&lt;font style=&quot;font-size: 18px;&quot;&gt;N Pulses&lt;/font&gt;" style="endArrow=classic;startArrow=classic;html=1;rounded=0;strokeWidth=3;" parent="1" edge="1">
          <mxGeometry width="50" height="50" relative="1" as="geometry">
            <mxPoint x="6780" y="4776.3099999999995" as="sourcePoint" />
            <mxPoint x="7060" y="4776.3099999999995" as="targetPoint" />
          </mxGeometry>
        </mxCell>
        <mxCell id="38zsFc9XFxdLZFiAZhFn-71" value="" style="endArrow=none;html=1;rounded=0;strokeWidth=3;" parent="1" edge="1">
          <mxGeometry width="50" height="50" relative="1" as="geometry">
            <mxPoint x="6780" y="4736.3099999999995" as="sourcePoint" />
            <mxPoint x="6780" y="4696.3099999999995" as="targetPoint" />
          </mxGeometry>
        </mxCell>
        <mxCell id="38zsFc9XFxdLZFiAZhFn-72" value="" style="endArrow=none;html=1;rounded=0;strokeWidth=3;" parent="1" edge="1">
          <mxGeometry width="50" height="50" relative="1" as="geometry">
            <mxPoint x="7060" y="4736.3099999999995" as="sourcePoint" />
            <mxPoint x="7060" y="4696.3099999999995" as="targetPoint" />
          </mxGeometry>
        </mxCell>
        <mxCell id="38zsFc9XFxdLZFiAZhFn-74" value="&lt;font style=&quot;font-size: 18px;&quot;&gt;RPM = (60 * F_CPU) / (6 * N)&lt;/font&gt;&lt;div&gt;&lt;font size=&quot;3&quot;&gt;= 10 * (100,000,000) / N&lt;/font&gt;&lt;/div&gt;" style="text;html=1;align=center;verticalAlign=middle;whiteSpace=wrap;rounded=0;strokeColor=default;strokeWidth=3;" parent="1" vertex="1">
          <mxGeometry x="6780" y="4796.3099999999995" width="280" height="60" as="geometry" />
        </mxCell>
        <mxCell id="38zsFc9XFxdLZFiAZhFn-76" value="&lt;font style=&quot;font-size: 18px;&quot;&gt;10 ns&lt;/font&gt;" style="endArrow=classic;startArrow=classic;html=1;rounded=0;strokeWidth=3;" parent="1" edge="1">
          <mxGeometry width="50" height="50" relative="1" as="geometry">
            <mxPoint x="6900" y="4656.889999999999" as="sourcePoint" />
            <mxPoint x="6980" y="4656.889999999999" as="targetPoint" />
            <mxPoint as="offset" />
          </mxGeometry>
        </mxCell>
        <mxCell id="xzYZdcwFdpy4BwNF1ZXI-50" value="" style="rounded=1;whiteSpace=wrap;html=1;strokeWidth=5;fillColor=none;movable=1;resizable=1;rotatable=1;deletable=1;editable=1;locked=0;connectable=1;" parent="1" vertex="1">
          <mxGeometry x="6640" y="4207.83" width="560" height="710" as="geometry" />
        </mxCell>
        <mxCell id="2_bzZY8JqZcMzYyIOrCb-1" value="" style="shape=image;verticalLabelPosition=bottom;labelBackgroundColor=default;verticalAlign=top;aspect=fixed;imageAspect=0;image=data:image/jpeg,/9j/4AAQSkZJRgABAQAAAQABAAD/2wCEAAkGBxITEhITExMVFhUXFxoYGBcXGRYWGhoYGhcWGBcYGBofICggGxolGxcYITEhJyorLi4uGB8zODMtNygtLisBCgoKDg0OGhAQGi0lHyUtLS0tLTcrLS0tLS0tLS0tLS4tLi0tLS0tLS0tLS0tLS0tLS0tLS0tLS0tLS0tLS0tLf/AABEIAOIA3wMBIgACEQEDEQH/xAAcAAEAAwEBAQEBAAAAAAAAAAAABQYHBAIDAQj/xABEEAABAwIEAwUECAUBBgcAAAABAAIRAyEEBRIxBkFRImFxgZEHE6GxIzJCUnLB0fAUYpLh8YIWJDNDY+IXU3ODorLC/8QAGQEBAAMBAQAAAAAAAAAAAAAAAAECAwQF/8QAJhEAAwACAgEEAQUBAAAAAAAAAAECAxEhMRIEE0FRoSIyUmGRcf/aAAwDAQACEQMRAD8A3FERAEREAREQBERAEREAREQBERAEREAREQBERAEREAREQBERAEREAREQBERAEREAREQBERAEREARFXuIMc81G0Gc4Lj1nl4KUtkN6JDEZzTbMdo923quY54fuD1/suF2WVGi7Sfw3XFXoCbiDO372U6KOmT9POh9pkeBlSOHxDXiWmQqr7h8TpcY6A/NQ7OIn0q1gWjnPPxUaJVfZo6L8aZAK/VBcIiIAiIgCIiAIiIAiIgCIiAIiIAiIgCIiAIiIAs944ziphcZTqU4vTEgiQRLrH9VoSzD2rt+mpf+n/8ApymeytdHdh/aewD6XDuHexzXfAxC46nH+FdU16Ku+2lvz1LP8SeyVx0TcKXwQuezYv8AxBpPbDKLySPtFrR8NSpOKzB1XEAuAA1WaNt+fVcmVO+CC1Vv4kI7ZutA9lvgPkva+WEPYZ+EfIL6qpoEREAREQBERAEREAREQBERAEREAREQBERAEREAWae1hv0lE/yH/wCxWlrOPay29A/yu+ameytdGc4j6pXDRN12Vz2Vw0N1LEFjypeqn/Fb+JfPKV9nt+lHihT5NvwB+ip/gb8gvuuXKz9DS/A35BdSqahERAEREAREQBERAEREAREQBERAEREARFnntA46dha38O0OB0g6hHMTudvL1UpEN6NDRfz/AIfivEVKzHBzmkPaZkkntCxJ5fqv6ARohPYWd+1ao0+6E3AMjpMQtEWMcbY332KqQQ0ay1s7O0w3fabTHQqZRFvSKrXPZIUfRN1K4jBVQ10s8CL/AAUOwEOuCPJH2Wgs2T7rpqD6VceSm4mB4kD5pmmZaH9gS7kSCGjvjd3y70Rm+Gbhw/iWvoU9JnSA09zgBIUisw9mebP94KRcXB5dqn72kuB8ezf8XctPVTRPYREQkIiIAiIgCIiAIiIAiIgCIiAIiIAsN9s1I/xwP/Tb+a3JY/7WcCX4xpFh7tt+8F39lMlLfBnmDcGvE72X9POrNa0Fzg0dSQB8V/OOGyohwJIPlPor1l9Ko8sD6jjYXJ1GApaKTRpOZ5k2m20OJFhPJZLmGkP0mpTa5w2qtDqVYDbeIeNjFxHNXN1K3cPSAqfjWmtLB/D1CfrUKxGh5FtVN/2X2TG+ycnwQ+Lyisz6mHrtvP8AutdtSn46KnLulRNTC4gmXMxc99Kl85he80ysUXH/AHfMMMRv7twrN8iOWyhnYu8fxWP8Cwj81YqWXC4KtpiKzfxOp0x6Nk9VxYhjWuAc4F0xpYdTj5/4XLgcPrge7xdWfvGGk+GxKkcRhXUmhrgyiHGA1sPqER8B5KCCb4LxppVmPdpaGH6s2GqWjUfvGfgtfwWcU379k9+3qsLwOGdUpvotABeAAJu0EgOe89Y2V6rZj7rqZ2jYePnzVKfJpO/E0sFfqq3COYuIPvHBrTdoeYINrXPf8uqtIKhPZoERFICIiAIiIAiIgCIiAIiIAiLgznHilTJH1nWaO/r4BG9A85rmYpNdpgvAMDoYtq/RZRUq9t7qpcXOJJLryTzA2Vq1GDffc7781CZ9iqdItLnAg2h19yBbwnwVceaWZ5IZGUmMe8Na2CdouPjcepXnil1eiKLqA1QXahBJNhBtHf8AsLrp+6pvFUAAbE7AB1iV1Z1UcykdET9k736qM9UnwThUtM5cg45Y9obVY+mR9ofStPiD2x6uTPMhbXBq0C1zTdwYZb4kR2PAgKqO4ka06cZhv/dpC/8Aqb/nwU/lHun/AEuDxLSe52l42sRYjwMLNZv5I0rCn0yuYyhiaIHu6lemZ2ZUqAfHWNvDdRFfG4sntYmu4RzcP0WqZjxTUp0He8wuuqP+Y1tjY/WaBDjy/wAKk1OLHu/4eCZ7w3Li17uuzW6QCr+4l0U8GceWtqvN/wCIfbs9sgHzAsugsrXYylSpHYuOpz/JxMD0X2bmecOA0N0NP/TpNPh2wTELw+hm9T/mVGje9UMFhzDT8VX347dL/R7T+iX4fytlKX1ahc6dmhxA9BEldmJzig55qTLKYuNgXchffx8iofC4LGkAVazGX+u6o9xk8+8hVniDHmrWdQZU96A7t1bduIEyLSYkqPdh8SSpe+S+ZHnoxTqjjzMAHbT0j1vzmV6p5ziMM9zadV4DTtMj0NlDcP0hh6fvHW5NHNx5Dw7193Uqj/pNDjqvIBP+FRcnXjpLh9F4yn2iEQMRTBH3mWPm02PlCvGW5nSrt1Unhw5xuPEbhYM6y6cvzCpReH03FrhzHyPUdy0VNFqxTXXBvaKs8IcVtxY0PhtYC45OHVv5hWZap7OSpcvTCIikgIiIAiIgCLjzHNKNATVqNb3Hc+A3Kp+be0EXbh6f+t/5NH5nyVatLs0jFd9Ivixzifims7McTQ9/Uospw1hZIHQh0X3BPmFx5hnNesZqVXHzgDwAsFXMfQOv3gJnmfObzus/d2+uDd+leu+S1lmOqAFuNLm9frfGd1x1OGy6oKlarUquB+0bT8z5kqv4fMX0zN2n7zJ+Lefx8FOYTiw6SXgVGgXcyzrdQbT6Lolw+jhyYrklsSwljmkSCCOih8DnBou9zXGqnPZ5EddJNj+E+R5KSwmd0K7ebHHYPiJ8Rb1hRPEGXmA8Xbz5x++qm5VyUxtxXJO1srw2JtTqMLvuu7D+n1TE+UqqZxwHVpkvY17HfebLT6hRf8ZUZZrgW/ddDm+hsCut/FOLYG6HVGd1Oo6PQyPKFxvHUnXtM4cXnmY02Ck8tqtBntNIfbvEA+JC5W8W5hs1lMd+lxPxKmKvFuIeO25rvx0WEz+LRdcjc9q/co+VGn+ij25/j+At/ZG1M4zSpvWI5dlrG27oaF824HMKvZNeu4dNbyPISrDRzat0aD/JSpj46SpvC5rV06Xe8JA+1UDGz0hoZChS11P4Kt/b/JTP9hsSRqqyB1qO0387ruwuW08MJ0+8fysQwfm74K3U8TVqNHu2NM/abLv/AJOv8Uo5S8EudGozcw838bLVY7rszrIl0VnDU6tWpqqkk8m93hs0dy0fI6h90G2uIPrsoLCZaGGQJPXmu6m2CNwumYUrSMHbb2ztzLJA65gKErcN1d26T5hSNfNAwgPJN/MT+i+bM/oEODKrHPvadJnuDoK58ztdI6cVJdUQVCrVw9VrhLXsII538uXctzy7FirSp1Rs9odHSRMeSw7C4SpiKrom261b2eYjXgKJ6ahf8RP5pD50a3XnOyyIiLUxCIiAKk8aZ5imVfc0GkANDi9okmZ57DbxV2WaYziYEve+5JIa0cxyA6WUNbXZab8X1sqeJ96XONTWXfaLpJ8yV8QVLZjmbapDnNANxYzLTBI+AgqIqxeLjvXH8tHpzbc7a0WpvD1FjJq1Dq0zAB36D9V88fkGHfRdUoio0tEw4tIsJdsoGhm+MYwMp4l4YNmltOpA6AvaSB3SvVXMsRUZ7upU1MmYDabJvNy1oJv1lbeU/Rze3mb/AHEK+gDsuHF4IOmekSLH1U+MK43DSR3Alc+Jw7m2c0juIIWfJ0aT4ZXsFhn0xAe4ePaHodvKFJ4LOKtIQSQOcdphnq3l6ea9VmWXEDBVpyuTO/TzRKMbhKoktNNx+1T7VPvMbjyleK2QECWOFRvKCopzW3IJa4822nxGx819cPmFSmZn/Uy39TeY/cLonLL7OPJ6a56Ot2AqAfUPpKDDxcsP9JU7hM4o1IE6XEfagA+e3yXeWdy3SRxOmuyuCnESHXF4abdyVNTWkNbPOTPPqFP1SBHU7WnvX2olsdprttiTvA2A2WOXLOPs0xY6ydEBwtmD2ANdLbRtIPfdWsuBExfcxey424cOPZpiOeo7+E7FdDMGIHu3ETff9wrY8itbRXJDh6Z25cw1QSwNgEAkkiPKJsufM6ZAIDpnbSIv8+S68romm50iGvBm4DZFwe6wI8worNszoNNnFzuem8Hx/VXK64IrE0LwveDfQY06mzVB7EW8CXbthR2Y5qXAud2W8zufX02uoSvjS8ODZa3qbOPXw+apkuZXJfFjqnwabwLSHu65kHtm8z9kEie4yFcOAMrqYbBUqdWA+7iAZjUbCesQqP7ParW4WpFu3pHmBt6rV6H1W+A+S5sa3To6a/T+k9oiLcoEREB8MfV00qjvuscfQErN+DcG1+NBIDgxhMG4kyNvMK38Z5iadHQBerLZ6ARPrMKB9nVP6fEO6AAfDb0RkfJVuLKDf4qsaYtrNtrjeOl5UOwrXOJ+F2YmXshtWN+Tu53f3qm5Hl1OjiS3FsIIHZ1bXntfzfvouLwtXp9M9KfUQse/orQaveEe1r2F4lmoaudpvbn4K/8AEVPDhgLYqOcYawbz48gqDi26S5jmaXgwRII9f0V6lwyIze6mui6YzOMOGltPF4aHaZAeym4EQQA2QW7XUTxlnTX0mUhUp1ahI1Fha+AIkl4sPAEkqrupg8gvzRCs8vBSfSpPez4upSudmWVKh0sYXE8mgldhVj4XzfD02vbVLqbp1NqBpePAgXBsLrNT5Pk6MlOJ3K2VfE8J4xoBOHfB2iDsJ2B6KErUXAkEEEbg2K1WjxNhw5z34sl0Q5rWVCT3NMQR42VEzXFNrVHPiAbNFpAG0xaVNwpXDMsOW7eqkgaQiwMdxuP7eSkMBmb6Z3IHT6zf7enmvjUojkvkGkKIz1Jpk9JNk/Q4oYKrNVMHo5rhE6bWjae/qpjMONMJT0gUnudFwTA/ff3Kk1cvHaqaQCGuvAkmCfWy+DsFrPz/ACV/eVtnHfpvb0Wiv7QW/Yw4F7TdcGE4sqB9VrnMpjWXC2weA6B3SSounlggdbfNfHG4War9rQCeQOhkD0upWZTyinsK+CZzLPQ4fXqVPAFo+MD0Cjama1NMhrGtbBPMwDcye6eXJfuBy2q8g06bnEc2gx3X2Cn8BwbVJmvpaw/WaTJIna2yh57f9FlgxyQuY1A0NAIOu7bEtI3JB2PkpPI+HH1IfU+jp8yd3fhB+amalXDYeQxmt3U3uPn5yvzB16td4LjYctgFjlt29iGsc+KLTl1FjGNZTENbfxM7+K0TD/Vb4D5LPsG2BHqtAwv1GfhHyC6sK1PJz+XlTZ9URFqSEREBn/tKx2ivgmxIe8M/rOmfUBd3ClRrMXXoN+x7weQqN0/NfH2lYPV7h/Qm/QtLXD8144Dw7n4rFYp27hHm4hxPqEI+S9rN/aO6cSwdKY+LnLR3OABJMAXJPILIeLc2ZXxdQ0zLQGgHrAuQN4mVKIrokuCMAK1apruGstzuTHyKhuNMJoxbmAFoGkAumHWFx13jyVq9mVO9d34R6/4UlxlQGpjnCWkEXEgEdfX4Ln9RPlLNsGTwezJi8jkfPmv33lpP5hd2d0NBJYB+/wAlAuxjHy15cw8jJLeQXnp38M9GPURX9Gk8PcKU6tBtRzwXPExIsOXn+q4eIuFRh2NcNTi4wGiDsC5xtyDQVB4fH1KbWBrzDQB4iP3ZSDc5a5x/iajwzQ5rCGufDnRJMAxYL0njnx5PPWfI74ZWsW1mo6ZjvMlcxAXwGp31h8D+/JfVjg0GYFpmR+wvO9zjWj2Ukjy6l1t817DABMEX7lD5lxTRYNNMa3DmPq+vPyVWx+b1qxgugH7LbD+60j0+S/3cGGT1cTwuWaAxrXAkuEARckzPTeefJdrq1Boa1oveXOgTe59T8FA4A6WsbEENDfDr84XYMJO0bn59OnerrGp4RyZMzvlk1h6tBzoL57gIHnG6l6VHBUy54YKr3EE6hIEADbwaoDD4AAWgG/5epUrg8vm5J/Lnssm9GXkySdntQ2pta0d1lH4ltapu4lTmEwbQF6xLQBCJ7IplZZlQmXeimsAwCzQuaq4A3SjigPBbJHPTJ+gQtCwrYYwdGj5Kj8O4M1XNJFrHy3Kvq646IhaCIiuXCIiA5cxwFOszRUEiZ6EHqCv3AYGnRbpptgLpRAVn2iYpzME7SYLnNaT3XcfXTHmqzwhwnQxOGdX1uFR5IBEQ3TYSOfWLK4caZea2EqtaJcIeB+EyY74lU72b55SoCpQqODWk62uJgAkQQfGPgVJV98nrg/FOw2LNCpaXe7PjJA8bgR3OK0HM8E2tTcw89j0PIrNNQxOZB9Lb3rXT/K0gT56ZWqqGiUYtxDgX0HaKoIg2duCLeir1PCib9SeveCOZW+ZtlVLEMLKjQbRKyLijJ2YOuWMJggEjcCenQx81yV6d7/Sy6rSIZp79v8LppY2rTuy8iCvNTL6zO29jg0gx2TG9pPKd7wvFCtps4Wi/xuFvk5hqSuN+NJs8YrPLHXQb46QD8FxHPKd4pOE8g53wmVK4vBg3hRVfBQbW8vyXHFnY6Iuti8O9xmk+fx/9q9sZRF2FzNwRAfaL3PcvZwQidzzMfuF5FEXhaOkV8j1R93s1vmdyV2UjDj2f09FyMp3B5qQpi4sZ9VQzo7sNO+26n8LbcqBpVIXbTzBo+0PAST6BYVyJLFTrei5cfiepXDTrVHxpY7xdZenZPUeRrPkLKZ4IqWQmMxpJ0tGo9ymeG8jqVXguBJmzeXmrLkfBZsXDQ3v3Pkrvl+XU6LYYPE8z4rsmG/8Ahjrk85Vl4osjmdz+Q7l2oi6EtEhERSAiIgCIiAKmZ1wGypUNSi8MJMlpEt74jbwVzRCGtle4Z4WZhZcXa6h5xAA6NCsKIhIWSe0Si5uNe47FrHNnawA+bStbUHxXw63GUwJ01G3Y75td/KUIZ6y4UMVRZVZbULxydHaa4dQVmHHeEp0sW9jSDDWuIFoJ3BHhB819Tk2Y4dzgxtZh2JpaiHDldu/zUjwxwPWqVRVxTS1moOcHGX1CLgEbgTuTuo8UnsdnulwQ40qZ+laS0ExcTA5KKxfB1YG1b+pg/stlQhZPAmXVGFP4UxIntsI8Cuf/AGZxQn6nlK3l1Bh3a0+QXj+Dp/8Als/pCo8D+yVZg/8AszifvMHrK66HClY/WrEeAC24YWn9xv8ASF9GsA2AHgiwP7Jdr6MjwPAjZBcKtTydCs+B4TLY00mM73RP5q7orrAiPNrogaHDbftu8miPipTC5fSp/UYAeu59V1IrzjmekQ6b7CIiuVCIiAIiIAiIgCIiAIiIAiIgCIiAIiIAiIgCIiAIiIAiIgCIiAIiIAiIgCIiAIiIAiIgCIiAIiIAiIgCIiAIiIAiIgCIiAIiIAiIgCIiAIiIAiIgP//Z;strokeWidth=3;imageBorder=default;" parent="1" vertex="1">
          <mxGeometry x="5232.9400000000005" y="4461.46" width="132.11" height="133.87" as="geometry" />
        </mxCell>
        <mxCell id="2_bzZY8JqZcMzYyIOrCb-2" value="&lt;font style=&quot;font-size: 36px;&quot;&gt;POT&lt;/font&gt;" style="text;html=1;align=center;verticalAlign=middle;whiteSpace=wrap;rounded=0;strokeWidth=3;" parent="1" vertex="1">
          <mxGeometry x="5239" y="4613.83" width="120" height="31" as="geometry" />
        </mxCell>
        <mxCell id="2_bzZY8JqZcMzYyIOrCb-13" value="" style="shape=image;verticalLabelPosition=bottom;labelBackgroundColor=default;verticalAlign=top;aspect=fixed;imageAspect=0;image=https://blogger.googleusercontent.com/img/b/R29vZ2xl/AVvXsEhQisCiRRCUMsrJxb1QDrJZ21HFuyD5EsneMNEyu0Yrg53D9dNuJwAezbBlpJfAWHN7zCmP65dOJBwEtsH9OvJzpB1xsN6fxtythe2vXmYQs7P9N6rQg5Bf9DW-Hn0gvqYZkWISeJvwhSo/w1200-h630-p-k-no-nu/4digit-7segment-display-white.jpg;imageBorder=default;strokeWidth=3;" parent="1" vertex="1">
          <mxGeometry x="4880.28" y="4461.46" width="257.44" height="135.25" as="geometry" />
        </mxCell>
        <mxCell id="2_bzZY8JqZcMzYyIOrCb-14" value="&lt;font style=&quot;font-size: 36px;&quot;&gt;On-Board FND&lt;/font&gt;" style="text;html=1;align=center;verticalAlign=middle;whiteSpace=wrap;rounded=0;strokeWidth=3;" parent="1" vertex="1">
          <mxGeometry x="4885" y="4614.83" width="246" height="30" as="geometry" />
        </mxCell>
        <mxCell id="2_bzZY8JqZcMzYyIOrCb-22" value="&lt;font style=&quot;font-size: 24px;&quot;&gt;REFERENCE&lt;/font&gt;" style="edgeStyle=orthogonalEdgeStyle;rounded=0;orthogonalLoop=1;jettySize=auto;html=1;entryX=0;entryY=0.5;entryDx=0;entryDy=0;strokeWidth=5;fontSize=20;fillColor=#1ba1e2;strokeColor=#006EAF;" parent="1" source="2_bzZY8JqZcMzYyIOrCb-18" target="2_bzZY8JqZcMzYyIOrCb-23" edge="1">
          <mxGeometry x="-0.4544" relative="1" as="geometry">
            <mxPoint x="5499" y="3934.33" as="targetPoint" />
            <Array as="points">
              <mxPoint x="5299" y="4026.33" />
            </Array>
            <mxPoint as="offset" />
          </mxGeometry>
        </mxCell>
        <mxCell id="2_bzZY8JqZcMzYyIOrCb-18" value="&lt;font style=&quot;font-size: 36px;&quot;&gt;&lt;b&gt;&lt;i&gt;XADC&lt;/i&gt;&lt;/b&gt;&lt;/font&gt;" style="rounded=1;whiteSpace=wrap;html=1;strokeWidth=5;fontSize=20;" parent="1" vertex="1">
          <mxGeometry x="5219" y="4174.33" width="160" height="80" as="geometry" />
        </mxCell>
        <mxCell id="2_bzZY8JqZcMzYyIOrCb-28" value="&lt;span style=&quot;font-size: 24px;&quot;&gt;DUTY&lt;/span&gt;" style="edgeStyle=orthogonalEdgeStyle;rounded=0;orthogonalLoop=1;jettySize=auto;html=1;strokeWidth=5;entryX=0;entryY=0.5;entryDx=0;entryDy=0;fontSize=20;exitX=1;exitY=0.5;exitDx=0;exitDy=0;fillColor=#1ba1e2;strokeColor=#006EAF;" parent="1" source="2_bzZY8JqZcMzYyIOrCb-23" target="2_bzZY8JqZcMzYyIOrCb-84" edge="1">
          <mxGeometry x="0.0243" y="-2" relative="1" as="geometry">
            <mxPoint x="5820" y="4026.33" as="targetPoint" />
            <Array as="points">
              <mxPoint x="5690" y="4026.33" />
              <mxPoint x="5690" y="4026.33" />
            </Array>
            <mxPoint as="offset" />
          </mxGeometry>
        </mxCell>
        <mxCell id="2_bzZY8JqZcMzYyIOrCb-23" value="&lt;font style=&quot;font-size: 36px;&quot;&gt;PI CTRL&lt;/font&gt;" style="rounded=1;whiteSpace=wrap;html=1;strokeWidth=5;fontSize=20;" parent="1" vertex="1">
          <mxGeometry x="5499" y="3986.33" width="160" height="80" as="geometry" />
        </mxCell>
        <mxCell id="2_bzZY8JqZcMzYyIOrCb-30" value="" style="edgeStyle=orthogonalEdgeStyle;rounded=0;orthogonalLoop=1;jettySize=auto;html=1;strokeWidth=5;fontSize=20;fillColor=#1ba1e2;strokeColor=#006EAF;" parent="1" source="2_bzZY8JqZcMzYyIOrCb-29" target="2_bzZY8JqZcMzYyIOrCb-23" edge="1">
          <mxGeometry relative="1" as="geometry" />
        </mxCell>
        <mxCell id="2_bzZY8JqZcMzYyIOrCb-29" value="&lt;font style=&quot;font-size: 36px;&quot;&gt;TIMER&lt;/font&gt;" style="rounded=1;whiteSpace=wrap;html=1;strokeWidth=5;fontSize=20;" parent="1" vertex="1">
          <mxGeometry x="5499" y="4174.33" width="160" height="80" as="geometry" />
        </mxCell>
        <mxCell id="2_bzZY8JqZcMzYyIOrCb-32" value="RPM (MA)" style="edgeStyle=orthogonalEdgeStyle;rounded=0;orthogonalLoop=1;jettySize=auto;html=1;exitX=0.75;exitY=1;exitDx=0;exitDy=0;strokeWidth=5;fontSize=20;entryX=0.75;entryY=0;entryDx=0;entryDy=0;fillColor=#1ba1e2;strokeColor=#006EAF;" parent="1" source="2_bzZY8JqZcMzYyIOrCb-31" target="2_bzZY8JqZcMzYyIOrCb-23" edge="1">
          <mxGeometry relative="1" as="geometry">
            <mxPoint x="5620" y="3814.33" as="sourcePoint" />
            <mxPoint x="5620" y="3894.33" as="targetPoint" />
            <Array as="points">
              <mxPoint x="5620" y="3894.33" />
              <mxPoint x="5619" y="3894.33" />
            </Array>
          </mxGeometry>
        </mxCell>
        <mxCell id="2_bzZY8JqZcMzYyIOrCb-35" value="&lt;font style=&quot;font-size: 24px;&quot;&gt;DIRECTION&lt;/font&gt;" style="edgeStyle=orthogonalEdgeStyle;rounded=0;orthogonalLoop=1;jettySize=auto;html=1;entryX=0.75;entryY=0;entryDx=0;entryDy=0;strokeWidth=5;" parent="1" source="2_bzZY8JqZcMzYyIOrCb-31" target="2_bzZY8JqZcMzYyIOrCb-33" edge="1">
          <mxGeometry x="0.7092" relative="1" as="geometry">
            <Array as="points">
              <mxPoint x="6034" y="3774.33" />
            </Array>
            <mxPoint as="offset" />
          </mxGeometry>
        </mxCell>
        <mxCell id="2_bzZY8JqZcMzYyIOrCb-31" value="&lt;font style=&quot;font-size: 36px;&quot;&gt;HALL SEQ&lt;/font&gt;" style="rounded=1;whiteSpace=wrap;html=1;strokeWidth=5;fontSize=20;" parent="1" vertex="1">
          <mxGeometry x="5490" y="3720.33" width="190" height="90" as="geometry" />
        </mxCell>
        <mxCell id="2_bzZY8JqZcMzYyIOrCb-34" value="" style="group;strokeWidth=3;" parent="1" vertex="1" connectable="0">
          <mxGeometry x="5839" y="4431.33" width="260" height="240.5" as="geometry" />
        </mxCell>
        <mxCell id="2_bzZY8JqZcMzYyIOrCb-33" value="" style="rounded=1;whiteSpace=wrap;html=1;fillColor=none;strokeWidth=3;" parent="2_bzZY8JqZcMzYyIOrCb-34" vertex="1">
          <mxGeometry width="260" height="240.5" as="geometry" />
        </mxCell>
        <mxCell id="2_bzZY8JqZcMzYyIOrCb-11" value="" style="shape=image;verticalLabelPosition=bottom;labelBackgroundColor=default;verticalAlign=top;aspect=fixed;imageAspect=0;image=data:image/webp,UklGRtbAAABXRUJQVlA4WAoAAAAoAAAAHwMAHwMASUNDUKgBAAAAAAGobGNtcwIQAABtbnRyUkdCIFhZWiAH3AABABkAAwApADlhY3NwQVBQTAAAAAAAAAAAAAAAAAAAAAAAAAAAAAAAAAAA9tYAAQAAAADTLWxjbXMAAAAAAAAAAAAAAAAAAAAAAAAAAAAAAAAAAAAAAAAAAAAAAAAAAAAAAAAAAAAAAAlkZXNjAAAA8AAAAF9jcHJ0AAABTAAAAAx3dHB0AAABWAAAABRyWFlaAAABbAAAABRnWFlaAAABgAAAABRiWFlaAAABlAAAABRyVFJDAAABDAAAAEBnVFJDAAABDAAAAEBiVFJDAAABDAAAAEBkZXNjAAAAAAAAAAVjMmNpAAAAAAAAAAAAAAAAY3VydgAAAAAAAAAaAAAAywHJA2MFkghrC/YQPxVRGzQh8SmQMhg7kkYFUXdd7WtwegWJsZp8rGm/fdPD6TD//3RleHQAAAAAQ0MwAFhZWiAAAAAAAAD21gABAAAAANMtWFlaIAAAAAAAAG+iAAA49QAAA5BYWVogAAAAAAAAYpkAALeFAAAY2lhZWiAAAAAAAAAkoAAAD4QAALbPVlA4IEa+AACQmgKdASogAyADPkUijkUioiESadSoKAREsrd3o7p24zyAeAbIE1l/UMhaAj7XTsy38M/o/lz+VXy+cf9onpr79/nf8f/h/2x+3z+f/5e6LsD/qfdV7+nM/+l/wv+G/7/+Z/////+53/T/8HtS/UP/Y/Oz6C/5F/Nv8t/eP8Z/2f8V////r9bv7lfAH91vUl/Tv8D/7v8r/tP//8sv/J/8/+Z9+H9z/2/7N/5X5D/6z/jv+3+e/xw+zL+8fsT/t//9/Zs/6H/y/3n/M///02/tN/8f9B/vf///7fsj/nv9p/7X5+d/rwsHkc+i/a/wp8vnsr+G/zX+8/xH7g/c7+zf6HiA6+8yP5n+BP0f+D/eD/KfPL+3/8X+f8jfmV/q/5r8nPkI/H/53/mv79+6H+J+VGCt3A/F9A73U+5f8P/Jfvh/pPjF/H/7/pl+6/6n/y+4J/Rv7b/2P8T7qf+fxefVPYI/Vv/u/2/u5f5//x/2P5zfAH6r/9P+t/2HyLfzz+4/8z/Ff5v9oxpUMhASodTKhkICVDqZUMhASodTKhkICVDqZUMhASodTKhkICVDqZUMhASodTKhkICVDqZUMhASodTKhkICVDqZUMhASodTKhkICVDqZUMhASodTKhkICVDqZUMhASodTKhkICVDqZUMhASodTKhkICVDqZUMhASodTKhkICVDqZUMhASodTKhE++QzX1xhDgkjTh1MqGQgJUOplQyEBKh1MqGQgJUN6h8yproMFwbm3VxYU6lFWkNYX1BMqGQgJUOplQyEBKh1MqGQgJUOplNJf/YqRbDEyBbN98Q8ZTX9TP7ObKqLjctOYkoPWY8ZJdlsaeoEqHUyoZCAlQ6mVDIQEqHUrwfa9xeP5XrOFCpMPShcAKFzYcEoXROWE8kE9OTUBg+pNaQEQdKqwrR63L4737gAcQH8n8z3rJVSEBKh1MqGQgJUOplQyEBKhxRICtee22EoLqm7ClN5QR0P9RRpeVWNtMAf8j92kl4Uua6YjraHbTeMKPwm9Spymj7MThHtPA5LdqppFglJlQyEBKh1MqGQgJUOplQxHvZdmeW78EVmOtdxtjydzo6TeKrU2ik0ubBTUlU8BbQsy12PyD1Ywt4tSfWvEJG+HLggh4BEPE5w3sprr0IB4DZmXz3FtJ2pKdk/X5nNUiC7aeoEqHUyoZCAlQ6lhwrJK+tXVylucukNmPz0MYtraXFeYSmnmpY8JAN60767CFF1YyQLmvgh9f6jaycShRvPte5FSs1HSOEitudzESBnvw5zSnUgyJR1QamQ1zZPI7+Gi+B6mVDIQEqHUyoZCAAqUf0iyoFnT0qxUE3JPa7K3zeFqROH6TPkwCvretP8DPl88bFUXLy+xzBzW684w9wpL1BP9u34+nE68dzBiIk/bT1AlQ6mVDIQEqHUymnWC0V/QIlZaEwZZTfxllm4vJsbLqPdtOe208zlvYlO5Df4njpreADjxRV5fF/MnxVSTaymY3qTKElrRtN5W4iYxVYCYFNQoujHyLSMypJU2aL4HqZUMhASodTKhkIACp3D2WNkz6RRlR6AshlhyTa2AwmoPsz4/gHsnzjp7/CIqq+Y0xrU6MPeZNnH/cHrhXIzJjo85maIL2grwlRJIkkZZxg2k+dt+Pm4HZOu8dUYpWhYpiA4/bT1AlQ6mVDIQEqHUyoRPqwhAmnDJ3L+XbBaW12qID+EvtRAiMwJhydwJYCiwlw+HE8iZL8udfbkGJm/abo7xcmcymZVBqmE9algKYzKC8TJrDoJjEF209QJUOplQyEBKh1LAo0u5idVoK49u4iLRAFKzkcWbYYsAwvcPWQCRwOOFjn98ym+bGwy1lLf8s3zrdXXaiS2wRgfsf7PKsxbDhqWI8W/d3ow/sbjnr02H1anCykv/ZzT1AlQ6mVDIQEqG8+L3Oga3iCIDM7swf5DqADZG/oihpWmvjpp/Lzy6t0pjlDe6rSJaSKkLau8m5WpZmJSHJV01FHT0i4d8LYTJvtzWX+62iF9nQ6g8xciIvLVTGg9OB2etkB9KmlJQhw3E5hOHUyoZCAlQ6mUxc8MgSzm0xudWudhuUKKSXFy6Y797JvCEtTTBG46Bc/U2yaAUnG+l+XoX3+SJFUFtsjnB+uJRg/CBk5M7AVeqNVY/Je5+LN3cceulqueHUz3EsNsz4WjChL9srFXA4l/eqF93ptKmBEPN2CXlgQMAkz044lr6zx1VaBqdlUMhASodTKhL7YnvyaoZee/BGAFCk9TQRceSBj0I6QOTY8RRPoPJLYTmt/3b9+X8aN0i8B+Xmpi/kVn6aqJov+Ss26qholaqeZ5yS5ZlEzaTmsI9zFKc67ALuLjWNb/fs3ajIKuOBcTH6EzNkgH+Ma9M8iDGhsmdKs7Yz0Kawse0ltUz9w8XxVDIQEqHUyoZB5j2Wffd1C0QSrfr4Idk5M0o9/UceP/2drc4NjV8sI7nJrnZRsOJux6T+ANYIUjdG9P4p+T4iZumT8wWfhxgPNvU72ypBtoJNPo/NdEa0xb3I094KwrFkK6PaVR67SAFni/YOKzxSXwj421SvgYje7GPExQC8CNthYya1AfPR1dVlBCf3GONQeeefweAIXu269nbi9+QZtgQCF209QJUOplQxHKLeazNUofLRxWdh2KKl9gLTub5hfGaj6uh4TlvRIeOaluqafAAznQvR//w9qNozSS3/W53dycxfKIqxz1GCyY8xkJ3Ww1WQYRy5WWMT26227x1aZV60QYBlC9fYdSvYjm95x/azvD5ekTjxoQuSEF/9xdUh3WCB9qfGGlEMvIW81/osfKPEpA9nI6zBXXo8qF3Haz9rQVD1MqGQgJUOmiyV+c1PF4fj/5PuHc7Mh+FLUP2R1VSvHRzFJdNSXM/7qvNYhxIoRmLGO5WcC1ZYlH1yIkCFcvTH/9Q/Q3ol8IaPGfGohrlU9TIqrXaooZLMjU3pXViANLnvn4ky++MeG2JbrOUKAG7MpvH3BYq7l/Zxod6VH6vcCxYogD29DbTw0RNxEarsseDU0AtXvRpWDY1H9zgvM1GKATYLtp6gSodTKaeY4ZdgpT8dbI6In7o9Ix5HKiaVx9dhuXdPh90OLHd6VTO6WPbu51qmtzbAmu8Sus6Drsc6LQpmaX4RqCWFy+Pt2RRfKdo96JcW6WIb+Y1AFDDCbD346u7nw8/OnHKlyWFWcYZggyLbgpksj4rqBTZyxfai4Lus0S19sMvSCw8gVW8qANLCSb+4QwxbAKfrt2jvOCqYdm2pRvVgSM6Z7bIW4sJRM9IaeoEqHUyoQBgnXwPV3clih+5VVoa0ijjKHcwOTBKrD3+Z6kT4QNaijL6FBSiCJMAQSXcJ6lgQjbnUGuBZSDGI9S393rnkN545K06Jz3JxmB919lCDJCjGdXNfa/VUsVRQ14XB9L6jRZf6D//fBZ3SEWCsfLzdIA1tf30XFBMLTxICUyjHhJJhzRx7/bk3a1h+geBb3wv2d29JwQCA3FnCc2gYhQpLbTQpoGJEXGfKYvHEFEAVxAwtz96D9Y2eYUINY3E+vVdBQfaeoEqHUyOFn7Pzsfr8lD7x8DmIAMUjPlGxYw4xdVkGvgWKXS3fk2VTqVQTqsv2oh7Gxx8SV3QPJ2Lp1Kxm8F8+qhJhCDZvkUzfer2MI9VdLnxj6OFTSgeC1xo19BU3Y1Y8Bc5iVRvewBfGBer5HCZhnpvGWRxScITCJdQrT8tk1FFgikq/IOMEH9mdIkk4mYQfhi4nQy4kivOHQsMq6uWg2NWTxC4+X4lVBQrhOVbOqdVLjiSSF2lMVW11EP5DstBmBkxiy9wXbT1AivIkTb8e7YjECu46ZfL618wkOaOC+hWlSsZRaCuFmlweRGc6bBnygPB+ND/QPrug3ckN7HIH62UpQxb9zmJbrckIbRRZs/QM1h9mxOQhJr9Z11a25aRpMaSvkf0UCnfvPVbpStpJQm8lzh70TZ3q8I5PLC2aY4wbKVP4I/SNPYCFWIoRJ5hIkxXKx4lJUBOzfsfo3E3b5xNEXhdl5dkpGGFCOi2+ClT9CNMflEQdreR9zMlk6KoNrTBRpiHvbF8598pKRrkhwqokeplQyEBKMf+AEH8pexA/bA+5YtC8KvvYnRUhTABgxZpNkm9e6JhhzREOcYCey0ntcg9uC0yTBauqI/Ypewi6zoeJhcmo1o6Smxwjd9/zDQrluyy5We5+JyYeMlgFqq++PXCRgJ7wWg5lzhnG9fOjTUrbii0Lq2vfH1+mfk5LUUl5hFms8tIJj/NiFrXRsaG2PDDwqpPwmlx81RU16kxcEi2tDoEKWYGhkBlpg0gCjWQjG9gGpD4fQgRU3frTEgQaXsT46WS53gpq7/UOGyqGQgJUDic9Z/b2bqxBpyuMqHG4GD+WcwrF5lK6Tb/4PvlxSxYX2gWSgz8aRZUaH/mImifZk8zJ5SAsx+1iAklvLoEjhw7iIP6NR6PIQXKdJIf3QCJBlrfN122XkYOX2UnUeEKdp19vgiRqz9MglzqtuE9DLyaq6YijFHN6Mod8Aw+pRqWhi+nMpQDQFVz6m9135005DRo7D0A19JuVOkTqpWqeAlvNeAj1TGpyErlt5qsOcdNbHrCz5EqNknk/hgVpZBQyEBKh1MiFkfA8nZlIOii+cdTde9x6zXXzW327zwTXFwKdY2C1z0vZWENBgF8pjPrIQV012MD9TKMei5fAW/4Gqt+i4tiWnXFUxayEItpBqv8JgzLC1QQNvIW8Wp/qp5TGEd6BKNPgArQHqQ3vHDWAYz131YWC3ODrLuf03Z2eJqeEnpel6Sc3+FVpNaJniWcyJjKa5+EqakLCZnLdHFgjo2M5gu+s7Dza3jLXTsGa7KC0SXexXXQkPx+EOAAQXeYoujIQEqHUyoZoEERaisKKZdPvy/ZZrrkBUqrAU0VhMZAb9WSIbbkovKQwc1oZFAXge3a/X6UXWHqu/NLyhcWRy29cqKvaD/rvSF6q3nS2UDkpxu1C+nEBIemofHOyYAN5swNXfMe9w3pDSOpP1fUZ2/IvPCvV/qP8qMKa2uPFpeGPazLY+3dlBOh9CwirF2rlcisOcat/3fOFptx+De7SuUuSoUNepBa95qsQpF01mYG8sxmbdTingHOz1tOSbYdaDW/GnqBKh1MqGSxLGkmI63NY8kBzx5c5TkwO+dhBizKicUqFl/5qEr5HmCRVc7Qxqz5kKSBdim3TITr1NtyoOVRbzq+4kdeDQdg/kU8nd7RVr2RlWz2l+XX41hCgEcp8OIrrq32IEepEkb3fQdBvXZlhfX8adHgFrWQRl0nBSktyA6yC6dthQglO3G5oHYf1NaszRU4rKpgA7TfIN+I0PIdREJUBpxejVisYknzLDnrZaLa9EF+O7Rj+xgyULtp6gSodTKhuEe9415l5bymRw12CXMiZmpyJNQGpOLnv+AQ85NGFSyqK/niHnMmQPAN7pa+GjrmCFTi4eVYucnTjmgVysCbgVQ8x6TxEc0xE/4NaJjN+duNeLM9naLy+W2dUzwbvE7mcV5F2Zyh4FWgkg1KPaaUfsBJIvXoROXB8kMZC3euXZ+w26EXmz/xbwrnBPIsUkxxGdS2EeFjBKh1MqGQgJUOpkxu3BbcA8hNLyaxoJegkJHtJfuLcDVgsLN5Ji94KqTRHSFjT2iaDGxTmGCNfK5oN6wPhR7pukzOnh0ImNPYbjjxIWYITqR6VmxNOhvyMBIzHsilNw/1NkNjAqafP6C7Moi5Xs45jcWmWfG515KH+ks4aLUYKaDcJwAaXJfSuKxj1prqklxmILtp6gSodTKhkIFJMrtATMsQhNUKErzfV3LSlDkC0mEc0tIsOlaSRbMnmmP2JNM1iLy1n9PgOBB3K1LKu9sVaAl8Nb4au3eeD45F+WKOxz8Zt3BzRF2oCvJYZEYr5LbU3WYDxOV7c7nxuDI6R+l136f28HO8RPS+tl/F9Lp3C+DSLGVpQWHG2SpY3Oe/UCVDqZUMhASodTKhmhch+PvmieWrFcyzT1D8nChajuYEV9srfjF4c2U4cJCvfi1rdS/HvAGiNvRR9ZJhtEwn2eLAfWFNc/PWaUi4avdm+b1iY0fu/WX0LRiZlA6RCZpLkqRJJAlUJ2N8N27eHKY4qDINVyVBx2ISn+qXznPGMU/o7KoZCAlQ6mVDIQEqHUsoNjt2YGHy69TXZTrgoJgW4Sc3X4dE1Ro332z9ModJCt/eKXXqU0osPEETh+yf5x143kTUuji3rC2Og3TXB+tgsFE7FVKceh7C44DNmDHXYou3bZgStlPVJzximVKabWPxA+z3Smh7c7CXCAlQ6mVDIQEqHUyoZCApFHCdAD6aU2bphfPERI94ziGnb4HLvxe1/PjhRhVeOpg2zcwboIko85AbuaIBa9tjjw30z401/i5bBqJ5uzQWH6wKYIAgIL9EZvjmAm8T8M8xaL0fVpvvQEqHUyoZCAlQ6mVDIQEqHUTh8QnhONOQhNHh1wUv67Qvp5Oi8LbqGybhvLiJUwiDRjEaUfh6CY6rA+opCCsJ64QauZU0mKRrUBBPs5dro3K/Kt476h6gSodTKhkICVDqZUMhASodTI1S1kJcVxvct9VSRHXndi7XXcci+HF0JDT6zmpzb5rV0c6m6ER9cj4KhV+siTGJtY7Gujc0qC+EBKz2NMqGQgJUOplQyEBKh1MqGQgJUOpkXMeL2+TMSB51KYSmVOVUswigc7sOja8ej35i31+6yJcIp/zsc/tFGxPECrDenwPUyoZCAlQ6mVDIQEqHUyoZCAxq+oSCKQ078+vQz5k7LXLVdolHkkcwaCC0A1Z6gSodTKhkICVDqZUMhASodTKhkIBIGH3Z9VQmhbDAw5HLrKGSC7aeoEqHUyoZCAlQ6mVDIQEqHUyoZxc9QR0EOfwPUyoZCAlQ6mVDIQEqHUyoZCAlQ6mWF6J1MqGQgJUOplQyEBKh1MqGQgJUOplQyEBKh1MqGQgJUOplQyEBKh1MqGQgJUOplQyEBKh1MqGQgJUOplQyEBKh1MqGQgJUOplQyEBKh1MqGQgJUOplQyEBKh1MqGQgJUOplQyEBKh1MqGQgJUOplQyEBKh1MqGQgJUOplQyEBKh1MqDwAAP7+/hAAAAAAAAAAAAAAAAA7GgpEXr0DDOW3j2BQjixiWNTRmttBq57atbxB1WC9StguK4854RL2P7uSrCsn9cbxz05sctQAAcQYZIGa3pGR87IGtbIAdNR2Zy1pIuRiO5gm/dgu1PKYszObMg1nOahj1ggqS11usEFCKeqQMv6oozraKWUb3XnbaIHXu9AJzO9OUo8UxEC2LG+Rog27FHhQ1ytD+KLzgiZO1yHcSPc8S0YELW7Or9Hmahs4lMy8Jow4cSLaLTtS6ZEqZiHdWDFgvBwvYpg/f40BRmhcLYVECBVy1ACXuZEsQZ56VSDEdsINRIiBJtUHBsyziWFtpQrQuVzy/ndG/cT7Guh+xLPe3nDB9cDcRd9RnV6jUAAGwNCtHAiKbaSzEmZq5z7Hr+6CXCF8QuAe/2p9IVmXSFXojTJ9TADP15oy3wnTUCjC28WHwbyfWCBDJ/LqnxoL8n23vXgylu4Zn2qeoDHR6d3/5h1/FzOAgtPEcVAymyGcpk7C1S5UlfhV5LYQTSzW2Rr4fbRpEUa9BiNVBhvHwfVmrIzxYVzuv6yB85FKINCxJ5LGqfjJQA+ubeDjnPsdc4gSJKjB5TOGUzqt3s1rBbSTLrAtVIZBlrYjOKqiGCakkAdp80v/B5I5bHhVewBJ9yU+fZp8hsiX82lKLn0F8N/OUb4S0mq8lXMKT2XsHzi9ZR1sGXLYB6Phb8uGoDJiawGhWJU54ZJHPMrNhSFiVrsRE/ca1Ni9iEFKO/qYeFaQVqfyEqyKqBLuLsQ1kKht2SnKA/kS0dMogYygwmmHoFTS/u+cRwB8xIPtlciY0EqBj+O2fVMdn9t14Bscr4KFQVavp4XaGjzVbEo9nrgGZ/MKFA4eZ8MZ8jHkKZPCEV//gK/lVrZwAAHDwx+7bMJWLySogOvhbqogN9OQSr/Lc1aESB9PpVEkgEGREmVDhPOBO5hG+v3oq+AXERsGNVEF18hNViJyOET++87VPXlDQjpNO6pxI7LZ1zKTkuqP/Pjzssn3FpeqaCWSMsdSZfUAXKgJJ6KTnthBo9iw2rnDBLOIW5zuPPfLGglEo7VPnKJJwLRDyGXiCF7fGqiV9swi6j6z63hDTnN6Avi1MoyqZhCqbKs0aFObrshM6H9D3+O6xkD+LBfiGnzDQ5k/0HTduyxPfGRUKZq5W190GjYBKVwl1mi2TTLVj+Daq2qJLYj5u0Ue01gL+Vvq8rQh88wbTDKRJqlpm2p4Ktj8/sE7t6/5o2o39GS1AA9Z+Eqw18u1XfjaFzVcQJCQ8M6mC/uCvYYAaJdjYzCXznAYlsznY3QeIe4TxRk6fa5EKqnUvLchMV7l71J9Y5qnZMIcwaQstxdiOLDZFJJixkJUdFecUURf/WLJ+zGY8PiDadNR8+IbAAo3Gx5M/JuLKbu4BlK1wUVEIKjrv2SVysGmLEQMgPUyzzqjhNs1wzwN8iBdndVe/CJimTl32N9wvdpNKi55f2z41EhVwm7/PM5w1PFFz8kTlHaP8C4aYRFmq7DQF9MZ9e1yWjXgILXQcSMcmB0GoppVoCY14nyeP/TThT8VszUQEUybmmFDEyX9cC0jtflxNGmfwht3ZEHk/hGrmFaWi/LE//6JkPV9WxXnBkCYOor8+K/1zp2dIAAEPJQi+7r7oDz0FcIDatYEnuA9SHxWTTR4QO2H+GUctXYPKddR5IbEUrw0qXA6wqNHaP/4jAWOTukYJTN4OxYvPk0ALwQRG6RSjCpu4lLPa6WNKjpzUXGRb8oSa4yMYSokPdzY+L+ecXm8oxjQMJhmWnlqBAnUrcy726qsQB83r3+z3dWsY0lBgixrH60EgVcPchQZkVAYLO8W5MYId/FTK3qAa8hrHtyXo+y0y7hSwhBrAsp3XaU3wJ6fqP1vG8lH8joaZPndDKSKWEJDn/oB0kHIepD3tfsPVtOTZHACX1UvyOc+pyRH5XQyhn8CJxaUkChUHLlaslxw4hCabAft7fqj794vyoxlZWOppUuEHS4EwrG8OA9T0zvHQgS4TG/+GIALd9vcowbn07w0PPCIF4B7aMUfX+moiUxi49cG5ZOLQgiia/8PukN7f2wefWapjhhoEdeOsnxBrYWEU+xVHnd/PoJpLGnHYYpe/DhTEnR+M7+1jOYDO9a96ytn9nBWHrStNmS/GNXe4D1HUNaQkSfvv9R/yu39g82+gOCr2cf4udPdAaDiBdNVc9M3656iqkgT3iHEb2yYXZ2TAXPt3/7+CI0fVXBSG58S/LuK+5fNuK7Q47FIpKuxply8FrMed2uDvz39afrXltQgfz7iV1br6Kfi427qLTMAhgFEyH7QQXk3KxcIOptg3kNuj5K3iHNBrOJtQAjZFHCGyYeZkDl+t7CW56/Xh60rTNegMx20Hp3jPT3opw5HwA+RTkhfg8fQTdBm4/7oYG6eFBfcgBs42q3PnpmkBe5K4j3bOANoLJaPoJRW7lcksf0bGC/c+llH/bVsKJO1WYmyFpJVCsP8SgdO7yIkth5oAB42HE8NhlGvh/DCP60h59FVTK9mfATbkRIeGXE9P8hQRNXyNt2TnWGKKx4AOjnX3Hh9QWNGuFfI6xQceQfB0U/kMvlfJo10O9RWpR3r/F+HRqe+5O94q6cGCS/AYSIde7F2gbc0IHiwsucDH22mw745aX417Jj4oVFXi6Hd2RL9WpQi9mQ2Zi91ocUxxiA7y04VCkxQBwT2fB1w/PjouwljYE2CQ61lwdpeXs0+gMV7K0MmoEuEgFE5lq4zEGno4KFaHUvrcaJdUb8Az4skIdDz3jswQhtS4OPYCyhmL93Te/wSxzunOpGXvL6wLJfbqxQoASTcu87ep4EyHlzzO/K0jy7RrX706sedk2uKZRrsKWyfwVsck6JKdZnFcD4tbzRr3P+FoFTn/6GMgfqmgEWUe2IpfMrEG1k1UElix5cz7Xd2fDSKZjoYRTh7rJ9wJJimPHxJ/j/q5qUMhAW2Jekva4OHFsQUL20qVriT4eKUj6zwVj8IvqzjRt0BpczYR9yiC9xIUPBp/dFjoiJb8tMB2M6xE2rs9GvipU/FQguAo3i04+Y/jSzFChdmBZ6GztLlqVbxIKUGOgwBuWJUl56+TJ8Ll8P8FFQXE/bBxvqrspnqGt8MSxdRpbuRj6ZXPfJNw4iTpIhICnZRepQ6q6oj4Ng97n1Gpfl6iUwPq6XAKbYVCODGHRqKlWKkmKyy7JgJ7ZYsPDS9MOge5Z311pfb9s1a99Pc/xzYsoq5ebXr9mLCnn1nhFKHMG6sYTg4+vn7/9QDICvpxgmecJU80X5yidliyMhivHKF2BQiw2tIAHL12Pz7NbX6sG78Z0nVdAGwzI+onTKHD+C8NpHHp0fHlU9FrRUwSxb9+POzL+GOtwLvvXd4IRgefguG0p8ulb9GoyJABloa41ENlETTKEX6b1V0wADpi1Y8Lk9dOmY7rzAJELLxWg1O6KV1+9CbJkfHKAvtOgtkSTYAXCTqWVdLNa+wprmS+FMps7OXClxCb9jEKLxIdrQ/8U0P2xg2/FsE5LZMpwBEMbAYcJAyVZoiAX1jUlnxXH4ApvQq0GzeropqbAlrB4fwbBGB8hrzcFiaxI6CWCN8Hl4AeDZXGP2Gmw+UIR0L1W5CMkCafNXP6whssbXEEIiXOjMKIprkkeLGHh2QtGOM24TFfK15bvy7Qnx7snD43ycAIYksu4DZs0OsPmhRpEI/t4pJERhBl1mEUHaYbFQCU5Q2kpkPfNIVpcGd4ZzwK5LPBFD6QVOJ8hyvWClMad5Vn0402u9yuJc9CuFEVbtOV/kFzijMqflJmcLzPxuLWskFRxAB3YJEMx/KSCIfIK3/g9SjpXgYRqkUCGRcFluDFPHD3Ik/Wpw3Lm5KfWtqNDNjr7rFidLZWb573Yfr0GAydz4Tk/t1PkiEvT6gTOhrk4SdCf5rQMkLnfUfqqLNtN0J32tny+mXywGBqhQxs2txnqu+ce7VE63itDa4m4Y4vnE31qV9TtJwLhunrDYICCvxmPTpLHfqKhKaNyDSU8GfarmTkMWnvCpJQJEbWv3ApGmvN3JTLELSBo0HkpBUpB8+ggBpsjLUVxy9y1nhojYvz2AHssEwXB+TpydFtyeJBc27Cm9GgPVrsr+aIAD52cTfFt75qo9R5azTgZMxP2W8eVzQhjl4cfj3egeT7e/4QMorkX/4brSd0cWdSihGOlPHTp9QuXeTUWmLXndYJ40iEKJwLEollitQhHEIKF/1klCeTXJVcRiybwg5fjDZUHc4gVl/JzYte4AYxY2OmwjJ3evqBrncYKhHY/Rp0eekuIBFG6gvXGbHx4Dp3UacBolEKBwbCu2KNSGokNBBivnJ+D2tvIzE5/NrXrppJzCasLddYjQxo0GpB20i9NbNwA2U12AXs0f8UBMnX2lOhNadBFyRSqr413MiD7d8HtthdjgKaJP4mVg/pT5IPILR0LpeRuyiv2rCHEuxVaZYcnBfy3JMKFb+F5YQdV7laAiLX1+nQv5rwnT7V26jYIso5ERnm83NKY/HQAATrtvcqY7Ip9eLAUitmmdkuGduuHADdULbFSSOUpz+g6x8zV+FFfwRaE2eriWKyuLEEADAfaS4/NCVqr5eTGfiAWbXqENGb46HUbnBxONVzEVr0FBL7FAGkkifl50x3oK/Sw69FZUn24UVZPudsv+4GSKRvPdWgHqIkKJUGh+sedh3neWtbEapCuNqHnBXFB02ny18RJjeLmaHZ2AVU6mtfFuemLxutI7VSkWHlzuLvbjpMx/3P+pOHuV23Q7SWOaTUTvUgS2kYlNJ5CU5vlKIzFvjfkTkOwMWzTo6Nqk3kk/LLVyzmydi1OYtAHf3ZKSQuqDfJXs0LDOH22VgF+AgTfhSfg56KM2pOKtVDvC+bL6uyjbakm8/G332Aw0QzyWDw5iQXcPc+a9bQzE9qZrRO+Dhc3fpGpyZeluq0Z24E305wuHhT/G47jVUM8JOwUwlNyLfRIwpxMVWibwCRTCjiYBYE2fSfDkI8akMcoGJFuiJYtzkkIhQH2qFUYbm0Z3i6D9sHaRd/4H6WNQQ7SIoDPU/Vm4Jdr25W0dH6hc2iO4FsufMbz583eFOUdVR4iKoRCcGAKnkPjMkv56GVT4fW1juwrHv+Yi/GITpV8kAZ5Dlf4PTVvqu959V1u65Nd5QIXtXcLKPwPMUV3p5Zwg6hy+DjA9GBffjzkJlddQ5wIU2TpPbBTQL3zaVE7FwyR29DvBoBv5+u4Yva/IhkFrrn3ERlehK4scIf42mvsqLGnqUja/xtTKeFwgUw0MYfGTuZ9eKS4izBYtT16Wh33xnQAD6IFJ7vBpVv14PJhIM3dz0IZHh4ovB1vbFTnyAhFPcgAEHI2lgwFLhrw3MnV3u7cpCtRwAGbf7PoogEz7niAY8LG/QeqPdDYoE06L2elnBYOTCpkYWnJ9byYDy742O3dXWwsuQF2unmXtnlRIzu26DNTRPKjXWn9DmjlCYLhkgQQtfHWvyzJBKiztJUx+iY/RR4Ec3sjmhv/ZjHZ8Wy573ff51iTA7m/VSh3AQHzxOGxPbzLYkBHM2JuJuEx7XVefZejzh/pTdpiDOGGyg0MqLQG6lIpmXHBZhbARC8GZyIWwRA3F3oPzYsc+0GUOkx1p0pZoaSuxub/LsNO6KDI1tB3zB0rzRnyii2FlEPWRKsxrbv5K7+j3WJ2U2Qy0CWYN1GisFmXUOzhCVRs+qktBn+Q8gYcbZgOfgcgeOc3MZBS99aF8PaCposOrgpuOz8eunxJ+W5tnkGtE3kXyS1vkz/xeUsb1OJiV4nGGyQes2NnJvz9vlClloO6WnvCBfsvB75TfNfiv/M+NWFGATN8CjpHOKpxPBO61m4Zr1cUm2E8uU3PxHrNByJ2vDnxohoO4jlG5pjSM/OL7orfNR1+VfDUBZdVsgxl6VJwt1a1Wf13KHzysWjU92Ob8lMR9tjkeWQBcMHQ8KO0iXOk77haSO6WpEaY4o49+rcXSzWn3dkhtiFp1FfXYX4THE4O7dWZe+IAEwR/Gk6mI9KK/2xm1MHZvthTKB8ttMWVy9RagSZqioGA5YmL54rxrJdxI3xu01qAw6aCz4w+JelHbG/EtGkB9GjXewtGpvK+i47Z7ojRc0WBfgamfoSKAdqMOy9Lfz6ldjilUSTqDKpDDyMyLwkcSq/LNGBbSn9IJ2cog6PC6mJi+pGsqXmqThgaYFjtfkfciFoCjJnWHJYkGrxUb6VwqJW4VwPcNkwSJkfr0OzZm1SHWf7op4kKZNN7lqE0FehrVWmCBMl2eKUFtFvUlSsn4ssxZAlyJVo7jF7oiyERhWWIHbhhZ2rF74vl/Mf4PZ4ChoaGFnwdyjyP8VHN0VMQv+zfSocpTPbp9n7BPPdIdwAGQemSKq3UGXJhthLw0uYsKN/kvM3UpANfUbk3APJzCVncBjG/ktMokACOvmbz7CSADFjfdYy/Cef3RWUOnTyDPenO4DwPsNKoMlzI5V4KMyRZFneA4xZxs8MgIQP0fceEZhGL1VHJSIQAheYECwbUiTI356o32mbkQwtign8Mk3fYCimykOsTlG98wKjQUfn7n2wejfT42bLAs7S7GQbWZY8eE6OZBhw19cJpwbJun42kBMjzjta2Wp9aZqjw2MOACZSnueiWjXg8JyjMiyFcnmKaOmoi7tFeQogco5uerLYi76VcZ5ruaKcjQYTxKCO1Rzpw56hClku/J03nkPuOM/HI8/a3kpAWDySIVQSy5qR2vsebH7VBv20nzHduQUa+fuJ5RpFcv78eOm0mveq1GqIPtUr3ZlCpLPIW3ljMTP7SJnylxeVa50JkGDdHzgCmrsb68povDctgZKdeIROC1SxMbg68W1QjIhUyLbFJbNEUsM4B2QLLCBOE7EkHf5uaOedtCCgYKEMeVaelY4AjBCsOpKY4toeEhidOOiMnHzp5QASw7CI7q2DieZw5x3s30u0aK9L8kws+Xs48obyWzhvN9t+givN8/9VvZ0WfcaMVZC8pe/Ew4QIT3DmWamvHxyJqjeZI/EfXvIonobUEPZFuIpTt2aJtmLZRXa3+CqOyQpHlXSdF99DvxZHOJ/koweGGgq8i0SvyhwIzLgYsSac17dLfILVrbuPd7OPJbfgKDhHknBR++UZaWjtfDDz8rIleqkccEIPS2/T7LBKFen+/Q6sy/NaAEWcUfc4yMshDzk1zTVwGH/XvJb4gl2UW4qmDaHnIhw8/oPY/mItLBZsdcV4hQ0Y0eDb+Q/qxUx9nl6jqKaiDX7thSwHKLt/kXcgZFkc7pSujoEgZ6SHG/5tD2t7060vEF2o+d480ICmbpGQHvw2vb1m79RoUtJay/h/jynwqjtwFTFg67w38ek3/fqoLfOmZyUmdqd/FO038ne5I3sRiLOgB3swUUPqJMDhuM9+ccSDm4pyy3v2OVatTnFtayOnmP3gaq/i19eDaQNHr/cZLzAAAD3A8Xg0UGqsDZ/+YJPEL18Q6oATEPwttYocd9MPVdlix4c15Dyn4N1ti8yPtzNLv5VDuKuMelWNm0vJ7xQ4WtsYhcQ9HH9lMSLWYGfXZ+oj+JNyo/uoW85GHeVc79/wa7mK1e3OrsrB2eKKBYj3Pjruo+aZquGEYk+plkfp7ULtc1DSpW7lZAg5M7VZkeOuQq0R6wxjw4GUlr6tFY0QszcTQRcnJgVUPh21EFeFbIasfmPXlxnxJIZnQoGoWgCajfiueymyTZRQxXPuBLYVTS+Yck13q/w8y3Il1pYczCPdfPb29bqh8cLuhUxGJjaEaW0lnlRAnQ6i0MemZ2T/DLHH3ycatuif52DEyuU3SBloOAtpDJeWaCqMDByZmoY6QhUqt8gQ1wnRyz7EJMKB63Eb0S/39CC483XkaFoMpzPJ5DXFpm5plQKkN7VMsyejn20vxPre7VzOHn75s+hKrHwgGHmFOx6afRoB/QOJBI0ccZCiR7fiwZxykZB+E8hIBbx2F4vWESbGt+3tqazphT3vDN34FhwzLIqFXlaK/3u/XST95fdAyldDxsnfY58Hv6tCiID3lpr5ryl/7la61RfLtoqZOPoxpco92lJ3D76vD+rfj40jKWatyRiPlaeWRLqrRZaBEdH4XSTTwQFOd8o88Z5Ik7u1mT7W2fXb1vzdTGhrp5yvOz/ve0anweoSXka9O5/WF6Yfo2kO20w735pNGRxz1nl9DqbX8XaUOHZlKeCCWU5Yi1iQSM3Zm6AeAkIAYG0HKeCLFwxc5/GvMZZifiH2hQ4f0xyFbr6o95NrnAbN1kirpQefjRFMPXKX3SSB1uITm8+1IbYcDmnETd7jeivq/PRjpBCmu2hNgPKqiACfA+fZd3euLeBw1oz/vJ/l+v13IYuj5bWI2zh3OaQ6CYoMCBGyA5zm7rexILexg7Y3WeT6e+VhIFflLBd/v5JyDpHxPl6J9aZqPOiGJjSpaYpFliT6bJqc3dg5AJU+MksILYu8VB6u/OAfoifHNXpQZGbCGQC/hyNgraV97eRwBLfRS0jpfaS/VLO3fTZa0RPJ44aL8+kJtKU2hPEjxdlsD5ze4kk30q1W52pqdxdAM4fXmy7CJBp8sqv4P3p0plIIc/Ee7E9aoGoA8qkKl2O0AYoQmVadcxPoifp8zul+6bh4i8v7UT3I33FMi9FGgRVUKq3mcFKrIbFCJqZKyMyX2RH5PlN50N1A0wzm+ljGwMOaIrxCkypKM+MdQWZAY1hQvKHuGShDAJmidon7sihTK89KUYgIqwJVd4TyOIGcLsuzmYO7lHQYSnFGVgzUffOho5NiSOvmAYLgYg8W6RQ8oJffw+ycJvHckWg8wwHFerqBHE2st/2tfsphAOxQCBlPPPde7KxqQgv78yEJKIkl80eMfjk9YljEShoqXd7p2FdU6ZUFYWnOiL27rjj3IKfiB+R3NY7cRzIxZVuXlXN0AMDKsbhMDamhitxUDDtiqq+hF46wWWIbNzsWXrXBt/OvmYZCLE26QQyuRcH3DvDeLzmJsRpNnKyAxA7kV8I5zdbYfgp5tClC8zfpSBmK0gPuW0NaaMU917OjQJgpIzTVPGmBGSZJONI9nM8ncAAAqussAud34vJLFYRT7iOh7vAzi76q76wYqi7a0VOTxlAXl8RooqkQxTgN0SU/18ImZVxoHxYdoRg0eECu/U3J83lJvZkLY1L+G7RjYLY/iElysDzQwTgMsP3AvxIk6zPEfVuhLK2FcZUFKJ4okBmo4M8tPpd/NFiVO/mvz4Sf5VSrfx2I1C2AGArjkzEBUfHu44/SVVzf7gerjn7LywuBpiuuwXO3D1LvKv9VJJbQu4OLctCcHHmAFeLM805vpemi4PCPVnOcLhqCGxKTf+NbH6dMfHFwaur2r7Vw+Z/YH9IVYx5tishFOxhCfhVCsgcZzoHqKEbtJ3cU/NjUzK4bdxcvizkAdT6bmcW87lpuy/tuovkMv7gHTUJ8LG/MbJFImTsBNe7eWjZ2HUUHXKelp5GB+FvMEsM73wc4SqEZlpV+5+BZC9joCPKtRBYH4G9qfPs8t3EqVJMPMQGx0V5x5/23DErQ9vxeBjzazQmQKVqNxT/YNR7Y2iwDnkUDjjV1uaxls34GE/LcEWJxUyd+lAZzu4OnLsoZR72lJN5rthcphfoYFxgAVODVYep2QrotrsxMBGsNDytqKmk7Kzw989PNBfyITWZUC7f6iQrTmBD2i2qM87LBUCP306lIZlJkDopx6bvk9G9oTAEFaP0uuiwqhlUkc2uIrQsHd0SrTSUe53WwKR7jGAtN5XFWDAZfPZLbygRjiJeD1Sg82GbcniNteETKKSAHncCAAaNgedDfYsji/Cd63zLsublnBtoUbeBAe3Q5GmkGUTuleNO1oGpEy87ayfkg0pXhuC9/iZXXABGGLNw3JY8xhwRzQB7fQDv/ehBlAXmicRemYhgwouRRhWwvqgl8AeecEloXJUP9lV+ZRaacabXZov7bJ8tt/BqqmJ3OHol99uOhfM5WuDrhOC1c//0z5c1iawoiOWb3NpB3ZDsk+awJrd4lUprll4JAw9Xdh4827Fv4j6Q4rZgseinguPJiZ41E7LVW2uiPlHlhNc1HoR825ICcN88WnLyRAdBl1iJg7ACvpuKTU5abILBIPgMiOPEdFI2pGasZchdUsJmx3JSJTqT9Lph47kJgUY8LCqFF/Bj5F2lAoWEi7fmymqm4DNYsVnEHOh3ROu7UOc+unNnSMOtfdO/l1ZSt+X7kBVH38Zex3S4QP8BKEfbrz3psUV80M385mXnyeAm9KON4iM0SY1wNPBdrbISlxnfeteZEoP/9V+vhlbZYJR7+Qp34q6Fl2T4f7AGRcYCTvAeftgSRhSe0k3ibJH9iICtTN3mE6Yjvnv6bv4sc4TcYapKd9E32xQy4oQQ/uGPTQTYRteOxjBuE6pfQUAVYK2kv4XptzQbyB/SZ+BAzxeI93DoQhMdzRt0zpgChfH8GlxxHA/BshU95XWNG4IJBmbAZES2PqnE1K4xHXu0EYXUxFWhhJVOZ9uKc0AJdUhJ3SqWsS90w6Vbn3rL7vnTjdYTbFdHnB3PJjaPDdqxCd6ex0xMvNbpH7rffrABdFHG2wEPRdPXFUUHrgWpwHLOrohGVYUzPI9AuGvOHixFpTpW58mqmPvGThoArZmhuAkFRfRT+olmse36eJgoNUb1wE9JjaUNAVhMui7VB+2stKlfzvuB6w4S60PAUR3n33S3iAg77i82IouhV7jsyd1ZLiidRSqLUxowM+CtSqCwZ8RnDxbfUZcBW+/iA/rptV+h+jPO1L1kI8T5jW42G2ObpODUO2ILjMqjeW68LVkqj8g0j9wtUaYmUnCO7cEl4VVTyNYyRdc/v4C2/8+RxZzGZZ24ZXC0tPS4Gz8+KQzoGfszIGVPLihhtVlH6m6hn7OVTBoZhoN3tNszrG04yOCi8MdrxgKZZK6rSoN9uNWHxNw6jM7L4Vp45lHAAExEYoRfFZxMGRwtnXAirZmL9wIjlIU7qUmstiSRV/7p/hV7/qBGYTOZiYGFlgloZn+W7FXKVfrf+79UZ9CsqLgqISFDU8Jk99nWHToYvX4UQ8E26yAMAptncU1/PmVvuvyR3O9/hkTB5bk+zyKUzj/BHo8eKRWS0/GilaQJFvzZvcFUiKtDkv5WB17EGOr8Bld+M0ES/104N2SYiZ7M2gvHbcUGd8iT2z+TJZZx9RnmhhRYZCGbaaGTPMMZvjHhGMod7YM6hnS0lsghtx/Uc6oiHhY36ABQpcXBIIT7Kd6vqysUjBx5QfUvUCuXRj6ceSKA3iPfCr0QXEfqrR/vhQRzzcKK6CIDA9ncvlIFEvCth+Ph1waLDpK2BY+aR1wTQVqDxTlJz3n7QKHUixzXNzXJFLyPQmXqakFyl21/8hrI7Mw8Nbu5nGRxKHdamNpxZf3UB3J0uqDerRPqcF9HfvuEpBpQvUSEneyYhYU/Vhf34tF/ymlwyEinsDGH1UcNcuczXcxvdgnji4ZXl9lMVYqyHHLJ5UAIT8Bd/IAA/avHskwotPwuimzRV7AbTPaC5sLdJwoYnOBaRE05aDn9BvvLWvD7Rvs4LIUTc0l9fyqnAlxw3IpIpOChRBmYxj38KFUb1YsFOvpzbTburdu6l7SMG1U4nJIekDj/wUejTDEtcq007XhDRPVVOwv+/p1UFe8kCnCp5nTX/aHLgvnQue4jXoM1ln6Pn2+h0JvgrhR4t7HbibEAPuooC3dGgvFdG6+Fd9jI20WuyENuHUxTdSEPJD3kJyupnBRex4xWk+WpDukmf7v09O2sjkMIHBr/1EOYGQh2PIuX30w/6mESNyfcbHjizs9S8QjL30gq2BT2+VQyO/1LfLxGrcqUf8OibYSLmvNA8B1aXB6TRrtkN07CKNvqkHyRcrRNURQXbp346RW+cyXQ7Yi1g2IGyM7mgFjY7jCE/97Gd9W/atkKYD1qPAgSufjRJIMm6dod/sZKqa25iNX8mOQIlgY+i9bv8C3ucKRn7Hm2opj3g+Yyl8qmCcH7r2kY8FCrIn/MKoNnrMNj7asjHBS76BqWFjOqO2vCnuaaq4okSzGGUGtUpz1WhHUQ5qwQKK4jHbeT8zL6iaefhCc0fknhXG40bKIOHqRxhTekc5YiSkFkBarzwJOOTD3HG4m4Z1KdqkYWhkqEDtW5ESJ6yvaui4Ld7xtbs4bdZ1gsrA3W7baQYWGZfz6gszESwogiEJj8ffGV9RxHIwACZMXbqhIrFlYGFL93eb9wt7rmMOprskJNnMHp/t/2v8q5iaLfAAb82x0+ytiJDyVBar6fKJe0tJHxzFOrA8imVV5/1P9khcP2a/8e7WfdX4KRAI/457EUjxfAaYp4KAfVM+rJw3vIhw3jsNBPfxwIUnLV0muy1N+K2b6L4FQuDukO7iyyhMehoHUOIpg5WP7BfUrHT/fRcu5OsiBaWz+TEcO7ocSVktVU09jFcJ7t6sxWcxw618z5hQf/qSjPNN1lPtXw3+mpChemk1wGTc5Xdv7/SL7VXxbAQMBu4OFH4PPx4iQ+JDy1XDYCViA28bVEX0zUkgiC9XUyd85FbuIk2PREcQNgxJ7N9511gdP5wmFrPDl7fOq74niQYA/7m4oL7NEUcpnOWzDQ1TW6BVHx/qHuAnRx3VyME0hHjo78HNlOH6N2Jmn10YOJOo4/svp1ah3T1O88btPUWZVKgXhReEEigmrOXqer63iF5zKtqibJaCF1qoUFySditHcaiW8uGNSW2Csv0kNAj4iPZBaS/Y7npZ/hEN5r7vQvzCVRK3Q/IV6eoVQNZNsOGavroLGsY3QjsS5axhTLcunaC5POAw+LfSZd+cOlQr2no2MHVK+NjlPsgsriJT1ZfoAikkeN28npDpo43050Lw/aXZTE1JoqBD8GbRXUcTaJKXuSZdn2LD8RGZNb0xkX0aFK4yHFh/vvZ4lOx3ACTjLBMjYkxu93g3Wh6NqcyK0raTBmuzn4nU4/eb+BSnjI5pexBw6eXd2CBRzjKCIimHraQ6NBsqxSQsMFaQPf+RxraH5/ksRAnPsXoC4rR9faTgrsxbbJvp46nAlA/KaQ4BfcCl3Rs9MPeQv2O8rYdonOMhPKypDjkbqgSnIaUwY8xqMLwS0fSHm1CjHUlUABx/N6ByjSnL+kILvaeCe9pPQvPbIhlvTq95Az2mVi8p289JW/RcXUshYslKmvIcenmWcEFY3uHfs0mr/Jw34INufmg2t50MYcW8NU0HA1/gLp8uUFzE1NrwRurmU0wg8G4r/otwkCo0bOSMRDWV4uYH6mAYaiGLJ9KUZC5m+u4a2VKR/FI9+F14xFvDtRHFIFE6/vf9Ccc6AZzzNc6i84CevJyWgCCkdu0rnxo4nvNxF7zF1zLD6ULar/0Jo4U3hmpH5/MrvmSyqTzaDmC9THTEnsGp7ylww58WfFV/USY04/xGY4mj/HQXIErTq69JsBbTWQkdNwCQ8EPxRUxWmCPzUGfBcgV67Dzkk/hqP/u2r+jM6CLgLn9Q8iCtSUH1VVojoZB8O6hRTaxkmuyHmX4EBDrowIPNcxudobCRUQfUUrcgTVeqHy83NG0jrur7p9xmOhHqR8K6BR/Qfp91LErf3pG76s7L2JlYhNMwTdcfQfrPkvRS0YsCmEKDyL9+f2XQTlxOV4UQhPqoU1ebom4rUtnjhjCXsmkNC6S+ifZ2CbeTf2jm/Qt0u08DGF3RlEKuUkodu/iBuMlqtBGX/YWMU+eoNjJ3h+HxykOIOYAjUuO8zdvM4uzxy+ib/ojL6qOUxzhRee7pWglUGYhyGsfGO/cKpXQlKFqkPyuP7R5phoejiDkx8uDeBkfphZ49oXdDz2x3nhL7qEaVhviQwp/aWYXpH/3hEjy7Ytkoka0yXGGQmI9mevTNV5/iNZwSlMhYdPvOqfNVldBrIJ/+4zDXrvImREKK15O8g6yeps4j7XdG3M8TBRvvfGGNwGI2S1HyVdwGi9aoQ3O5LePU+ahz9houOaWOEVA4Zi+PKISSVHTsjDrJJb+ZJ4B8uBZcC9CWj9HJbPoMSeCGeSqQ0pyP9AvQORFuvxdptrFpcrsSJEvl/MKoRzLH8/51nfs3rqInoJj1dZEL49Dmdn+rkVk+cyHSHNU81lBACzucLsUT+Y80ncLJ1Foe+/G4bMsfbbEKawI3jVkPiOyG+A3jUlPJFCLuzJRbZjqcIO6Y7JSuaSqFF1zEPKaWjFTm2zSZF9oSIqErIWdL3P9YuEN/by3a+qlgCur9Ioxed629igGI8gb9KIBIlnBNjTGcMr2TnOVHQoqYgCcMhLuZ55H1s2kKyKV3WWNFDvMwmHQUpBUK7EgfZ4ByTuD15XhokPI8hM9kQ6CIM4EO4XUdjekeymkGOM4SdAZ28ZgdGQLmQz+1Wk0xjLmA/aDuYxvTGnABgL3WkSXQZ+o3ivjSIfNblpiFlv+loCd3ZlAoC8JqCE6T3fDrws9YY5+slZgCS37XGfK2+ZmTCpK+ThSGwjL3L1EGU/36ziItgLe/Ffo9PMXftN+tr4wV2Ql0WjgwGBZtMhacLHS4JGdtPmfozmZr1+RJXxCkIdrdh2bUkqOAzv09i+lUlif39zfB5SY2V/EhpXU+lf7hC2/cJPmnrd3Ayz0qFbnQGRQXC1M/uvN7CUs+9p7jSaAi1mgIWCSeQot/U5RFO+7/doKPfDhfQ53nJvtNqldMyVhpplZeGTrY9l/Rhit0Ex9ofNdT238A2qro3xEmVRFxeWcHd8xMG3S9F5Gn/G8E0u1yYTNKNUwEnOdd1Ux1XHueRGfMJK3al/QzaauYj0DNVgF1cpLGG1DyNUfsmRKbRSkdwV0lOU786W2x3SgGGVyiwVJwouBLcO+atk1dKUZGkPZrTO/qb4BaUQ8Um1WpgW15+UZ5HulUdzk0UDsqEYha6KerDSxNNCYsWPoDUYG/8VzjFfDWYTGqcKnOdtxZZXawS0GnbE6TJtB9+XcXYtXJI2bHl/hSeMqOzrUHTmhlKKT8yv5TWyJpIhoPC2f60vz3spvokAB2NgSBw9bu9e80heMWaDmAwAyLvcCxyR7rs40ROqkAANLGdju2YlJ2DrjkpBk/PnH1XGBaETFPq/cOT/OH0tHnenLO2Zii+ylKZzjxESSMl80CRhTVpUQsFns60Xz076BKH7DvkZ1O9yPiHFl/l3RtqcswE7cvBzvGNAhI6vhsqLVL/Pb7h8PxWm/4IA3vNmjgwtePNlepOGni5cJqG7vf4iGzk6i1WUyfdGXovu5wJmf8hE2xJ3D5dA4whkO5MRjvdsB4QShkJgbqUKc4pRKgL37OZAsbYAu+O2tOdOXRoriqLthLGrE0nJkSAzi493janJEEyxrbUa2JdwE7NG6rQxyTvxtPB9N79At/eZCMbqUlI+wiYdTLLJucxFaVgWNE/xfGpw2tFQu1NhPu5e3leIyczjfBR1IJHw0W0fphnsEveZG/LIfcdsgMpyBdVkOWFSpmz/VBRPEhlU3WZHWfKoVNNfmsZ9JQdB10RiuxU21vpGBPSkKru9V5ltJiqNalSLj36e32vaeTFsmY/+JsbfUbBaWBdrKv/wEYPPJ+JcMXi9G7ZiLYrTXRXus6uslj5cEX+1qwrLbYVSfVtw759dEfVQ4WSQKA4Th5nWlXKHRkdXtXV519q9k0Mzz2mKBqsTT2JOQrHfzVej43eRGov4c0OksZ64WTiy4UXKbbRm06c0jU//IHFd72VfILvALig9ek3mrqhBIwyCIbYJ408aonXaVMpoh00skOSzNRtfnGRnJMJ39b8DKD9qEIwUDgpXkxvsneJoIezJxpbF1nyCSDSSU7BQMNaQZvYoJ11qS1HoeG4RqnhXkJqpfUnLHNHpdofAeVcemrbsTdzY9mUjUy3T34qtOIf/qg8Y/Xv0nEaNFZ+vb7G3oQXTFphG6ODNFSezqGdOyeDDiPtf+Qslkx6LI9ikf4hrZyzX5QCdqcf7wYpZnuN/+jB/3/EXVtxQMEHh8a0tLL8cyMuX2CS7yB4/xfsSxMh8j1H7abwkS0U24l4pg/RsXxPp9byE19L+IN7c6S5nR4VnYTpTA2/F3Fz4p/MiQYg0qwi/UK9BtdpPa0NU8MPltlQv7H8rdsH5parNfDVtGmR5RktosHFauFPTGgnTalIGj7MRVNsCrL4MvyG4hG3k3GkSYJj+ECvsB+paI86xlzRr/rhqRcQA3aw+cKJujzHYwC7uxvhs+LapqzzqTegyarkhD5V4DpTaWw9Hpi4X0mc2BX8CAUpXMLVbzoiqF/trj3M7lkpTtv7yXGSO7n91+fpU+QMVyaV3L61QeG7rW2Fe+G+CqSLDY0OB3FFeOnPJW1zQ95SvWqRM9FTpwLdITXEhhWpUHH3ZnmAa6fUocpV09/W0rH8/3u7Pjbwjh6dMBdLbMfDH8sUyRQv8Ya+6HsCw0gzTQiB1j/epLFVqdhQagbmPAxrt8+HXMjyO6CDk3N8NmxBXFd662zz6ZknZW3xUonok5T1KH2bhLF34Fweb2AE3cx7A4pQqI87KCfm9/l38HESbg1MNIsv2lBe3K1o1gAIn54J0ahc4mSmjSaw3RUWFbnJKHiqdsuX2sO35UzD+QazHZzK0s+MJJf5fEXe8Dgovk/caUKXauw1x5tPbms/Pyu07Ky9517uYIdoBt+MBTXTu38KyD+oO2/47INWnK9OJE0c9jOcIENrgzEsPAU5q2Ns0Pqnb48ZWOpfjVOxt5nx5ouRTXif68xHi49Zn466C3iazXnmh2uq2vsVM1UwkH3jY4JutyH19ySGd7Q/HR+p27i+jk86GjxDbp+1/tOR6TxITyp4xB/XZImPONNxveGJvXOzocgW1zzmQNUUchsX5PXleumvCdbcOlFYWABfzhAlelX5kuBArhqZ8FMTF6ZrA6wbVST5X55SLfZfBlXyWzaxZQZ21ju5rAPsNP0RI+d4SfHy2uUR19WgT9yYQLAoL3b5bgPmS2KIGJ9dgfTuLkZayb8x8M505o5Va+8iIq/MGK+9TMB4mrVIGq7RCPScXSz4CEX09X5ulTvzAbWwczGG4E5zAShtkd9ZZSI9iU69WIoGqqgOKpVIFYvAei+VK4Dbo0yZKErjhVWDsaGDuo4N6WUPmwmSEqSvE3EDNpBIOO9RhI0Rdpc9RXVF7OOUYo8luldTtIhhaEq34ke7t9IdXRT5ad9f2k5CQS2khPsfexTpp2iQQbIJNRzrTRWtcbzGmbwaG/Z6lQga1/2br07grCkImKxTA6DSxHeBkHNzvhQ0bYLtylB6LKdbAPy/vazWBhNiIK+t+KV1Q/OyVRtbWuKePQj3MWcRn+AVq/KedPV2IWZgHuFkEg4KchhjkSM386ov5TIs1Ey1InfegRzlLRjt1Nml4bdPmo6LCqoeXEHuFyMQkC9XhPoR5LbK/Vme9o4tSnmwkwXvYvJx56k0o8gziBFSvjVPEIUlAS1rVv9j2gqu6GCRDehhAo/qsVBiAXVAPwGIDyiPZtYd25G9ItX0/Mgao0ncg7/4FVxCnkf3SO5XgX47L5skoeDty3ABHTmp8eZWjlty1YdzwxPPeHrl2CZ/sKSY5d75dpqW6DTCRVMDN5jQosBNZ0POQENLEzrrMbIhaIgeJIxSWG5M8yRKueG//btoTbXQKklTSV0CKhcA9/VBocJe3jmKIbXe3/6S0rB94SUYavRYR4zDiV0ko1Y37kPn3KcniDuzqvGljXxeQNV8BvKq8ppqqpt3JVJ7HPGuD5s/F7L2rAAHWBe5EZu0Dq7FBw2260NNvfRien8KP4px5b8H3CKFZJXSAVQMzxhCovXce3RUqsWbhGi2ZUqirBr67VTw3s/c3k/gLbFC7/EHmQgpVcdNGKrN/RYBAY/ERIkBwzAhItFK+pOg/Ix1WQCrw0aMYnLQoOXYfC/B2lgF362tJH50dk5j5HfWXZ+Uf7Ur/k/tGa67Zdsz4yboXhTrFuHYZenKGBPMMGw0HWLZcZFhlatWmqDOCM8II0+pf33Er0eA+K3d3Ysom5hmjoC/GxcT1yVxR0KpuP3FBaUfnrZyiGWoRtfrZ9kC5PCHYNqGAvI/pMQEsFASxy25heH1oHyPRaL4ibpSFzxdeAGhusxG9oZOV7Uu6rQPlBcRVdeSc6vAs0zIT7/+Qx0JbqVTYgdClQ0zcCj5Sl4F4nDF+UpR/Fliyr2vKk0Ftoq0H2erIQIx4IaANHcMG/ZE/USn1Y+yFY28SozjE/ojessEmudaDwppQZgd8UIlNJSBTcTIGng0JWhTgagRknLu+/uixTF1fBzXipq8+uMvJvB5XED1GIf8CEd/MBS8uJx2tW6QN8eq+zrfeqbzYw1lN1RydHxrNdcKQCaYPmlvEMwvP8Gs9snF69cTl74tO66K1z8FLJvwXQDdFDeK2dXJBSCmSyC7tkUTXY+Q78WUGtUJoeU8B2bMHSsOG3Ky6hpaa2nfwPYTMVOFFMiTIv5e8wciGrxzAaEVy8roLW35w2GHHfndTbtxBZVMI7Bj4h+jSV95j72p1sH6CjzWzHsOG4A7vBoehK1H8EpGclGi2W54k6hNeM/RjMvItnz9VKfIQpdS1eN0IbWQLZ3Vlhh1OxWMvjwEm5XdIv8TEQZ7L69eZk2u72dj8hZfK6azcWNXK5SGxck2J3/YxPvLnXhbe16XQQGRXgHI8V51El/sTzvWPMc7+QVZjAsi//xosWxdNS/XuuYRhFDa0lSJqE8tPEjIOYutvkwAV2mRaFOYMfhsspskBHkbhGmh4/44HwAGEhu/twir4ljNg+AVXZP2xkwdaIrVybGMM582iQWf5dSCTgVNQ4Nxsha/EFviY3K7lx5qsH4CLN6Y1aXUQHYbZqn66tTOmHwMf1K9GuVZ1RXWWaQAxiF2Q2Yw3I6SlJboITgM32meDLzddzh7gd6phrAH1moX52iVQhun2tVwU1C1gG/9hol/hh0OQ6n4RzyyeL5HfaUFThU0ajS2wvFS3prF5h2p8nmiEQKpvAtJ9q1uBqUo7IZm7/EO+gNtpb3RHiLrFEDh97TatSoBiC79TQbAsQkddXrmlxgXC9bsK9f+ciAsAKiStkJq3yShvLl213A8UDCwRKAGd+NE8Er7s9BRnHSJAEJ9XLi+61GgF4k1/2n/OqKGumaXl7BS2oeHcF6XTjIUkf8cZjcgp++RjqOWkXPMkitk2+XFz+QZBTwUPSYr/YQD39DcIcXXoGxKDvzy0Jc96MksMQyrGyKEgn9oml36u0AYS6pbalQuRAC5Z14Rk9PwJyso6iFdwSZt7pPAko4bjtP/z58i/ftdt1JBbRu8p0YUn+OT3MFY6LoRwvU69vWNih43xDcwTBEPHgkqbbjEQJGyHVr9F9R1jeVnHe4imbdfitFBtCESTWNiP56ThV8f/7A493VbxYyd7tZB1ExC4ZIW7h/7atM2F5B392/b2PD2/R6ATSapN85/VTid3cK+4/1eWzPft3KNwgKlvoT4kAnS1vk8U2d8TjClVErNlArHSvsftZJB8FCftlbgey0CDXMTe3QWOIh/7vW6qcpgeYI4/g+03AkpvYOAdORWDSPm+fIqTicKJzJWTFVQ23Y3AEGX9en+TSLGnB5DWfjn1YRiEuz04+YgObRQmbdZbaxMuFysOHZTq2qY3t2h5gWdvusL2oANtMh90nDD7unxP+L3YQnW3waEeYlynHmgIb7TGUauz3KqvlFlJC8/sLjXqmcAO8mc4eoL1wMabryx7wLcRKEcaf6xBjaU0KtyYaDH/2bp9mVCJVoZcOOjAF14QhpXo3Xs34wjg9dNfgKh+E38p5FycRvpSqwJvDlp3aM8DzLAi9RoGzfK55bwJCgZbI371Y2ZrwQyk0ion3WOQpumWW7FzFhBtG0BWCBX9gdaySC3ohTwX5LLOfAXJRqi83JJCy9cpxPkgrAh7VVlGRZ8FWHQzkQXXVnPL2V41iOzMjcHhcY05Lvr5FRha5cvPGNrgSj21g6m70UydVBS/FxTbocX27IBfvUfFy0613oXZBcO/u6XInX0+09MchJeTDPsrCsSE8wQSWqwYjHEBjhwSxXk+47Oh7xOUOwHTLoXjNIikE7oeN5odHFb6L4KHdDWTzCljsQKUO/3IDGdFV4c9H+YVH9foJ8EhXYzxUAYcqTkkeXr+yQc8Ib1zRgXzpjaR/lvWwr9c0iyv6DtmptvKPo1oALJq5crmIYnPS1lt85W1X7vMtyIa77PB+PdcZCoGxsFBmX0SmK10CBBJ43G4+QSOLuiocn0nfuvM0apkLoVNiw35vhMHnLpAkj53hbOz57VvSatC+rOtZ17Aqq2oFTpvMQF/ofcTR/frMx0jgBF0measiEnee3XyTIhIiYHnrDfC2Cm6XccMNJsRS2CwBSdTwac31Gh7qlOznUeJYf1rWZslu3Nzrq6mEk17BoX9zKE3YC6bYrUjW6A2bEm8/KIAy2qeCfbJQ8ZFmnEa2GF26IKQTdab0a9vdcibieiy4EsWz2h53UjItWe8H+aG/ZAsmk+i8A3mXt5gq40/W1ksD1f3MRm5bS2e9FugbJTWIKfWQr7a14Rumi6qoAhLa6JshsskHm2xl09MJRndj61ro4O4c7SRh4HYgsbZrdvRVwnGRfAfaNeXIYCV9P/zoxlmLgEeqrCknfXGLXJOLexMlz8945NYa9GuyjRR0BM+EPEZFPjw10/Px6sQfX5nYqV8Z9GlbyIjq8rcavHxjQeIRUF44vqnIRYgtZs526XORP7I7uTLADKYO/shY+Zc6tMBWv1hX5FPENO47yxGg4QQqx/NlEnsovxWJhu9T9M3xhphATe4qZdEV1DXvIbMSziofi0v6ynave5kmZ/3pbxZr3YpewocpseAAcoAfACwl9hAtRjB1cN3/moQIBgi10Fm00ACMWP3pYWoWKho+YbNSsxXYQJuZn46y3DzwWrFRAkAvmAvt8HZmKIJu9K99e1VyDZBsga4SyzUZV9eNk+i3VLwiVmIrpUjo8NFByxRdS5dSsxJgfqvviVJfsFozu9nUjuWqxJ7Niptswo7MKrw0OWmIatNd9Feg8IskRjNto2Yq2URlixVG2P6fyeOyCBjLr4qFdESgbVzV9CKjAAx2+SRMat/p+EulSAu7tJ7auqu4/S80hqDlGaHraeGDSty/al0CrOhaTnVClSowAXroSwYbQC5NTh/MGsr6V71H8hOrwlIFrXGaN5Y0AQ9LkbSHhQHR4ZJJ9F46iW4xMrUNzCGdYd7R8p8TrhHk/JYxKz7dbj91BCpdwc1EXIE8LRiK/rHsiMt7yuI2qqdEgh7EzLpfvbJZtayO8l0wVviQVdZ+lchaMfesC4GEbBr4tkwDPrKblo6NgQoy5ja2tR+huI/NdE4pzIoJ8MxdLsZ8IQ9JSbNd7VadDx5qhdznwyTHIwIh3EjpQKfX/7gRAZif5/3dVfg8RX4JIVjOYrz8tSEMEHPgl/4Mqjy0iQBvoTDySqn2j9xQw2xTDdmNm+ASg3lIp7sLDbvyo9cOWvrOtIIwwBl2W2ffteQ0IfxQKjVVJlJipGND22+iAGAv8dbCHW5TUWbpXekj2+CmYLgTXVaZb27kOLZL568FPdwjm8WUFsCsWfvKMi+98IlPyxuHV6vkw3YUqwqyGNE/ZGX/ThLqMg0SSOWDorbe3zW7WKsuud1eYyX9zFNz1wvdbdSkNRM+HL5JGvPTE2uHYgvrnvDtYwOJ6GRWl5MvwFjAc4DmIA+Wn6fTHhH0eyODnKuWnZDTi8Gaj2AXQETo4YNIuGV62j0+++QnpGK3nF/sHJ1Wk8FPuqr+8L3Imr30CiLuxl6ha9XPMFlbe7+pPP6Pz3G3ScDIhr44l4K4TBEj/KIfaOa/VPw1JC7IgrI4/ts+OzTIs1Ki8Hhyg1H80PBVM3bpUtpvtNYZFxwqp7c7sdmCvNWX4XDUm2pjOVd2GmuYTiupkefqKq5+pCDYpRY3xL18PydQJmkpYUh4WUj8xwKhoGBB9Kh+Nq7n4rBYYI+mZ+TXHRgX/zq7kQWEKtzp6n+ZRz6Z0eGJiMiF42uwiACMOLetlNx88ZXoevDZJDHmff8o1ClgbheW1QSHT1HIXVrZq+5HOyjYP1IzCkaTfJsqMeLHaIIH0dYySrJ36kDPckKFGlD2GxQImulotGeoi7ZPO96jwyEqTiyZTYURzXKLVHYb92M4HdvHW71cPWKeut/nzD4GEpiY3eSlGqpAOplWXwY/wdUjX7QGGP0pCW7ZqFnev/V4jg74dFo3nFZftaQcUPAHNji3ZUWA89RIfUFSlroFyS+uGaHU3CZlHvyEgb4KRiEeWzlKIhRu0o07GLRrq+zTZE29roSiqILQ+4OsuTldiq4GxGux36Lu8s7nsyAwzRfSj2wcMopE54Go0NOQkWNU4JSjhRKaLzqw+vaHGFb4ThbTui1ofSbDa0ce4lGh7CNGB1L/rdhqqScO3IMI8SWuTN5yNOrSNxIAQQgU3ScEuBq0m4D2onO+iz17juN6tORZg1amTOU/268G8lSvVkSHHwVv9oYAhHc5T3gslmYs2vDqKY9SMm+6gUk4yINwwjkakOLvp7r/NBAOwWB01eT5veIjT87chDFvbz3pQjo7FxtvjDP5S7Rsip/s2jYrvVsLFaQXl/XczKjpRM6aqebNESgCuUy85pZ+Tu1P7+jPuAoJClN2vOlYb3fxfG13XEng+v/yn9WLCpGyEtryF324yOoOeMKPXgpUpjL61mTtrC52uSL51I8rZjFrYQSLDpNYxKeCmCef+enolNuRQaZYzH+V8Cht6u1VzxxrLSQqkuekQfa3nYUqDp3Ig5ERglfrsYiRc8ew7fzP6hhjLw8JDmLieRC1vPrH7xdi56/Q0uk/D5U9BR7XHEgG0+I8065/rCbyLlQZ4RiFpXikxlRGouNo5abaQEjCD4Xl/7+MHAE/QNnpoOMV6jkc3SXipb5Yv9Sp8mVJJS/5G5OqUH7UyEcEiiT32xu5Pxa46iJSBHnjNriv3Vv1ot6dkt0YBC7nwgxR+0MG1IFOR5VNB8Ef7VmN2dEnU5+SDa5fheMbOBZvQxrR8CMNuh/IpXh1oCxL0GDthlib30YIjdf4AnR0a8OHtwlMfpNyiCs67CqmUy/oMbo56tbUGfIf3RL1KxPKNJEb0BDLSZIk6nFEPZimCBgLW1naKiHcvTp6mtzU131EfeqpGhvLDM1MY2uwOFFAZah574JU8d3OYJ4Eu2ddyxOWRNW0N3BP+q5N0Kb+rbHKvgdUD/IS94ovrBVSPwU2CedB8Qrkkfc/KW0I5NSJvfVCyeFnT3a9zM6l3ED0pjAqwyz0PF+cG+KlE7PicEGMIrnPqrIe4B/AJvUR4MVomLlkVWgr3RFrsvqsmEmhhafSIfujTB9vJpttBcvEAMSN1C3VGAg6OqZ3kevOtKwsXS0SB7JYq4usYJ6IjWAO0X4vAobqU6+LpbRLOapN+52aXNh5hXaUR8YSgUAAAKm5vikS1Zt1CYPyC2VsjcwFJUCZzmMV53N+B1Qyy5SHO6fXaro+iex8vk17MyF12FODgUMqfNMrk2YENymMxFsWS0Z1KbYJnSi6UkPx7B8gamwXWUO+++8H1YfRgWqhYj3z4jSxlP0VhVwao56dxI6UyLhDb1DYDOVY1Ij1QXtVhQ3MW4G37El8y4HLJXSJlj78C+Swdu7i/3bx7yWdBkeUbbcsrGmT+wQuxIK4BxxrSYc7rbPzgCANoWSdxyIeGcyndFFW8fRo1Ju16n5GiVY7ZBrJ4Rrhlb78jgVlzznQ+21z7MnZvinKjTuJoAgExneuToXZgzzOmCuWsJegKZ3OnujgupavHs0+abZ22T4S7mhI5bbB4YbmOfbW2xQmkLI3uQfNOpgmgVA884jBVtMf2ocB7wPh8S6vAk43H0GpBpYjdYFPDYioX8EpgtZPPCRqMQq6dxUIXTlwAJEuhPL8e/9iIA1lnSqgh9vgusl1NtFleK1oaMquUsKzBqVKoPP4AnMS0e1J4JVJDiAeFGfrrjHXtACmBR0bX22fbkiNNsZ/P8yZGQ0jOiZvMoKM59SOvXUxQO6Jjkj7+uolawSFjlfZGjKAQm7jNx4tIa2fwpgJ9YqW6btD4581v34xT6mnq8jhwiBDV0o5+QoqEiL8yUCQucKTPkEpNZ4pYYT5YEmvu9QMBiOTsQbRX94d9amWhqAjApXLJUXdJe+ezb6gqdczhBBg8ziOQK+PVpQmY/7fv0GrBfyTC/ODshiQa4aeBQcuEa1xrCZJt0m46oTRYFX4nMYg+rYVWbBbA9hlc+uhCqIaSNsdUUpvZ5s2Ke415gk0gZy6ycUdMWazVwq1lG9eEo2gVl7NCUgv5xGg7LvwYVEKLFFTAWQ+7lRZYFTvbAnVv+SUJMug0TspprzrKxeTP9CcA+TnrKl2QGSulbhJMP2dmuJQmU4k8WRCTd0Es/Snh43SfxBlYvLd+LPsiJWcpHxQD+WG64cCf1Y5967/NET3reM2GojWZDuGr43Z8Eks78e1cOgf6jeoBol58Z6YREhuic2gRmYAJC5whn7AFdcBN3kR6eijKBGl1DbWbeySs9siOWco29+3oEyPMF9km84N4trzMT3kaVospSuY1x27s+jQbyJkI12c96WSyaWFZbATy6TkeLn3CQD8qEyEqcJiRiNyrHF0dZq9W3qZI+OG0hZIMngnoeJbc4RjMqGoG50st2w0ykiONT+EG4BFzuoPGyVqzSZ/Y9OXq7IYNojkv8iCWqcpTgBxq8B2koemR+skdBK4MQ4ndAnGB5VOrtRMgnzo5wITcOC2Fe25Ht1VRqYMruu/BLILfeL7syUHmQASBQHU3XMu5qfHWlkXBxv/bMfP8dPNhN0IgT8Jnop7gb8cFe+LpuLw+z+TLCHV5ObgQHL3KJSxrCFSe3uoENJRhin9P7LGGJV5DHLLH+biOfN7khV4e6EHbe8dhuzI7nKDWATzJlhPub4WazXxF3rPNDjsp2Zf/yQbevFB6tCKvPHrKc2F93Xz85a5ls7MeqC54IAxuVc2OFbNFOdE8wBDQyuorw6x87nlgNF86UG2Qv65PzvPjrGhtjJS/azW12lZZ1E0cYqy5mxz1A4YsHAnzucXz3t2Tle6ldH2nien/Ouq9nSCQl99KLpCHWfd5OgimsrqvutuzlJ1AEAYggZ1uVk4GVxsMVXyHc+ee7e6hruW4vcpbNw+gUw0sqkxBzHFvEh3XJU7fR1BDms/qftkzyff4Gi9yBNcHQud2oItAYW4YSHRoaMRIdPz7zvvM3F5dI8FPE1RKTk3P0HZO2zUEb4FrHw0xZlVZM0ZR/Wi483zJjV5QdDYuXh5xZNwBvstggiyIQaq0tRUmLIRNMER7y92SKqO0TVlooZmHzBgpFK9oeSd/Rf5+Dwd8pBWmouGxfEIIh8aUy1qSS3EMpna78to5bqUGv9b9qcgtHZ5y5q5o7UKqESFBEYJ/BTrnrmv7yKAUYAA1VNK9jIPTEAxyLubvp7gQWd9YVATofWPYaYiiBU1+3WKSWCssjYU05AX3BRMxY5K00AorWBg0lNws5Oixj3J0ePkD5nFadVYMUVKzrVLk0hS7B0rKWN1K59jhhFFSqQBqHkd2JTXGF6K4ttlrQcnZWHfTyveKwvIAbjSkpAcmanSiql3S0tuMSLbinDHpWhD8ge7zlmN94lgHICk5DMfvzjVoZNiCYY9G/2rTq5ykWc2Gal/EmCb9aebQqVe/42CwTLv5eQfB5Jp2ZxuonS/LIceFic1xR0+NADJHZc+aVGXa15W5AxFuz+zuS2C9mYE8yVIj4de7jsUMalHM+hAuYYnFPfi308JuK5S0FZ+UAr6NZez+b53Px3Sth/ep7wdCBUJfrng1OR2AsSK4LPL3DPi4Q1uznS5osGWFw6hpNnw7Ky2ytcnlFCwAnGZx+Gc6wL0pkSaMOmt2qm2IGS0tW3xpaO41PaBkeWp60Evmi3t/7WTAQQeIKH5I3X60dLtgOrHLUAMVXbgG/3XZ6cV++JvWU9nJPQeFfErJjDI/7ux4XgNXC+QQ2BVy7EhRd9Utb0Despi6snw/W3yxvqKbncYZRRYhx9cyEm7SXYH0iufZ/QCOktuKzsDe+8JnbM3+2CnkxhJLCoJMcZXqgSl50eNy5RqGyMHn2Or5zGiOhVkftpCzT8WYwLEjvZEdAxgtM3x6xFIzTXlG962oSai7iN1q0fLQyhJHn0YftWymPdgo6iLj9/OAzSlcRxONeELN5t4QQqX4WNXLNfyYN5Wy2KYB2RRP2bmmr1jFEJZFUjtQV9I/tgr36cyGnTVLbforU/f7fHqEdrwuu/UbuvSWIdtPk1ArM/Q0eyas0wUjfpHYxWfNK9iBxoWY/gujL9Oq0MGAds4d3STfM2FpoWpnb6AeHIVXHu5DzsqTziWKY23Q6kCpNvnWja6p3Y8pD3TWsXYoOLTUhPFHHgeD32coJd4M62NUASDtpgBy5YLwwZ1o4w4ifdFHpvRTxNRZhl/qDVe5Ge2lT0Sf1gtYmOsCZgcxhWhwemar1IaFngFYY64MB07+L5njZaUJBt71AkQvTeK4iQ7Po0pCTuMd8VdCT8DZhOKrlulMTfMc7CQuuzOTo76hLEYl1PiWP/QUCXlNsQBKaePZDCPo7qKQnQnlYr2o42QcMEbNcGLHrVe5L33oiJ5J8K2WexmwoRs9U87Wu+jzEqVjXER31sy9sXKVw6kInqHSGhROav873JU4VjVTE9esFFMqPxgoRCGCuJriKjODIE+gtTetFsXMz5A3aqcmfL924Uni7Eot0N1wciCyRV8ZVj45eyQSd37EJAJnRUL33xtVb8XSFu5mDSPvnefW6IXcKrQhomcqkwBtncUYzztLdwKQGwxGT3sYbf1RSp7RRu1MzHraUO/JAB4I4OJz+AbRy6bVOmU8GCjDKsTG2UR8MQM/2nvIU8vgj7ju9PenpSFMRMk63FZTMj6bR+f1c4wIM6Hp0ubHrVi2gh7i+czFOJEsIIhGr3dCGS3bNg+CTJvLU/F0QXdmX4c0UssVhyeLgCMB2eBxiuk07AIE0geCM/a0u8OjRE+ztr7B3vHTK5+g8nM96JDXU/5DPZ21T4+u+Bw1+pJT6mYiTIiRrNlXJnSxfkjLTLNmTPzqEXO8vunV/BD2xzuu2JZTBFmp6vK4Ktajo9nYzdGkuJAS3HLz7XxwWeL+H5DDjjpytmrhaThd1/6pD39R3cA/3c2Lg/AdT7NHjwCnG6BDjVWoHLxqC7AknVE16kYNE4AxPAN7wfdTCyj3kTJrx7DOnN7GX6XRgRjqd3dQaoQ9GDEnddM4hJe8cF//0Rx6ZNaYdw/okyIS4Bjhi6uj+9fzlcxm+3m4MIfj52XY+h/Gwa1zNPn8DdTxLwd9XtLBFgmnKbq+jCBlxWieEDr3HoKxyhnfYBV9gVgkechw+G77vMitZUI9QWhvUHgZPNoMgzgoRfXBkvlbfgtk4ceP0LgjOUPzycWcMA115dEDDr3tFLz6YIGb16IMTR7qkBAbGVACLDuhlzM/sMqx/pma55WHKS5O0AgrB+kH2STLCb5U5E7JwtkfwC3H2EtOx8vQQNbzY+nO+DxZdltth7gg6OWodjiVouNTb33fCYjvY/NIG0hRCsfTkh9NF7JJwJ3R/pDkksXgBInuPGcXpdlAliMvtrixVAYbaGPwSKuc4Q9cTgafUFnqDuCtzxB2SxHTy1Nv7xWdmV56x3JLkk7y8DSYKJ8pmBXI0L4NIOZbeErBExXUzErnq0dD2qBmmVQMBeLS5pzXIGLrD/tIlt9bji0pR+cxHCY3EfAaQt4csLkyvjKXKXzxz6Y0nbkNfcF8WJLil06e/pToFjW6VUTp2k/wXGdGl7BOac5Zs/hHJFWTguSH/a9futJp+7iGV/v2sCJk19ZcV+8lx4NhkIylHq/NasoYWzlNyhkZY2JllbGtb4YkRktiKIAPAIF+64Ll+p038w4AoEPM6Ey+GukKlqtGn7hr1csZahWzjK9maf6Gd6Iox9NRuNALNeO5yoA+nWFFjdicV25y0xtcogufMLx35zqkcBn29Kkay8aEJ1Ay6qz5t999z0IwDIJBndp8C7ecKM0C+wqcTCSTpKixt929LjffyEWpJ7VnY9lblTdGXj7clWbW98zj7Lth5GW/OOBEYh/eQ0mT5xCCBFOaMhpzg5qnDgfR4Z5iLui2XC0jupWiumK8wZiZqM3QZwOEkkFKCtiIcUFRPtZDCBwS9N/RqsamRjYxl8Tnk1du1XontaaUS9csQ+YLVIMMjGYAllzYLdSnUajU0ob/MxoKHVjBiWYlX/AAHnZNMN6YhRbqOb7VFbT0nqPxNZkK5lr4SzcdB8O0h4FggCG6TTXBIsW38MkkljEuzrx3jEQeK/nkCSxVvLEQpRlg3Qt9dnB8t7zS0+BqOuHSo7fmUVzkc680pwKGRZM1a5jMp25cLqrht8VeBnG6NsSNV9Y0pd8gsoYMrqU0Lh6jaaeBjjuTYDSMm6Tj2+nvXCF1B8KzDeZXJVv3yBgAcOVdA/QiOEVO3w2uYjV/wutJ6YU0xUZVwIe00jyOWTetO/CkSI9H+aBcUUpOstnZL5eVRUUN30TmsX918YVydOmAvCF+MPbTGzUa64fmRdOkSm0Ikhq/OjYLnLviLuKrQIfeRjPO3ycfnfI5Sp+gFmfcca2ztSRr4xkEXv3KFq7TXQNBPlq2oRmUUT1hQWv6NzI5EIjUrDvS2ckC5Tm8eZb9xtYD0ccCUALyAha9iwQiTf6WrC9oFxQqGEVs2HfDGgAc8veqwaw1/L+F0C0aK/WAZXIAfhdmO3Sxi9S5yWZjgerVniev9BxNDDNtEZ6d4dWRbZ33sFk/AkHwGJ41aVIHYFphd0PPMAHd/A5GmfdGZ/HJbDzEp3yEHq3FERGlmUIAFSEmCtsXagJPSuymsiWIuD/eEfo9uX6sfldiGgxSo2Zx4cYjOfw8sfmgBT2etM1IDwKYHDxF3ZMutpL0b3nWvnuDh//O1/2K/z6pNOIBZF8h7ZdFVogs5g/oMIqeZr0tOGSqCwaDeRyZVcXS3qs0a2ZpzLbjANETZ6rq9RpJtC/bT4dIU8A0yC1ZwXiP8bLIV+WznF8gegiqtVIeUbeE+0PwvnyM+XTYrwnw7v/b0DDWs55zA5c5yMpPq3XcJ9ky100ei7mpbbvYhGLb57aVrqMb7dzVdyPBMZhiqZ48+xgBjIVh3WprAvmouv6y2R7D/OW7SKCrk53UbJOVrf7YQZ5Q4oS28k5DLyJgj/GacbEhKKx7Qlsj+PuWW8AGsNhjkOwwt4c/v3fl9/2BULumMDRPxhucEpAPCilTmDtFh8pxjVakkJ9v1E2PY6IWP1LoIWbFpaV80B9SIXuAn8jvVDrJShxrN7wFnZIK+Dtq2UM/s0ob8p/PvyXbGfwDMZQsX+H5/yAqtC+EddQsactdMdZrG4W9Mf/m8/qowdJXttrmiip+n2gucrAGMqkimOWFvXSgyWlu3vnRoBmBClThm4z27fOYRRPfZ2MlIkau7i8gl0qdLXn+dP52wkp5Vq6mP4bTJLHWxImAbqK1JrFu6PcjW0biZn8pz1teerJ4h/2WkbQLpoi15mBRIDbNruXV5JkpqUaeluzS9CKWFx2YKe5jQgw2YgWKE3O/BSK0k69yEjo3iCo1N7Sa0LLCU8ZdcTW4UhT5PSQKNWcpgc5xps2rCQZ3hyBuJhpo09k1zQ/YLR/4585q+L1INDXsXSdw+L7b1mz4hZ74fEgo3fXhaAtG4VTBA5mrQJpFflP9iTFYxlS+nxBeSdt+T9icPJCtujzycei/VcgX1x+s+GGsF8yJameUH6aZ1E9g2XCqYQyg4qqAYPnIFzkttEsxafkPkBP9i8kVXlFdjAr+EQ3oNO57nFlQGjjEhcSzuv4qRw6SLTRVjERn+hXZ6ep9RPnfpH3H9eB1cu/6MvXZ575l9J7S5qpMeVTsHpv+xQiiBqIcu8AhfIcycqOPCxSQK7xFTMTZ4JxbLdQDP4grAWRSP/EH56rLiFmtQa2FeyGR4ECcraMhVbYcIDIKmNxcytvbnfVjRtIhv3ycr4dLy4+tj/gIdmXId/s+neLL+036QFL5vFt7jfevdG6FQcMS3AiMRkEwuwQ89dDwjpulS9YNsrkdGTV3zgs/8azKI2OhT/as8zGXEsdmPuovCs/euVr6k4zouIOipelguFp89e+2BSpNhH5/86D3YgM39LE03nVOrtcFVVHo7ZVG+hAv+TGD5IoI1Y+3stxl2Jv2tjS85Gm5vAYtjTVYnEDWQ1Qkb2o97P/iEPCVKABNkuV5hjIehUufQVvvP/W4Sxq5FmnT/jQAQsaa4wJJ2uFfRAheuAQkddigLd+0jD35dFLqg/hKabBYEDvgi/M3VFt9f+yzplkxUdnE7xOTSuUvtaUo65srAIt2WESIa0zizcfrscHOfMQjzbm3Sz7NOREGhSTVKJCFR38+oZqVwAROUS862YgeeS//Yr9u1oqKY+Ry0uTKD28tnTyHhLhkFHLPB5VI/4DkMknOmMQOdDtN9PPMqmNWLEhqnJw3SPcqtMIpVRiWS9SWnQv6WlKryqbQNe0qey6iRhi34nN5QLd1a0OtsR4MdAqghpBPJADQy31hJbJrtfENhGi1b3YE5K5UTm7OdKkNYnRTR6AIKhKq99UICavaT2k1MHW4C9xuRJ+yGQc/e/jQUmfQ6HQXg7/m5YYPS5aj9P1EtrUItjMUFBuCp2HBO7o9e285iKD4nIAOJyz3lMmGAPIFkI8zN2z8z4BkhgLaIK+09ApmRvk7oxQlMtHCpneMX1SPQml185pBzPs/1VaBlyHKFhGuDkMS4LWfd4SugWBajnKCpL90MkjBgHzEiCOzpxnetUT4milCJuCntVcpPtKcn0/UWpBCjJxkgq8j6fesGIldx195fxIvqCliCZJ6vyUVSmcYJh3rq+RjFhyGnzQRB6wIHQ9zbtU66M7pMlHjIkfFTDhoBh2TG0Ulhn1TcUdAO2qKOW2yBIY0NQFqq994fPsy2jh28/lyUmpnf1W33PvNkBcbu55A69dDnjssktOYQWVEIgZEckn80QQhCVxqhcmP4uYkW6WCRYw0qVeP0sVukHm3irGQYWeknoYh2yqvmWhhpRFNP+XGYOHGuJXcf/vtazXnPEtv8FlCEc5P+nraF1I0WhIToOsnJRSkhXgk+iiyZGJYL5BjIXzRKOvOfkXeYuZ1PDDDTdkQ9MqMYDtQEsDTf5jiXDdbs3OauD4RIXYXdNksXfA+eehoz5oLYRLQylx2Z6XqYk89G/Y9dxZarP0mdmGIsZnFxrdJiNs/tCH6/wPcdj3p3ieQK0zMbcXw2SaDmda1hJnwpy7EgM6teiOsaQepB2qI/rk/KyXND9f2ZEGvr7EyMPeMXm6Tc3FbyFdj/f/IsH+/GBUsTahE3igUBAlRtVfTqmA2qPgRLNtpdsqz477L7gnXGa1AvmKvh9xhiFzk8qHSBfpA18rioUAhRadkwNYqd/SrHrvLvuyA11uraKx8Edq56QeGCZJa3mz/h+6UhOImpAQpW8GASVEiONa+uaciTRowP7hmjyNCjHa3xSV+qSduXFuX5ZKdD3WbomRG/rDb4CfFk11PGWluLdJc29AJeRL+lPg7/VvMNJgsjslv4xtA+XHwWLIblsH70LOO/YU0FqaVtdcwi3jsLPhFmFjYFsL1+EpSN5fc2HM/DC2L8yHCGQecf5jDblAJ5GkfCQf40Aomh5eRN5TtDOYmBwLghmdwLGt2ud80hCdHkd3zlPR//xjamplHOtO9Ni9u2PqmFwKpiuG1fVZl+oRHl3UHc2Ct0OyK90yHjNdD0HM+/U96MbwXomYvbEJKyHaaVBMGp/9RJ+8Ie3debo5HBDaUW/7nYGZSg/Gi/Kbn3y4X2gKmoGpAD6BzUWDZiuO49W4DUu4bChjvopcXrCUcmdlULOXnRsoHlugVIVv1+/jrp3iKk+RwF91XoLwrWk6R9liMPqn/luNS6OPNXRrXri3lh4otsib/tDfew9OZMioK+8wZH2UpHhEDvEOOw4EMU6i/HcmNmAAzMaLnaKwYCDaoyIjpHaGehQICtnC4u8le7Xv623xN7WQVspkr64VSgwflceEBQ4fa1/HnDuIBIo1elGgPjygUj0Ygf0/Um/SKekIzzpIof4Jw3bLK8KXSanVMFm8/ylQm2YEiBsC4hHOv4X/O9/PPdFF1yRCWwfzRut/z26L1LkqDNGBDfRg2ZYigoxo1LKoOkSbBYtqYaw+4EXEHj7EGonQCxmldxfShL4yFKsPmYhwB29aJfiIm9Epa3dj9qpxnNer3ZE5BkQwGdW9O/ZAcP+zpMly1bKI+fb1LxNrnC+8nF1Yyy6JzUHIVT3xEHEQdh8ND+iI9GmQCowJqSknRR/04xyyDs5nsHN74IjFhXMNu1Da5Hc80Frc8oDRtyxwOPmKOgmb2oL2Tq0l0FO1kpaxEvq3DQHHwQi3ZJlWxMCoGc8ATT74JZ/E4SrYVdvlD/Q+7X6GubZANub2s/VAlGYxjkMtntHHUpXX9C7qrlUNh0QKQsNLvSq8wREiVHeneUEdMvXFk+toxlky+x/zQi0HxR5bZvhsgCqAR2og4vxgHRuS10pUgbKcmTz67l4qGQMCvsrFfTMNF8qAFPnjI3In/mihigEizTJOzTB/6FNontIVixLE3Kex01U9sH5mAsPrUc429qAkanTD6ZHcJfHngT5ir5EBBOzJ/WyqhkPkwZaH2nEeqegeNSwnfCGChYZDE8vEBGSx16o5YVy32PivwqmHlQIiQCu6jABPzFkvIdqWSSRCvXFtigNiQ57EreSsJfRvAl78VuddxZwAEjgVwIW5xB/POo0Q0rFgvmGGYc05JXB24MOLqzLdkwK8yrX8yevYzjYM7OffanXp5d2C89WMjCXiiPZTakyrn6ikMofitdPqxpRBKC+2ocYXX85qBS0wRe+rANjXaSBs4r0HEQf811OIb2rgtPctFdieA/hgDdrE6tgv7bq6H0sMAYG+8z4s4xGiZtowbWl3qNPKh5EbzTUt1OM0MPXRt+VryLOl5YJW4WKvPNMkw8LkHuJR1R2yssKnlxM32HjUGsqRHRKblVa5249alX4S83i37405z79u5Bk++0IVrlkntB8Jrq3YCNHNBI+dnH2Vk/rJZX2Yi9HjxaQ14CCXxHbBeneB3fuszaSwjJdFlA5OY+gOXt8AFAeyTeiVFGuoRbvgWhsVgQhKozVb+Gwq90iu8kAmgC9/WZNYU31cIAAlXDDyZmxPlmz5RFy1swPHg4FrRnfm9UgK/hGDZEv0wMNMC3urxV1PLG9v2h/OMp4gygja1ECgM+u1LA4QdzzfgbRspPON0LnQDlG8NmRFzwSMhum6F4SoT+7wl3biOHsNz+NF6k5iqJiQ3HMpsSrmvtjTuviVgDBKcL34l6uNXN+WEZkoC6Tl5BjcTvWw+pt0sqRLSDj9yGvqQz1+il7A4m1ev4qASHlnwx2k74HPJmFGwaEnpheVb89ggBgWLZjhkSgQxHmoZfPkdNkLxQxOhE6Uol/a+zrC1XsP8SPa4Vr+E1QkZ1Y4HN3exXMhpvEP1YHRrzj/iSTBTo7gdgJtRwlRvhbOx5JLRqJyL8DNZjlAYy+eJgu7XXca7MjxgRozhhA2+PJCngE6ORhcFk5rDd1n674OHOQdWU4p5R4MaeRlht9t5ISxF7mkkVumXvL4UfQyeoX7tSc9VQQchrqWYAUGdQuML2MKao3qYAwqETB8l1ig0Wd0uprBgBcIg4gie9UNAWQfaSt9rDJeL/WVVi6mQpKTlkLN46bKg3rs5xT64vUHJZtlfyiyfLuPCa/tR2UAotVKm8GmvKB9hQNaLHP34HEiXyeWVV62AvLj5Bm5Sj79ZPWW8q1hrR1Vsl/bjalOmBhvjsAHspesmNJhdKderA6DtGPVFA3ecx29SStFUROJ7SD5ZiHtGLGg37c6bN2iacCV25Bjh6anlZjSbOitY786l07s/tZlQwceIz+5STJ2EN9A3W/eTPLnh6XcmDXA5O5n0wpwACrFIzWX/yktjWNixOESY8pIuEBghNL7U87ZNLyTCzTQOFAnxV6ZTGRTv84jjzL3U9ehrISEPmYW34lkLPnOZI+asoI+NKhHqhD2d4gWqECm22ZVaKuqAgdzKcQwQnQwxYgMkOAi3VzhQPmm4y/T0zPSuPFLVh6aX92BViU5yKKdMU3mviuGgqunXro5TyeDD0xN0bOa7KXBwJ6ZdLmlkSGmkJ6Xtz1M3+l6y+9BIFC8UoQhP+WluWH2JZXo5cqOl804LaGx6bOHks/eQeobAo/fj22X1g2cSXw6iRqsJxOvFzaHF/BW1M3YkchOSkor7IFSeeUbTIDdvXLGd55NqCkId4H50gnwWU7ZmOSE0HNj5i+8z1jGPViJ627xwtyUpiqSW0WEr6LYak3aEvJYqu8AsCMCPiOAh2lbcURWYPHQPA9zItc6pbT1EJQaVG5F50CZTL/N03GW/lwishX5LnWkESK/QtjbKGDy/ONwSbKyAdapEp43dS0JFMWfl5Iw/ptwkw5lvsJkEwmoyeIOUv/UbbQ4liT8gE6WSytaiyBhG019v0/a8thhcCaloN/f3O6oQJe8fQFQFGHk9qTIutikC3qWPYzF+Z61Icsp9KlIw1bMJhGtByGgKT3VBh9X8nSyv7OKD7Zkm6KAkFoBA00Tm99/YcQ8I4BOyP4zwL2AxSw68Sl8D5l9NZAPKnb/YL5qlQYn/29c+k9aTVWi4LLYh3ix72A9GtgrdhusvnPtHwM823TOn1j3sz80E5kDkHSY0NagNxsKGDjciPkfAtSgzfL/DGsSo+/ETppjRJWjuibmES1a65P8tHYgxXnZ8MlC6fXHApXlXefyvGhlOMBwAfzbYGdW0jS5lJr5PQ9N8c4CD81kuF4IqDwIHl+gw+Q0s4tb5bradt2geHtGlX/WKEzys3SEgWT7cx+rMhWsI1/NexCjX7urCeVeBEbY7Pxad5AyUqNLQR7Vgh9dPer3+PJ8gVWDwwfQ0EreZds2hQ9dsLVgR6ztqJUVlrhp38LkD+wdf/nHmlz4f4QoSxvnSVlIjHwV/S+fdsVVSjRNFxWJrdAYwdwMre7tp+AS4pb9PNPEATOIa+ghyDeFLWeI5KI5UmHNhfr93gbXKCYp6XS8XLByA4ZiMF8P/Vo+PfpFA4G+/rKNHfZitpNSFJRFjfu4HAkK+fx2bUsvyTyrOaG+4p9+n1E4Rf8dF9OD0Ny1bit+LliOOl6knQw1CY2BNnUm7/WLYGEsnykCu5FT99aHYFhhPMqXGbkkEmW9vhHKvr2LG5y7OKKEpbS1i12XgZhPqNRmZwaNydiAZ5SH9k0/6h+PdjrRsHD3PbrEy4B6NfdRzCB/Q1TA5wSi2fxPo6M1If/qeYRjxxO/euycQuO4w/SKN0oJsg1NImG53nVaf7Da85jHQuGp1z6xvgHmQ1h4sZYBGCK7g0Lu0mpAnF8nfesFJKzKznjtDaPyBVLp9b0V6YgrMwonF2XvL30zUE1/Le43NkA4XWcqR0a12OZcxjNryMZDFDhhd3tSDg2Te/YB3YcEUQcSnKD8hDuNkPvIHLAzzNr3V5tOuW78l2u8z0MGv5juyt2R49Dw2EMeb24Qnkj3znb98xmZsNQYtRJicCOKWwVRQ8cXUDj7xXAAine7m9wEltm3/YALTFlV+bNX/m5gXfSUTrUeX1aEnkyynxEPxDOvadomZmZjD4pN0PrpOHcS7S67JqLLAykMS1354b+HH6aGycRtRvdK/yVyLO4MVPCG2qefEufq+dsXK4SaQ9DlMVTXIKx73/+rFgrDmEzTZJgmXL/wcJaK8ODZEfVDkT/yBQXlNh7jMoIt8elZyj7ry2PeuVu2wY2TuKGR3RiInnWmmJshJmUCioFFS/W4taiacTmTQb6FHat4ag+7ALX/KqHdWHioPVHmwso2GRVch+NMk43w5LTlRkCZ7dlX05QDC1nG4x3jBK4MJ2Fqm8c2+2I/ZdS9OW7C4YbdC/c6gUheLHbGd3ZD1GRIeEjmQ4fZsEnFEVfY4Ryz7osCUhWSFKFeoj9CLjiNOzRpdVTIxNkKqNCdWMi2B7xBFqEG01TBggZQ6uRH9QYVo2zMfsG2t1FCEsHDfD4IHs3pYAaTRYzhKK5ZOMr7auKUGSo7ot5emrvjWq0UeSP+9q/8YVx8F3BpcMCh17xJu1t14FMVUWEfAufhLHpf5va1q/ovwpHzbq0m5aAuAR/T9Db1RROfWfZ0liDKXP9gy6Dn6s5oAoDdhHqwo5/+TpP1+eC/DmIbi4HwRFa3qHr0jK8q03iEAP6srMlRaPecbXSYvSGSLsadtOWfZ71zYV9aHMA8eOZ/g0qWw/S2a8hENkcJmbh0pu2Gin59/Qvx17+wBAQ32It3u3HxToxpZz5OloRQJpiq6Ghr8C9IspBGINEK9jad/RKyHgIDIM+/HZxddReSb6kGsOCv4whj+Lgv2SdXloKpiaNbr+9bydQfAKX2z5F+GgFoxQSajX70jikpMy/MOOUlz4inxRjv+EJSh43XyJV7xo1p4BC+Nh2Y+6HFoliUVXwXqMXOio5KGBHRPh6I8+E+IhVF0cBW+4sQpq7mB0aPoFOk0AwS6+2O8YOh+h7/cY4AVN5N/OZGl+wMtBmEM2rybDNdApRT23FIZVDwqujVtoOntlmFItQIquD2wHEIjcyTUJ+TPYByZsFjxwL4hsJet4oHREIATCt478o+xxF9ctMFPVnrHdPD5JKNUpePjQle/RCM1lY1HF8025a3pxNZNFTWpZoJs1VdcpzShZ+/5bxP+m74f1DCqrmhvu6oZmwbZ2b5daJOUXPq2xH4EQwFSHUmDfCQiwBg2pbHeSbLs9KUJaqFbCBgNdpmz2wHT/gHvsgOsq6fA2MdkH0EzHfqf8yGy8y0lupDBEdd80wFZSje0IfdrwGIPRL/0uayPLvbC7IFDrcG+2nd3v8n4SAIA/li93GqUD/4zkvglr8GvhiJNCgbDVaF84ELxSTY2Gvlf3bPvE0OpgLcmzfsJ526K3CEGHg9dYrf9X5f/Fu4yoR3tUSiyoXH/GfBzYYKBeww/MNapQEYh+pkbCGygmmOUxSWqvLLCufdKYmlWbb6XBgIxY914JPUgnCc7DAPCsMSieeISBaB+1AQBaVWP9Z816ahv8VG5WcfMsWu6TBfcyIkCuJgvXaCPInsVj9m13grvwAFF70usENellrgLv9W9X4Z4MNpW5S82sP2QVOZqux/RQZ6v/L8h9UaX3izHEH6JwtHAif7mmE0hpPx+baattytq9pJEFLgbt8lEMr7u+dj/qJUw+0gBL2pXQFenPYkcuSh40xGwY9uzHeCepqpZXqri8HCRcOLzFNrVCciFVX1GL99ZgRz+Shf9+n+7eh3MabWMno9v+Y7g3iXvXyE1BId+4zz5PGz7J2HGBinE870FNMLc125xKRE3ogCjfjcx2zr/C8X1rrP2zQF/+1VONbTRTvkvnWCAJBIf2fSgFJ34hmTTMs9PyEonmUXqiz30gb/om/mEBrSG7IdHTqsxSA0MGeiY52dKBJrJJFfYKh/ketB2crUC3N/hKTv/R/66Vev8AZVVgzQt2uP2E2GLXoaL1s/2KRHH9YpQG+/o95f5tg0sQk+wy0NLOkJWf04WD2sRVpT+G7SR7Q8VmbyVqWbgR2EpBXWYrOeSZRT4UoYqDka5TYfTohJD9ui3ObfuHoOdikzdHtjmLPZiLWRykYxrTY6VOtwxuV3+3ADhzfa4OYIHGiJjBZIeUbR+YUWz7t8EUviHETNI3o/ccLoTtR4IZcUtfhWPH1qioUgI2LT5iKFPsODx7IKFWY9WfjD1IC6VOVfolawiFNU6il7Qh+6mdLybjjYh3OZ5zksxqq6l/ZGS1SYeT1334AABnpWItMpjMIIKiQQ4mOhFG5DjW+b91W2yuEg9OlABrh3EtKTo7mdHeO/q8OZ7jYKdpBDUtD9PVEOOVq8e25DCpm4IDnVvXpbyPfMsxCKUBHFEYudktlWAUbtWWAp4Uv1tMAM/B+rIZ127r/KR/B7j3KLgBjgwQnOoB9bmSGhDlutaC6u6BTvtoXfwNVfxvpfwZtPc3iARBAB0D+EaQYeBn7JoyWiouDwMGrV9y6wiIdjGl4fvNk0g6K1DLDQNUbmTCIiFzeWqA/0mcexEXdlzKaiWNFiPxcDpKjmzPYA2nxyF74LU2Q1uUYTIO8Wb7Lm0NSBhyXhp41MCIPBazayqljqOuYcpLL1aPJy5c8thvJtNirZ4aMBWsQK2XRkEy+5w98nYQzA1o0Uq0PFPlrs4yxjnaObyeeWrU+5NWVCBg+txiK75/UlB6BTxvYVrnTwAUjxYXvlvMNE1vXh0GoU2KHQMTsfBK+EtvxDLXrohHCp4h1GjFEXvrNeEjCux6iv0c/kqlMtpQFr587KRvfcYTlGNX3xVVuqk+Pr2XKupq84hNKDfuyFC96km7O1dDmbwrx6+KOyI2MOq6cUKW8hVEF9TY/tgSDGaan8N4k7SCQpA345aStvHj7TeYWXbVzVLpO3+KY0nNR2M2zSTFm8PL/h619ywkD04tHtQdufn+VEDgXLIE35dy7wkons5BpFmWyWV8GZWmV8qJU7gf4ZX6qdZ11q6oxXT+dW575n9dTwiW7IgQC6wt0KULos3XgEuna3x/O7BslEhJgf9PaSpLRfUxCZGegYT2mXK1P5KIMog8HCmobyBFUWCbkvs8iYuHfNmTUOSY69Yuovjmn4a9jRbz3U/G680kxYywRp7L29biH3spW46iye9ebD/sHriX3SdzqxMiHVT6dNQZ/LKAWYZUMn9dY5TQ+Rt1YHWwruADowLTa/FPgk47ATDMIr3qy3Bssw3ga95hhh/H6VUVcFjipiZcZSAcbUXMFfeqv/sUaHc4c8b+2+/cOH05QV0c0s+O+M80jeAlTuh+fER9L/QvDfbiK2FOnHz0y4U71phabznGRktR6HrX9M+Ocyg6LJE/w83RcKLxERATXnYI2h0xBJVE3nHE754gMlE1yfZm9sFdA2VKsZybsfJ5Rx30dRUBXe8I+uCddM6wsjIMmzUMY/2Yz0ejDzHjfcZvRV0UqQ1kpYKTBTAH0JC/ibd10sPdDU+P7/TwmsbpbyhYN0sHcD28HYEX4FCRw9O+Si1Rg+SH+2m0SFj4rBflP47eTF0OnrjP5Au7usYTGhQ4Phxq8r5ehLa+rQBmfsZMMO0nXlCN10oGRg586ngDdgaLIrE/OxsEsLXRzU3lePG7E1TBbQz2kvzBV6QDe8p+aG5Gyr1vTnfgVvWUyr62Ju/reSY5pS07UTkea1nh/l9dp3tanjU2KDoiOJnA64nb1TXM/Z1GrOx/zX7Mbihf0ecSi4/Wyu6p6tf39OlvIOvgMofHxQO6lYg3JDUDLOPpULghxsYKRa3MrWsj9VAb42A112nTxD/LZfYKHKsorkRl7JWAmL7KsPSiozMD/yZOZ9HC1W+okupGtLBnhUrASZVCFIvE4/KBnOJTNOqKf4NW7maT64mJuDj584qL4uPU1WvSDkJy1qXt6F06SLd92ZeNsuJXSOl7XUh+L7z7nWf1rUozRmB2axiCTIRoZ9Hq/N2NDNlLl5C64+5x9AROE9DO342uJ4QLlwgzy9XlkXhC73oKueYLIAMxXo7CnJWMPCuQl6d9MobWTljI/E9pphsUQBw3AI92lkaPM6V/dSr9EqyPvBmZ9nE1JZ0FkJKWO/Zcy6UayjLhSr1KJjp+gl533WSEMqwlX+GUCfZhaYo4p6t5kqeeUI/m27acOt11rshI/7jP44Mvik3pBhNs7YzFzoQtpKuKshJpbC92gbrKaA4kRYq0xUSyKbEaeHgga7cqqQfdnrn3NjMHEOnlRKWqQ6JLboPjCdjUglQhdvkL/nHY1K6W/Yd3I5rLR6brsBQslpk+WwQb4A15ua/fAOVshqq1me8F9o0TxbLV+q7ngieO/Vhsi/TAJAxtDSgSkLskzUtj+eOlnOl+3ZpFTZy+Xr6xlDpj/dTu1Ni0uthxfIOcAFjXHr0EzCbeMEjHquWU7A7+LmgbBJpLvlhO/bXJEUJxt4T9KA8h3psMr2+7FNKa8hI1t3f1CnPmoQhEduUP9qbc1wiIuOMjLstjxZhrgy+rtDxyz9Pz+NyyMCsWj2VU1R+kRa/DYFUu3uKmftCiO8DehZT/VPWyUSgOlcTzs0VEjhtLQFWTmzzrtuytwcAYbNqoUqNuwjGaLlwbAK41UoM0FCe6JsK+KzsF8TF2JMwMGPgLir2luukOQFiLxRz10rfreatAaNt8NDBsGAphz9euVYyuZ/iPoK8RoleWaOz0JcHAJYDM+iiuHP5yJ6CHegwwyOvYFSoXlTobUFP5rG/Zu0NXAsytbBmzOCGLWJ00hjLYWdngpADlgxHyLQlBbmAt/YZmHwM2P6/OsQpU+Yx6K+WX0F5UNXzAAAFWmOHObgw8UAsSvR7IQknLhKiAbTZzW1NZCuZ7V+X1d1vm0nqFxxdyS+ocdd6S+YiQxYcGZJqNTSuavsgHqh8BFE7t5HrLQmf0XEKL8AojkxvidobOW/XF9ypJJzYVEbskxmDBTGa9JB7P9LBGlbc54ThKRgnKuitdKYzYD4Q8tTCQZnBNmmn4mVhB9V/7r4PA4JrNmEmqYWfS+eeToQnlsSdXnz4gft6HHj3+lgVUFLh1hO1l1gNFGjB69LsltY//ZsUZmJQgX84hgIgmkgpUxF45wGDB+394Q9tMyQyydUF+rHWa075safcnKU+Na2cTuiehakwpJaDieQx+q8FkCUxrHK4cgnzk60UOOssTbbFK1BidkwPbVRO8iiNU6XlFWN6pv/6fS/UaYBl5I1l3pyeUJq9SgsebUciPzHsg/ylU1s4HDLvUbnN2iYoHGbm2QHJxfe+sfjSNc3QOOPqA2U/efjmz7SNNN1QTxgtENJqhQHQ/ftb96hXpeqQYhNCGjyE9v6TUywOqTwBGlTMX8pYt/RClnSshk886iZSFgQ8hqkMJ73+609E8MgHqEsHMCXh21O1iRJt/R/2VO8zpwNpnB47f+QgAHZcvBC8/irXdxnkMKao5ZCrzJY6Ldxrm8t8zhE7rAEkHobT0aKwRwXqzXDMWQ2VQHC67DtAQqU3X1kD9zjoZwSC3SupPMVB3yaMHCnHszGVkr9JFTMJqFKULoL5iWMxsl2D4ovAkHRcWYTs/8RZSjTmsjPNBuysEd0RInQRNvkr5KD09eZ5nObT0ZfRku3ooMlbijSfgHA7Et2FgJJQrg9bEJjGEFTMFalo8unB5K4wgQLRgVjD06N4RUCwhW/CbozibRamDex1fM4akkeliDIpGjbKHGUtEWwTsT3Pnk4PnDyTFHcPWD+dbKiFzPvDg5VvrfjFkaRbaUg5pWjHk3lklXMUUbcqWaLIsTRFZprTcvRWOMDhFmql7RkkNngahjsOWKT7m8piRyCLLBbityAFNBr9Ah789oU0FRfefJawuM4NPdAzCRj5C/n588LWUAkg0pvhDEX37w/WQPjDL6MLzekgQ+ySM/pbmD36G/NCatrPMECO/cdQjYpeHfZRtb6W4C+/EMe5JuqS27MV8Tsy2s+08fqP7aJymbrhqEEtfS2nFERTaIXWcUZ2EQrKEPASH2I1vyr1SjdorD3ABO8HdPHWiB1Y71HCdPb2POl52jFe10KBIztHYumMjlj/dVHVLozy1l4O809ZbGP3eyECJRA2QlpF4yPdG6H025QczUeh1GypjJrjNTMGD8w4lrCVFM/BJh2jTQZpJnpRjjgtHN3E/DXgiVOAB5pKt8D2x3qFMH8SNPf5Ze0bXYelOFs7742rmnuBUsThf2G0JldUTcwc/w9jZ3Pkm/NjTQXerAe23PmRySgLQq8rRBJ/U2TIwE7cqBYo0350Kf/TvoJjLLUgZ8WNRNyp1Gut2vIGBBKbOw0HJm0uB+fljPGOOXaF36klZmaLVQ453eiyQ0NTUJy64/9VNnKz7GhfMUYeoA5Kq1g/dGez4W3+FVZhUWxBZc8FJ7dYmtaMx47aPadGs6hAEWCkl4Gpd/NSx03rex2dpJEmph3mAXqPzfJh1nmpazpaVAFS+71Mwtt/WrlsfT3q/LvVQp8tu729k/MHEkVCXtF7RkhqVgYHb1bS5vqI/5/2S+5AiPN2Oe4yMRIr/eSNHWBsWoA7ZmR8mIoRc6CoGRpFAxXc+yBRfV0XnBXvpTshuqx6OBRqkB+6T4uTe/PVqj3N1WTgcQ/FSXW9d2jAYCHMZF2pnXtkDsdEbwYYcWP0hdKcCDRYx//qMzO5dNJhDkubsbi9BIyaQowKXto1nzm8hRlwFWid75fquv6OwqDAUa+7anDxcFb3AB2XNLK+zXVRVcl+8BApEnJnhtgqNbT13EPzh1cIAMrEaMW4XKP+K1hSW3+4lqTbzFLFwSqD2p0tsKGsFf98/CQ8AG5OtNbWdAfvpx1bLALtyIbsjL09kWEDNPg366ecIAU/v1slEcZWHW9nrTF84AlTuh1PwUqd5gIW8K3ZinlxIsucwaNnHWa1JlH4UD+4XuJ04UTjjNDX8R7f05DaNKPNEnRAU/kuZFckZbgFTwbYSRz7MRyWF6JB8bfkY+XTqTYrkb5t0fd0pNWj+AXbcLXUlbf6opfTXUvRu5PJr+vak8HSvTjM6JU63NiQxa2hnbKfxUsuQYMATqj5K19VeDeSbwefDqEQGZgClrAC/5rLHCVj3QpwikkhZt7x0NLV2up9PfgWULAPyguKqMl9Dum1TrNy43zsNq+Z7g6E3HXHEZ0JzgWCxiznORy4i3EtGb2fMNM5VQBcbNhIAAACZDwCMB6OEarPv0xxJug5UB9Hl9GjOlIcvmt5GbAUjHMUJ6/cC5YwKJIihScFRjdPD2fLpu0OHCt+3Jm0g8UWoga/uNnf6Stkjd8/KIChauV4otJOTwLQOJ2bGbRYI5uIVvQGCIwCoRK7owdmfuKO/LHpQ3NFyE6SwksqNB9Ei1Ck3zcFFD+Ex6iIXMnAPcnW+fzWN1TWEklkPMmxz9a+bzl8Nf7Jc2gTIUf20p37rbAGGhpd4o1W3vz6b+ldWz2896wz3rsoXXirtGBGo/j7TrGx7nVc2/nuhZpbHL9e6rsjfXnNcnmJm0lLsPpdXLusWNm5yZZoNVocyhMVpdHMXrTC3pZeyqMrfXDIOldviZgu97dEND7kqUMnPSElIeiJyDcC10Cqh0fz9FL+cBTl6VP8aHeXPL2EmhzO1xQGyLlzTfO5NZFg2KuDOaCnGNZ/MYkNs58dn6IF3eyx8G80TYpPNkpCJLza42ebYDRiNkxNWYk1jZ/A8uRtUaus/W/QCJPXvsoCD/PCCiXJwjYizyt65A1LJScMsbHKoSMqDDMJB2iRAgMPzR5KQBct08JfuW9ra3JsQbmmCT4uZEYe1Q4Y9vuah5dPPfUFNVeBGM6XSyQL1V99KaKvNi5QT4THGpLFaCrXhkH8fQxIfeQVLPz4dqwUoOfPTV3L+a/RcUWy6hvpFB3aQjYFCsuRSqd1HhlaK0gArcUMC+jRfprlrngigx50n6i3gd6/QqBJKVt8/Y7Gg1kWIF3u89voli+zxzggPPDp35qf8dMq4pFLMbodxmqpm745xXyR+8Zft3Q2rh2Hoz4Z9QSKrP0DIikR+SEQRmQgXBhZMf6Brq/D5Uk+f8MXSp5zK4vih4N7M+0eV7ngLjQHSEDmkd50M97CaqbU+18PKnvlk6Lz9QlqyNDV+dfIXtenhP4lYEEnsN8C0lE2U8qJhxZkuPjA3f01wi9DuVMtYkMRiult1O6pbRB610QHAeVZ5yjGynhxjvexmf5Sd9ZhsTIfTOjFCtJ0vAgknJVrdXGz99UreVrA7LcWJqzl5R2EKWy8qJahHDGPuHPDEuTEIrUuvGR3yOcM4C8zs2h8R346TJrMsdnSjKgL1ybgXmFtfbm9LAZ3aUSD+YfNPa0lhmpcUoVCRd6V+Yjme2ooWbifZy+HYS8rGWPvCd7ZzViDsYST/ZfWLxkMAE27r3/5eUAe5n19Vb+RPRBDzbIJRH6JumcgP9QbXpJ4zYHpqZhIGv8odoovEr7x0Whnhh69FWTCUFPpE12p8Htqf+2ki6ft8b4XKtcdnf0Qxfrx5YjFtA5o/WA+vT9orjgyopdaIoQ6Hiea1khSnV7ELDfZxcbynoBxgZfnCntJhBLkvUIhnuYrYFY/F6BHQlAu0Zm4MRlN9fDOnqoBaDLS4fgKNqKstqJ7JiPHbMEwgoDtUTOZ1wNNXiK/70IXs4gcUH6EycrFmorQkKKy3Wyup14A1fUb5cCd1fJPXUFXZrgnpuP0DO2UuFy3y+w6GBmEqQ5/2phYHFh9wscOYJ6T0uXqzeWfSpl6RZBe0pMzZHsH3x6aTI706qDRjKDopRwBbsETZw+U9HFEQTEzO/0jXY+n7hQc+LuDVgWJkJuYQyx7tW8FBwNHTszuPpMaNXBQZRsM9/sML9jzC59+3zsAgVKPORdWrMjpe8WTa/GFkkVgeJPs1RtIzTEUIxPgpzm5km08AU4HEOcK1lHmss5zIN1/J+Rudd1k+PE5XvDLyGxEcs3KPaYHpOQEOwFbzDeLhiWaXk25Yc1C8xvYpBxfUTI4WBYXcq0AWE0bYNr4jBYRlAxluQVsoDW8L2tR3A7cywaSV04jMgABSO1ZG8WbRUnAmoDlkA7ataKcC/zKCnIqr75qgkX7xqrBcvOdRtVKT9ybUOxxrW8n795IKYssApGwxndXSPoPVc8A4+6jX4Q4v3MJLvMFoqthd0nXZHBSMieREZa9VYhKnTKD15nZr3Yl4BoIbrO5E3AHbDJRtOiIVgHtWkuTklOjjUNU8bsjsZuCXGmR7DtIFPTaTpi5tC5DUJldWI4rAaFLYcUBjV3Pd4xhxo3RTN/W8VcPg7DhVD7lgKpNJfoH0LV9ZS/Ihg72C2wj74kQ6dE+SCQjgDJyOJEe44RH1hznrrx38OWKI7pZAcTfOIo9VLveR1mk84Uz77otZOn8DRx0PmQFtpDWJdpLjuYRlmSA+gXkND4a5L1HNHYIPQM+3MeBXNUNSZ3Xoi4XfqfCMiKI9n8+pz6/v6KVpSCLl8VHfiquGIxkPFKbXf7wNUynKX4MxoCYbAnJAc8kMokLcHlD6WACKLBqiFogLN3zJXG6EPfzZpS63t5G8a42B6Q4qW7gSpJX7N1m3mv3ayzfbMuuQCDzuu6brkgBxwrBd3vPlE8w0WZkBYcvf+xmoDBxFCUNywv+RaY7RU6He0J/ie6LgkTNQW7Qafwl52MbvDe3fBYtPQG244WUuCZcVSBQBinBhXne82RluK/ezb1jaAKO9LrFTDCjLeH2VmB51M9cW5VNMRImypLNdZn+99TR6ICEzZK22S9L9xxlfBFu/t3iQTYJUEEzfeiRAR5d66LddIhXde6AdvlfybiUDxE5mNRZvDwCY3N84w0gOo1D+6JUQG7EtYKYvYzYnYdRxDZuZ5iToqmrPssfA6mlVoT+DqwoYXCfWkqa7AYLIAaCwYVwsW6opAo+/9waz5Hn895eS0z18X26fbv/jkua9D5VAdOQIjAuWJiRA02YQnDlIS8W8CghK0ugzxPS0I1ikkVkbSbNM/Q+ipFvbaLx6CKgEAWTw3mgWmceJ8XXvgXahHmsPQMTqjisiSK1opfUg4kzsy8YP1UjlRvfOlEMSV7y4sVnabDj6SkESPyI0wc+Ed884Tr8+dzQwpBY6iGOESiC+ccJ1AfSHBIh6CyKOEbvEHDhdbq+QXm22esCBru5diYFNSj4s7K+pZGx1xrPwOd0EcUT9+ecITRBrwYaGwvCnqvUuO9qp2xTKqUAvOxcoVf4mzGHw1qCvCOPhtV6zc3U1kJuqpyUqEv838ckPLn0roX5idX/vgJGmRvmvjd6xpvaP2IT+VUZLTz1jPsWcmlGr7c+V6LJM3agPPcuEjJdcbNCy4qy8YxmH/VlCidBLB05+alXWNBLhGNsb81WEJeCnRC1wJHvMQHLn5/8uPFw9R0t59bRUHZWlwYa6eEaOpUeuoMQnI2oLZdfdiS0OXDx52y9eVtuT74Ig+DfrGEFNSLS8POs/YhQbkO7Jq3Dp7LyAHjUtfpLmzHMVM6c0cDpDkHKEa/5/+yBIo/c2zSJG4wDeBZ3mvPgVzQTj/AWFAVomMWckVY+0k+WNRqPTGVlQ7Xf7YiBihod2jGTDK68+9IOU8MZSALhHThDuivc0yEXh9GiX+wNpPpnUoXFBRRFG+FQvsT4jaO74q3lmB4f/JgfIwN8yFJXciTK0r2tT7TePOF7A2Sr3R0T2kMV2O35iEB4q+6/GMTen5GEXlrkfvxB/K2thxBi8oO/C4S7rueTlTFHp9ZDtaggGB3A2Xf+cUChRPxdYRfzsOghMJ0s7ih7ZaLexFNNfo9pNO16W7PLLn3iWAzG2+x42HgEfBjPoTliK7e+/jRVgPy9LqPtGDyymbnS3kYmAoNsLtoHcFGGS7lVZe1P8YPuX3o5HihV/J4Y6eum2Q+PUgRPCHEeI7YzC3yjPD0iBQaVwhovj8WhRiwO45CkOgj1KYz/6AXWxRIc1JUjkFlZL4RYt29qf7VpPH7Vp5MokXyVBRst88yStJ/WhTDGRfTx25phVNU0V4YgbZLCbFeoNJQ0EF3rU4EGMz2j0Ds1FdgO6/O1hvQIjAQRf4GtaT4KAAAFurqQ0gExIGFJ3XmWgjjx3tLFphqm9qxNIC/3JbP/wkxJ8dIOT0yCDY1LEWTqH97cM9GDyqdsuYWVkvXLHt7A5vHdE66BhsBdve+kG+Bo9jE/yzuBN0d/MMzgyt4oIGEivfaetQtiAn25TpOac1XzNc6+ahUO/6GHfYgTTcvK3MK5Z1MJjMBGHlOXv0/eK4ZKDOc9PbYEG2wceTC8hfEEEIHlnWY3amOXWpRafMnhRciVxGBKkTFo1Tu4DpFTw8Dmgyme0u5aZF1yeqsiyXch6zNZ3WjdBzySGdZjMVJvrBkDhmElAaQtZxFjvOol0XGjnaCDZpLhpDxaY9aUIth+7iZ9VA/qqV1pS4+mmrjY7f0f/ks7xjAIIkSvzbQOLEhoc9WIhuHc/q0OqFq9NGGnAetkdPw12VIobbQBnN0c+2qp9AHUoCiMw5ux674x2b+zj+u5BIY1Ye6k6xUaoMY8kEHtDT9UHbps9Ll4mzg01bsiNek8It3w8lLcBHgjLkj6+/Ilx6zMnh/yGrcMmctqydxf9NSANG/PvqCdLA+gCu/KLaOUD0/dLb1bmHVMemkOJbl7/1mpmYD2OGjPUSkJgeUYaV1yCfsabeofTylvZ2akjzH8D7dv9whGlX3CFF2+lbD9bkFRoP0FGWMLJwERZEPyAInoPAsG34Fa4ed0pLWAALAqUlza3Igg+bMUJUsQKMpDG7/3icwKFJWQEkhXqayZ4AUfSVibnPD0LLpcy/mTuovxpV2AlCVHElu7LHjU5Y/ntwTCqngQuARNKtgUM83MQ/u0ZPz3XchGB14IszetPnqv9d9EeMUpucluRPSaUgp52I33UY1BMeRcjlN0L+J0MgUdX8Fr/eVB1Ehnb45L30OvjgPz+ryxx0EQjbiLOgu+Y1AUOIsIQPdfsk9Ex6fnZxjQLWZvALmJ1C+1y62aSb6sevo/4vGQr8gB2C0aB8xOD3uAkrEI7+Jmm27rwTjueFZfIi4Z/K4uFB53xfoTQV2oZCTKbPSBC6KCXc0JJZdOidvnYS/52/fTiH3F4iZSUUr1IMurc4lN/yXqqVXVD6woLQbmqN3lq4Rdcd/5fWlTZLrqzNNaJgG8toU4WIQSrCg2ZR/BQiGW9bZG53yuDArYhyz9pkk13/Y4X/c4Wmw7uaZku25XsxfWKEb6vQH7/oTOUeoOgUQ+6SfeirGC2KX1MBK7IyzzJIAKPDpNQ+4KEaHW6IRVQTT4s4Riy0FY8eAaYbbwS0p+5+VYRkP56++JccaE8oNZ1V8ddzVsiuiuepiTUczhMmdhU16DXSNcucqYW746yb0ijqt7sto1Rp5F81nZx/EjkP30YqaIPsXaA3PmnxuX35yMcE7sqwih4SksniZ8aOlgWiHlW2ONq2NMNbUm/0i8Mvi2jfsOglAZW0W5VCe7Dk9ZIMYO8H1PbPVnJR0DnprIaLxryHQMRwhSDzV1Az+eq/RpNLN8pElegFfjJ5glMXaaVM+Eujyz8KCLM1pnwEmK2RSz08wxssN+Go2d8RljvlEozsSHwtQXVtrRq82cWOeegf8W/i1rSA1NFeMckR2u+Dcx27Y9/GStJq/2bONRsDii+RpcarmdgSlTjoY6SS8+2YMW3oY3cmXTgXBw8L6FdGalAfh0X6rcK24d9vjw27JjF9yryyLGQzq3gEja5hruXMHehNsquccF07/ELBHED18imWtmwOuyE5xqlzUwGh07jv0CBUkXdlM1NEE1TVSl6xw5OMLrYBE7YlmQW3Bpxo3SwAku7gXR8pO7tpFz4f/aAfpuopAFaeqHEaBw6Z301p1DMCGIn9V2/XST0EvzBNbu3sn8BtINdiCBGjP3RJAlMe9aeoP7isqkRtpTUcA1NBV49YWOM9qmTemDzq3/AMeS+jPjTHKp3UgJN9CKkD/U1BlcJzyyC4LUFlSXt3ZJk3Q0NlTDX1xriIXbvFW4giO4Tymyf085Ab8FQw2ysLDAAAA/emZNo7JSZnauNK4OzkAquNJPvgis+9sZCQENOQG4m63t8nPmQPqWGLZGwTuiqmDsO7uMMx73RbxUqTE0KC3RzpJK6Z1XV0wE+AgQPato192NDo/E5iyF0FOquckOzuHb72vIEZ4Myy/ywn3W4TBTukiTnmglJMW7iAuP1xHaV89L3+ZzzR/pZUYI0X9+94jPelpTmw9dtk59/w/h364pvvIqVvZ+0X0ucc7rHHOx5jFF5bsbptnjA8Sh9F8tbXOCG+krnbGJ98N+wyZn8N7BduYLEB+LnD/2MP0RDtcWIDPBcBX/XKieI7yfuzC2Dz5gYqjZW37L25w7egcNgf6I7oA98fHtGBY+L9MM5FbBXzzRXiKTUjWNYShhTxOfo66dNlXLlycv7b/P/pCmuUob/+NSvOpCKwKXwKzJNAln37nL3Xf7oIDfEESV9hBT8xzSmWMsQACKrqmy/6b2obM0OeU4wymWbmX52vKZovaV25PPjtAS/rKl18PAvZEz8mSQxgPIDF49CFxGNvDDMR129ZqpEibYwtKX1lM+zkv+qgoZyRJulsglf9SyE3G1Rmmw+gf66StJuBoedpHbEepxKBE8sX1qFT/tIaz9mfXZWjA2qH5Xg3FW/eyqSV5mApQvfuzTMc8jJXM86sxm7H1SBkGQQd9DN0zr6K8L283ab138zFB81BxLmOz90Q2T6UKYn1wmmnoip6O5cdovZ0W9pfP4Phx4HE/bah45yAWi+NuCShEPvyV0qWY42vfpUq9MvUMYmPw7eEb9mSv2ZDVQ17J95k7gUFQeKnPshADTjEm/hBvZwaXHaBjhLSq1UDO0TB3n6n0gEkqGMVM2YO2VFUa0tfqFEQz0KDfw+4J0Kdm/feozNZYmKt2UM4HbRYocdTGTQ6mAikf9USu+GOPRBp/6Xyyj1hGTHVbqfHW8DA6IE9hmVwScAkzSdBvORzyR028c77ogOtz0LsrDmLLdK52UXs5Xmy8zuhT2BmpyjbTtSiO4BeX2pz4git8ssoq7/x6BRJ8ezu7uC9P2X5aS28wPw3z1gt43q0ixCevEXx3zGMH97TFTGqcqU2gwkinqXYsK4G/bczU7q3nvXJ3OhOujEVmFp3m5D6AOjjlH4j5RRxiKY00GqTBHFAGjrCITzFuKwr7tpPjDoiRSQm+RtUUe09hL4Sbnpw7TjqaZz4VWMv3Q2bZEP71RxVZIxYtzXl0mXpXsQwhorD3s1fhQMaIIRSFD0/NkQBpYF4MrYydfxBT0L9h5I2RJQ2c7ObtX62LuuDEuTpIPkWMo4O7fO4oaugg/6NYDWsGEhqJ6Int27mJbGEQU7qZd8TGGMSRYvaLtbRY0MlvPtrqHK3s0gOXisMd+joumiuv0xrmiKSC3REZWQDQJqtkOAsHpPRPaS7MTxOQv1s4zhBTz7gZXjM+e9EyJEw8RX84tXw25nbqoOyVTyTyfuOIoubsHSPzbDaPxzu6RLY3A2TcuRt4CmnY53c57B+G0hOMuEXODg0PZ3Br1uphi51euVhlE7RQSDOHYbF4b+ZT+8az5k+XUhx75wgsmSoVIWmeELw3EWwzBBsDTVV9ZwB0zHaUJhku+94o1e792WUXcyRa1b2Y+7vfFn91e5JnnMUNAMuA8ZfAHZVc60kaV/vChanp7CGAaoqEXtKqGcEDcmI5u2auCrErnwyC7VYe44fs2+KvJLjs7jkWlApREijtzziMg8yFRHZYMcaauGajrFD+N6jn5R72jQT49W9kuX5IY48qwDpGhIddHgIABMZQAADIMCscdOSpyc7mRSGF1+VWfqOuBMYKWBb6uqew2Y9Vhbvyyh4CHgQUROK/xPSUMK/PBqG6mUBSAllicOUB9M510YcQS3cRwUVY2QoSIxVYbSgHTXkazYxT6Val72KHmRMpE9K5YVdHvcVdxAOLPzEY9WOQgGzkD4OLcKmUueM4WzUIB0yh1+YMuRjM073v872ZfY0y6v0oJoa0WX4xR7R8YfLHQT01aznMKu8sc4XXC+wcoR9mkl0ag9fDfOcWTGfwLCLzJKYwlZBshZ+t5edvRUMTbjRH3kMlchVa+UNl6K7oJd6SN6Z7KuwOOV+TbfLP9pPvuiLeDvVdRUHIkifVDQiXAfzIAuf/ta/r3n1Ac8RUwjGmRWrOcWEg8iYmws8a32WBp9lehVIanIUNMS9+44fKfuOorPqVOYJhlkIrmVwN4hCxZbtOaN/zQxJmBDNhOtpVevXk7lPaguXkSodrYB6/6WMJHFhhyC8HJz/WtA1U4OEJHMrFS1Pepby8cICpG+gTH0LcWYyhFMAkXxD61AT4YnRhBIUD2DshEREHZ2X68+XErG6p7J0DbyrzYgfJVLPmwVkdbOAooPGenmara1c/Tke+4qhro1LWa4VlcDWAbkpcg3SpnKbCghTI5qUnQpE1H0ys0+L/LqDAVg4NkgU+6AfMPhl2yxrAS3DutgGd+2mmN1ao4DhBRZdHUjXc6opG9QqUIufyezkdX7fTVgy45Mci3Ma5yvx9yjXLtJ013kwQyg/wNK0sFm1ZjuPVWyihdpxo3SLZpzghZlP1s3R1JeiSVMIHexJk3Hgu//HltM7ysfuWwzXOjK5pXEEKKSGxlhfMSU3LyXgXWGXeKOLONhB5VYqp2NF4HRN7ENYkKc+SKn9YvM/ihdZxQXrmgoEf4oZdBfK5g6/ij24u6L/I3191Rv8krIf3JKLT5DHJDJtmZaz+Z8da64kWvDlJOl+5LM7UGcwO+t6h1ooI0zVOUlnmRkMg1bTDZd+husv+RaWO8LkBvDEiOsRQ5YZ6gbVn8RLR3YbhE3SbS08Yietf0ScXjOdbGA0d0r4Ffd2dwCHZ2a1yh/8TU4Tg2Kr4ia2EJxcPComwM3WYPkWgetAssG95o9H7WqhdNcCk2XttROgr4G2tBmdPPuFocWV8/UWxbpaGiwoHE3RQG9J8v/o5YysYjCzDdTSTwo1UFQ8++0ZIyCB0bQ1abTuPFhi/t4POH0b5UJl5CRPgisu/Q/EiUHm600Wk3ttePV5YgpC0KCcSQyNo7nD2KW/6ZfeNnDsm9tjxBznghMh66vmi3y/alUSFpHqRlRSpqIkV1gwXaBoj+jLXl22r/cqr1EB56XPWuCi389lKJxxl/ZwI6bv2ARnhbTnBhq8MPpsccXlsXO2d2wKhbz+LWOT1m83q12FcCBguRGrwF3iBWeiR2BIbnmaT1W/0jhBRbb3Bih6qnp83wNR6BPuLni8h03rUVKr4pVShvPAauHPGWwBLEfti8zPmeWaNbZXJGjfvwxK5RBPx5RhqiccE/nDk6N+ObqZ3rBX5UZ286F0bfoIWsiNaXmBME7DsjZFys7xPX2NCf4xlvXEUNxVgACLpYQAAAAqoGsPGwgofheP/c8dUU/F8bPesvKE8gSeh1OWgvm7UZ7YGt4WOnky048aZ4hNmxjVHmr4/rS/NEXeLnxjZ5vgLbNgI8YIn9ruvmCiyVR2fd1mlXUDoPajPoNBLqTlP5BANkWk8NbIxSE2cK/sja3H17k4AL/jsVXHcpEt3hDLtju0aGwgATTigS1D1ufDv0kggaLYNcrx5JZksNEOc7Xb7L5LGEIJboe3x/Lq6EA+zt3LPuj8oE7wJN2Fl59CcNe4swcHyG9v2ca5WFNrfPixwj+uGCDFlztmU9HH7aErWM1zsIX1xr5t0MiVcSWFuV7Q76HYTWyle2gAMz5sXN6i6MmXLxj4lMxov+HIGkJofCeQPP/81lvWtTKWgLW0Sfut6lXUPoYayIKuHRL9JTi7kXh6bVaL5dJiXvoMD4H5aJaPe1gxqEjqzUFQ2A2w8GLvHLIeN7o2BVB9D4Y7PhZVtbipv1/wVPQuGJ6018FM7GeTfoJcqsw7iutxSvtCAzYHM7yraF24pvCKE5kfgzHPFvefI3HMhH4XG7h0azFl7z+JZU+wNRXBJi1muZlG/9b/c3DPvjlt+UBSxPHle+UIH1a26ilxDoZVCkGnuOrhYgXWM+Xtzy2zo8JpcB6FC2WCgRpF1I0Cae9nV4sKwmlsu6KK8NyGYDaO4A7yo65mavoSaW7oBjeFOqF84UQ084YGDgWIWXp/sMgn2f5tCuuqpSVDU/3Pnt9WjU0sNdM6mIbYOPELHSQlOZmECdokShN8YrIIUC1Js5N24aZgS09fwjzDBGzTHbLZdJ+oeJuf8tYbMTIbw7681d5OiNd3GIfoqXdakineWGgowMWPDPglmf+zi4TTwg+c2yrAhLUP6m7lVb/fN9vw+XGzzJ4SuTKee7AWGdGXgCaMdRjmY0vyo2qnHW3XFtwHlGSFRGAdz/uqQaH89h/MPO6EkPXdJewTltG0L8x/W2qbO0/i3uPXqlpmTxVSv53z/Hxs1v1Zxq1qMMazKQzQvSM1tNI/frORw6UC/9WIrxUm63ZF0oEdip6NN9iUvSXa2qeBnPX+Znxpbzm3DLGfDLcjzNQrb2Y9IdxnaAwvNzwESdtGiMnniVdny3fplkjwQAA2X+P7eCceoMB0nS0dZHndPgDgibTZNls7qOyJW+//ESYSdy1mWy59/9ylCua7EbnrQWwXNMStbZuDSGziNcdQnTxa2NL5xWqhs+ZWiwzREzON7xciu3Gu43X8kD1ZiwFhQhDXo7eZjxmZhYEWyRfFtnid1SncYWU20BNWuSkfj9tAgKBRWpt2yv5O8vgz6oJeYmvDRVMuvpbdtHvxuyKLbfxh3QmDH3f+d8W/5NtkUY3JHa7hOTpfHxEdi0y66rmfkcQyB0/r/muxZ9BRq5WbVdnoJGQqgvrTRqCaSKz0wKCzm2JMNqg6OzQ6ztHUm8v429lrMBheFxDaGqpDqSZFaBeiuoZYcB6UPLZXYq7pgjIAh2y3IS0pYC0gePJJSuP7d7JUSMewIMvhhNXERGXQLzR5vc+G4JW6ad5Wf4Ac2/rAAAFk6rdulJAB4z1np4TC+E+c8awQot2PNWOdYDYvGtC3AAq0NjyrbhA6Tkg5r/PSE6eNL68BixHoV2OtKN2DgSZsokE13AtSXpwucHS3TZLVS15jca+7JRyWZbpn/j1xkgnOk/Kd/7DV0s9Lrv705xGYW8kLyVfItCGPjN/8vOP6lpLkARhqNGpzrFiNxKv5UHmPuUmzSQyfZhEBWHVgfVJfflnta/sZyYpcT7xeNxoRRWzVkjxqkH//mi1gt3sP3PFvOtBnayZAl2/Zqckff8ceTPl2pcXPK7aK3GEyQQyxF1ry4no/ZqEk+ZFpZcqAW19ZXWi3z7GmbPpP5AT2/PfpRFyrUPMZgkL2tsNYLRW7uLb4+63oq6cSik5WMzFj5rtRkgObc56DrprQxtnwn3+JTz5oTovaI57zrF5I93jT6A9mPvIIdKl/R+IXG69eey/Wdv4F9eJQiKpkSdRfQN6lxayWpZFcpQIUWLqpCIMGFw74PNiFnAeTE9uE5tJDbjVL45K45vcTke81vAEU26eD5NDO79l2Mt7N9FxHWcso4vu1YzxpwwmIst0tWFMIBEmnH2dvKRmHIukUIEK9tbcHqullkrl/YTbWuhBUpnJ6QvRGP6neytxHlcV0SXbu2gu2W4eXIKebh8vTqTt4AfEbF39k2p6BoqhjShb6aED/AmfIlc6j2DluWjCcJGHzcmVAnLB940JaGRrZLptiktMIW3u/tus0OjSoKBhqan94kXc+5WV2jJUCSRybhfbET7QO38xWpNTNtNHM/aEcnibrV4Py6IHV9O3+x0IJudLhWfWr+XnMKTCCQsRQ8jVneMERLU2gWbGYyXf0sZPyAGAeH5OOXDJ9Hd/qYAY3jAUEEMRkCy4549ZahFovcPnUEfv6LP/9p6dX123bQLYKKq8mywRBm17sfLnkRCLxEwrHuuSWKB6c7tuYAq8BD9xeMVTFKNQaMhPiwp79Uu4PjQQBEpdGv2oj2urfl2vk7iz4b90Ye7Ty0ADYmqxDtufV/1TTx4P7E7D1liOGuc03mbaGvkGHXE1ylzc/xJ7/9SGng4KtXg0pTYSwDTU4Rev1YkFXghtPcQln8SIMuTMI1CGm4gFHtDH4dz45sZkLuK4Yio7M8ZdBH9vwMR2n1SQuGGutbG3o7owTa3df+1zXgkdl2eu477zzcxWcO0uY/7oTYvhAfXuFCM7TRO8Z7+4nAAAAAI1ND1bpLzrsC062g6XxjbN+QKyfyq53yI/ZnQObvuaPesYev1+mOhjo1wkXaNgC5OQJ9565Y/RhFclTYJRFbBspmWUrHykgK/jh7K7/IW+uBmfRwTJAnKCIz+XXwn4DhsUV4Bb42aQgy5GZ/C8DoYVBTMjRa14Z3+cus//W4SbIWdU6DyPeYLOH6L1at1A8Zb0vIBKWyaFnPe+UzI6pxAgxelpBeBOPR1yzlREkM8yK7byLP4GmT0KuVp55Cs6l+dYSD37GCmD1ToH8ZxebgYErGFkd3C+2/QPDLs3xgpzLlZ9GV+GYgs7QZTaopHravv+huNAHAB7aGfXOoEKjSixpZULti5EGlObWVeXQxf9eN26VvIENIjgcnT3fp6S17YS/ODpjjkJ3oInjg9KR3cl7LfrQ6Bc8uG0A77BQ/A/I3sKdFFbj5V3/tSgjtpcI4ubiyudQanrl8NUDGjg7YONLv7WMFJcgEyx57pkrTr/C/aZCcBEOG3ayJ/xsX5bUKOGSZLLYwPC+8aGNWgNRVPjAFoVZ61lILlOpeke28zUg/FoADJSbtE7Nu+BsBfepLFnQvmhcyKL5D7WM+GFgB35ynvH2MfQgz8CdvDPqLMvMW1bqgKUVM5fIA3szjQfJ1umjb6+dU8T4z4PQSjWqum3MWxllGOGs/LpJ87lP6S22nnXkn7T1iTzszbtsvCRXIAq8shJHZk0TaZRzdNRaWrPv8aO9WbnaVrZZJc79AogocXCkI14gwFmBvIMSGBI//xAEy4Rhw3VN9fUHPDk4YZYzf2O6ZFEGU8bP7X8FeAWWGs5QmwBwNe4YdoNEVd7NDYtc/rWi9FesxAuG1AKB3Wxb6tE7PsXorWgkNQx83jPD1i3CyXpBK7ybdLMXC8pznUwNgqIxylWKc0ddZKtT01hlUexAE63rL2pxvh0wYOn4PZLg5KGAwktjx9bYmeO/8+vBWNhO5iwvt4m+TLseEWqUxAGCOGSh5XNVJfgIz88u7k8OqoHSIGFZNn6niQuQABBH1z1V/9uTutA9kBn7tuHw4zU1bMIX+q7LJyqd4nB4YFYSNSnZCfw7gCYX3o92FHDVe+0uwn8DJd+29jlyi5CGOfXX9OgyWGJMlKegopJzygf1xSOO3KwSU+I3TuY/LN2U3hDMTNGbWZ9I8LUQsyT4Xn5HnGRo1XOPCSqtKC0f7zYzv+p0rLAAAAB6ZibUfwJOzTMDKWTaxUppLRw4KXql/gIVEEpi1wNB3eRdvi8kmuFX3DZ3dZbym5nsrofI73WHslW/OKgARQLvCThT+ec7JUbopWmjboIajilKR3EBap7ayyTooXb1cmDyn0MlN+NpUO4qtQuA4fmFdp0eSt2Vll1Axyj3WDfvz3w31I2ScdmDi538Ah5PNVon7aW8Dz3Bo2EeCs8rqahgSwI/uI6Y1pEsZNyFH6YABE8agFU52cXXKAqlFYMo4uoP3jtIWcgC7BEyMnnRsKPG4ql+8+D+Ndo+A54Glt9gKp2+GRp/ArKoIqolcCgdxQx7Y9cNKMtxJB+8hhJRQUuqQNWMKInqWizLUoW41fJwiwyA6GAsJRSBuwD8nPkKeKSoa5ZuMs/YtOzrPtGQ1DnRfpQrElgYwgFIbawLbtQvJWB0X+uoMpDmX6iuGQyPaKIf1FfK6/PO9lAw05f6rFj0Psf9OdH2pmOZQZ18YB6RUEoMQKObVTJ+TR8wpf4qziTcoHUvWKTvmN7MrEa5H0Qvo0XTugsQ8xHIfrn7sE/hU+1NsQ7/Jon5vg9SiNN1rhrgCzGDk6WWZ7OhA19/JMfmitDOqzL0ml24cnnLQhXTfegTf0DUOWcCTLo/mSMZRyEixr7H8KKksRGUKWaB+eXT0Bk0li8JNSa/xBgnmV5CR5BFLxCy2iJd9Ja77QC+h8d2qwhgiUGWjm/wh3uGD6jt10KSTiiN4BTvWrAIUuHKMhY//Te0LNp/SEqBG+Av0Xyf5A/dB2p4ged24/uRjYAAAAEL+Il7adLvrpA05DEoDUNKf1bYGGInJq6ihFEO2NL5RS4ofW08ISlNyjToJzRwpo+WWFvvXUoTAQG0kte+4ogPBEPtFyL7I4b8T8Cpr9CKxhn1fY8X7ZtfJYHnJgoI0PyLoDXPyfLogV5F+9J71VH+1d3d1w88cxaLl8VvwE3wTuuSLWWXX7m7HXURL/XrMOZBc7554ORFbhVS+AaHnXTkCJPH/Gn8kx8bXSRT9bYM1iWJL3360kaCGILIP2WfkNxDYp77QaF5StyyZ5kz2qslPSwDqIlq78tAURvV53p+KvYoyIcZAdrurCdotDylpGaPeUsCNIXeIOEnSqBRbwEIfigK3U5wOwmZa0RLgsV27h62g7pjlMq0bmPjQk6S2xcdCb0VmyencguOLwHpdwHiF8nGbG2QD6xg0+CTlzjRdAgKPcmMD4qQYcNhMC0ziofDyLd9f/gsEMKPbo2NNW4P8vGC+g8FzzV9vc7oAAACPU1psipshiYbcS3gYRsgKjBgBbZ5Z1uEpxN9+QW6bCl/x25piLUoFvBIMC/k0ylg/CboioCDj+iEFskayLlQWqptrdi42YX4vYlSYJZ3ZhPidYA56mPt+w89CDvI9+HfS0Oj7hfmkAzG0odokp2qGdcSCRCEhWexFq1OsNBcluMaUPKLDesqg3fJKOEmtP7IyHFVYLeT759WV3B72WeNAIcUJVPMtNBHFmgigxGUzpVaAmjV2gJtwLQ3SAAAAAk4NEatKIvyhrRqwnyiIwTcIYqXocllYA03ZE8GBvqaEsQHgAAAAAAAAAAAAAAAAAAAAAAAAEVYSUa6AAAARXhpZgAASUkqAAgAAAAGABIBAwABAAAAAQAAABoBBQABAAAAVgAAABsBBQABAAAAXgAAACgBAwABAAAAAgAAABMCAwABAAAAAQAAAGmHBAABAAAAZgAAAAAAAABIAAAAAQAAAEgAAAABAAAABgAAkAcABAAAADAyMTABkQcABAAAAAECAwAAoAcABAAAADAxMDABoAMAAQAAAP//AAACoAQAAQAAACADAAADoAQAAQAAACADAAAAAAAA;imageBorder=default;strokeWidth=3;" parent="2_bzZY8JqZcMzYyIOrCb-34" vertex="1">
          <mxGeometry x="59.5" y="7" width="141" height="141" as="geometry" />
        </mxCell>
        <mxCell id="2_bzZY8JqZcMzYyIOrCb-12" value="&lt;font style=&quot;font-size: 36px;&quot;&gt;Motor Driver&lt;/font&gt;&lt;div style=&quot;&quot;&gt;&lt;font style=&quot;font-size: 24px;&quot;&gt;&lt;font style=&quot;&quot;&gt;(&lt;/font&gt;&lt;span style=&quot;background-color: initial;&quot;&gt;L298N&lt;/span&gt;&lt;span style=&quot;background-color: initial;&quot;&gt;)&lt;/span&gt;&lt;/font&gt;&lt;/div&gt;" style="text;html=1;align=center;verticalAlign=middle;whiteSpace=wrap;rounded=0;strokeWidth=3;" parent="2_bzZY8JqZcMzYyIOrCb-34" vertex="1">
          <mxGeometry x="10" y="150" width="240" height="75.08" as="geometry" />
        </mxCell>
        <mxCell id="2_bzZY8JqZcMzYyIOrCb-41" style="edgeStyle=orthogonalEdgeStyle;rounded=0;orthogonalLoop=1;jettySize=auto;html=1;entryX=0.5;entryY=0;entryDx=0;entryDy=0;strokeWidth=5;" parent="1" source="2_bzZY8JqZcMzYyIOrCb-37" target="2_bzZY8JqZcMzYyIOrCb-36" edge="1">
          <mxGeometry relative="1" as="geometry" />
        </mxCell>
        <mxCell id="2_bzZY8JqZcMzYyIOrCb-37" value="&lt;font style=&quot;font-size: 36px;&quot;&gt;FND IF&lt;/font&gt;" style="rounded=1;whiteSpace=wrap;html=1;strokeWidth=5;fontSize=20;" parent="1" vertex="1">
          <mxGeometry x="4929" y="4165.33" width="160" height="80" as="geometry" />
        </mxCell>
        <mxCell id="2_bzZY8JqZcMzYyIOrCb-43" value="&lt;span style=&quot;font-size: 24px;&quot;&gt;HALL SEQUENCE&lt;/span&gt;" style="edgeStyle=orthogonalEdgeStyle;rounded=0;orthogonalLoop=1;jettySize=auto;html=1;strokeWidth=5;exitX=0.5;exitY=0;exitDx=0;exitDy=0;fillColor=#1ba1e2;strokeColor=#006EAF;entryX=0.695;entryY=0.001;entryDx=0;entryDy=0;entryPerimeter=0;" parent="1" source="2_bzZY8JqZcMzYyIOrCb-38" target="2_bzZY8JqZcMzYyIOrCb-31" edge="1">
          <mxGeometry x="-0.8003" relative="1" as="geometry">
            <mxPoint x="5620" y="3724.33" as="targetPoint" />
            <mxPoint x="6360" y="4374.33" as="sourcePoint" />
            <Array as="points">
              <mxPoint x="6320" y="3684.33" />
              <mxPoint x="5622" y="3684.33" />
            </Array>
            <mxPoint as="offset" />
          </mxGeometry>
        </mxCell>
        <mxCell id="2_bzZY8JqZcMzYyIOrCb-45" value="&lt;font style=&quot;font-size: 24px;&quot;&gt;P_Gain, I_Gain&lt;/font&gt;" style="edgeStyle=orthogonalEdgeStyle;rounded=0;orthogonalLoop=1;jettySize=auto;html=1;entryX=0.25;entryY=0;entryDx=0;entryDy=0;strokeWidth=5;fontSize=20;fillColor=#1ba1e2;strokeColor=#006EAF;" parent="1" source="2_bzZY8JqZcMzYyIOrCb-44" target="2_bzZY8JqZcMzYyIOrCb-23" edge="1">
          <mxGeometry x="-0.0039" relative="1" as="geometry">
            <mxPoint as="offset" />
          </mxGeometry>
        </mxCell>
        <mxCell id="2_bzZY8JqZcMzYyIOrCb-55" value="&lt;font style=&quot;font-size: 24px;&quot;&gt;P_Gain,&amp;nbsp;&lt;/font&gt;&lt;span style=&quot;font-size: 24px;&quot;&gt;I_Gain&lt;/span&gt;" style="edgeStyle=orthogonalEdgeStyle;rounded=0;orthogonalLoop=1;jettySize=auto;html=1;entryX=0.25;entryY=1;entryDx=0;entryDy=0;strokeWidth=5;fontSize=20;" parent="1" source="2_bzZY8JqZcMzYyIOrCb-44" target="2_bzZY8JqZcMzYyIOrCb-53" edge="1">
          <mxGeometry x="-0.2157" relative="1" as="geometry">
            <mxPoint as="offset" />
          </mxGeometry>
        </mxCell>
        <mxCell id="2_bzZY8JqZcMzYyIOrCb-44" value="&lt;font style=&quot;font-size: 36px;&quot;&gt;Gain Reg&lt;/font&gt;" style="rounded=1;whiteSpace=wrap;html=1;strokeWidth=5;fontSize=20;" parent="1" vertex="1">
          <mxGeometry x="5004" y="3814.33" width="160" height="80" as="geometry" />
        </mxCell>
        <mxCell id="2_bzZY8JqZcMzYyIOrCb-50" value="" style="group;strokeWidth=3;" parent="1" vertex="1" connectable="0">
          <mxGeometry x="4360" y="4454.33" width="200" height="216.75" as="geometry" />
        </mxCell>
        <mxCell id="2_bzZY8JqZcMzYyIOrCb-47" value="" style="rounded=1;whiteSpace=wrap;html=1;fillColor=none;strokeWidth=3;" parent="2_bzZY8JqZcMzYyIOrCb-50" vertex="1">
          <mxGeometry width="200" height="216.75" as="geometry" />
        </mxCell>
        <mxCell id="2_bzZY8JqZcMzYyIOrCb-46" value="" style="shape=image;verticalLabelPosition=bottom;labelBackgroundColor=default;verticalAlign=top;aspect=fixed;imageAspect=0;image=https://vctec.co.kr/web/product/big/vctmall_981.jpg;strokeWidth=3;" parent="2_bzZY8JqZcMzYyIOrCb-50" vertex="1">
          <mxGeometry x="40" y="10" width="120" height="120" as="geometry" />
        </mxCell>
        <mxCell id="2_bzZY8JqZcMzYyIOrCb-49" value="&lt;font style=&quot;font-size: 36px;&quot;&gt;On-Board BTN&lt;/font&gt;" style="text;html=1;align=center;verticalAlign=middle;whiteSpace=wrap;rounded=0;strokeWidth=3;" parent="2_bzZY8JqZcMzYyIOrCb-50" vertex="1">
          <mxGeometry x="17.5" y="150" width="165" height="41.73" as="geometry" />
        </mxCell>
        <mxCell id="2_bzZY8JqZcMzYyIOrCb-52" style="edgeStyle=orthogonalEdgeStyle;rounded=0;orthogonalLoop=1;jettySize=auto;html=1;entryX=0.5;entryY=0;entryDx=0;entryDy=0;strokeWidth=5;exitX=0.5;exitY=0;exitDx=0;exitDy=0;" parent="1" source="2_bzZY8JqZcMzYyIOrCb-68" target="2_bzZY8JqZcMzYyIOrCb-44" edge="1">
          <mxGeometry relative="1" as="geometry">
            <Array as="points">
              <mxPoint x="4460" y="3684.33" />
              <mxPoint x="5084" y="3684.33" />
            </Array>
          </mxGeometry>
        </mxCell>
        <mxCell id="2_bzZY8JqZcMzYyIOrCb-54" style="edgeStyle=orthogonalEdgeStyle;rounded=0;orthogonalLoop=1;jettySize=auto;html=1;entryX=0.5;entryY=0;entryDx=0;entryDy=0;strokeWidth=5;fontSize=20;" parent="1" source="2_bzZY8JqZcMzYyIOrCb-53" target="2_bzZY8JqZcMzYyIOrCb-37" edge="1">
          <mxGeometry relative="1" as="geometry" />
        </mxCell>
        <mxCell id="2_bzZY8JqZcMzYyIOrCb-53" value="" style="shape=trapezoid;perimeter=trapezoidPerimeter;whiteSpace=wrap;html=1;fixedSize=1;rotation=-180;strokeWidth=5;fontSize=20;" parent="1" vertex="1">
          <mxGeometry x="4859" y="3996.33" width="300" height="60" as="geometry" />
        </mxCell>
        <mxCell id="2_bzZY8JqZcMzYyIOrCb-56" value="&lt;font style=&quot;font-size: 48px;&quot;&gt;AXI4-Lite&lt;/font&gt;" style="shape=flexArrow;endArrow=classic;startArrow=classic;html=1;rounded=0;strokeWidth=3;" parent="1" edge="1">
          <mxGeometry width="100" height="100" relative="1" as="geometry">
            <mxPoint x="4350" y="3537" as="sourcePoint" />
            <mxPoint x="6510" y="3537" as="targetPoint" />
            <mxPoint as="offset" />
          </mxGeometry>
        </mxCell>
        <mxCell id="2_bzZY8JqZcMzYyIOrCb-65" style="edgeStyle=orthogonalEdgeStyle;rounded=0;orthogonalLoop=1;jettySize=auto;html=1;entryX=1;entryY=0.5;entryDx=0;entryDy=0;strokeWidth=5;exitX=0.5;exitY=0;exitDx=0;exitDy=0;" parent="1" source="2_bzZY8JqZcMzYyIOrCb-63" target="2_bzZY8JqZcMzYyIOrCb-53" edge="1">
          <mxGeometry relative="1" as="geometry">
            <Array as="points">
              <mxPoint x="4700" y="4454.33" />
              <mxPoint x="4700" y="4026.33" />
            </Array>
          </mxGeometry>
        </mxCell>
        <mxCell id="2_bzZY8JqZcMzYyIOrCb-68" value="&lt;font style=&quot;font-size: 36px;&quot;&gt;BTN IF&lt;/font&gt;" style="rounded=1;whiteSpace=wrap;html=1;strokeWidth=5;fontSize=20;" parent="1" vertex="1">
          <mxGeometry x="4380" y="4165.33" width="160" height="80" as="geometry" />
        </mxCell>
        <mxCell id="2_bzZY8JqZcMzYyIOrCb-71" value="" style="edgeStyle=orthogonalEdgeStyle;rounded=0;orthogonalLoop=1;jettySize=auto;html=1;strokeWidth=5;" parent="1" source="2_bzZY8JqZcMzYyIOrCb-47" target="2_bzZY8JqZcMzYyIOrCb-68" edge="1">
          <mxGeometry relative="1" as="geometry" />
        </mxCell>
        <mxCell id="2_bzZY8JqZcMzYyIOrCb-72" value="&lt;font style=&quot;font-size: 24px;&quot;&gt;RPM (MA)&lt;/font&gt;" style="endArrow=classic;html=1;rounded=0;entryX=0.75;entryY=1;entryDx=0;entryDy=0;strokeWidth=5;fillColor=#60a917;strokeColor=#2D7600;" parent="1" target="2_bzZY8JqZcMzYyIOrCb-53" edge="1">
          <mxGeometry x="0.8495" width="50" height="50" relative="1" as="geometry">
            <mxPoint x="5310" y="3524.33" as="sourcePoint" />
            <mxPoint x="5239" y="3794.33" as="targetPoint" />
            <Array as="points">
              <mxPoint x="5310" y="3764.33" />
              <mxPoint x="4934" y="3764.33" />
            </Array>
            <mxPoint y="-1" as="offset" />
          </mxGeometry>
        </mxCell>
        <mxCell id="2_bzZY8JqZcMzYyIOrCb-74" style="edgeStyle=orthogonalEdgeStyle;rounded=0;orthogonalLoop=1;jettySize=auto;html=1;exitX=1;exitY=0.5;exitDx=0;exitDy=0;entryX=0;entryY=0.5;entryDx=0;entryDy=0;strokeWidth=5;fillColor=#1ba1e2;strokeColor=#006EAF;" parent="1" source="2_bzZY8JqZcMzYyIOrCb-33" target="2_bzZY8JqZcMzYyIOrCb-38" edge="1">
          <mxGeometry relative="1" as="geometry" />
        </mxCell>
        <mxCell id="2_bzZY8JqZcMzYyIOrCb-77" value="&lt;font style=&quot;font-size: 24px;&quot;&gt;PULSE&lt;/font&gt;&lt;div&gt;&lt;font style=&quot;font-size: 24px;&quot;&gt;COUNT&lt;/font&gt;&lt;/div&gt;" style="endArrow=classic;html=1;rounded=0;exitX=0.25;exitY=0;exitDx=0;exitDy=0;strokeWidth=5;fillColor=#60a917;strokeColor=#2D7600;" parent="1" source="2_bzZY8JqZcMzYyIOrCb-31" edge="1">
          <mxGeometry x="0.4043" width="50" height="50" relative="1" as="geometry">
            <mxPoint x="5450" y="3664.33" as="sourcePoint" />
            <mxPoint x="5540" y="3534.33" as="targetPoint" />
            <mxPoint as="offset" />
          </mxGeometry>
        </mxCell>
        <mxCell id="2_bzZY8JqZcMzYyIOrCb-80" value="" style="endArrow=classic;html=1;rounded=0;entryX=0;entryY=0.5;entryDx=0;entryDy=0;strokeWidth=5;fillColor=#60a917;strokeColor=#2D7600;" parent="1" target="2_bzZY8JqZcMzYyIOrCb-31" edge="1">
          <mxGeometry width="50" height="50" relative="1" as="geometry">
            <mxPoint x="5310" y="3534.33" as="sourcePoint" />
            <mxPoint x="5400" y="3694.33" as="targetPoint" />
            <Array as="points">
              <mxPoint x="5310" y="3604.33" />
              <mxPoint x="5310" y="3764.33" />
            </Array>
          </mxGeometry>
        </mxCell>
        <mxCell id="2_bzZY8JqZcMzYyIOrCb-81" value="&lt;span style=&quot;font-size: 24px;&quot;&gt;RPM (MA)&lt;/span&gt;" style="edgeLabel;html=1;align=center;verticalAlign=middle;resizable=0;points=[];" parent="2_bzZY8JqZcMzYyIOrCb-80" vertex="1" connectable="0">
          <mxGeometry x="-0.8441" y="1" relative="1" as="geometry">
            <mxPoint x="-1" y="19" as="offset" />
          </mxGeometry>
        </mxCell>
        <mxCell id="2_bzZY8JqZcMzYyIOrCb-85" value="&lt;font style=&quot;font-size: 24px;&quot;&gt;PWM&lt;/font&gt;" style="edgeStyle=orthogonalEdgeStyle;rounded=0;orthogonalLoop=1;jettySize=auto;html=1;entryX=0.25;entryY=0;entryDx=0;entryDy=0;strokeWidth=5;fillColor=#1ba1e2;strokeColor=#006EAF;" parent="1" source="2_bzZY8JqZcMzYyIOrCb-84" target="2_bzZY8JqZcMzYyIOrCb-33" edge="1">
          <mxGeometry x="0.1958" relative="1" as="geometry">
            <Array as="points">
              <mxPoint x="5904" y="4154.33" />
              <mxPoint x="5904" y="4154.33" />
            </Array>
            <mxPoint as="offset" />
          </mxGeometry>
        </mxCell>
        <mxCell id="2_bzZY8JqZcMzYyIOrCb-84" value="&lt;font style=&quot;font-size: 36px;&quot;&gt;PWM GEN&lt;/font&gt;" style="rounded=1;whiteSpace=wrap;html=1;strokeWidth=5;fontSize=20;" parent="1" vertex="1">
          <mxGeometry x="5800" y="3986.33" width="200" height="80" as="geometry" />
        </mxCell>
        <mxCell id="2_bzZY8JqZcMzYyIOrCb-86" value="&lt;font style=&quot;font-size: 36px;&quot;&gt;Control Loop&lt;/font&gt;" style="text;html=1;align=center;verticalAlign=middle;whiteSpace=wrap;rounded=0;fillColor=#1ba1e2;fontColor=#ffffff;strokeColor=#006EAF;" parent="1" vertex="1">
          <mxGeometry x="5470" y="4454.33" width="240" height="80" as="geometry" />
        </mxCell>
        <mxCell id="2_bzZY8JqZcMzYyIOrCb-88" value="&lt;font style=&quot;font-size: 36px;&quot;&gt;PS-PL&lt;/font&gt;" style="text;html=1;align=center;verticalAlign=middle;whiteSpace=wrap;rounded=0;fillColor=#60a917;fontColor=#ffffff;strokeColor=#2D7600;" parent="1" vertex="1">
          <mxGeometry x="5470" y="4574.33" width="240" height="80" as="geometry" />
        </mxCell>
        <mxCell id="2_bzZY8JqZcMzYyIOrCb-38" value="" style="rounded=1;whiteSpace=wrap;html=1;fillColor=none;strokeWidth=3;" parent="1" vertex="1">
          <mxGeometry x="6180" y="4432.33" width="280" height="238.38" as="geometry" />
        </mxCell>
        <mxCell id="2_bzZY8JqZcMzYyIOrCb-7" value="" style="shape=image;verticalLabelPosition=bottom;labelBackgroundColor=default;verticalAlign=top;aspect=fixed;imageAspect=0;image=https://cdn.allets.com/commerce/goods/202311/1700549808_Kz3PyHAe.jpg;imageBorder=default;strokeWidth=3;" parent="1" vertex="1">
          <mxGeometry x="6250" y="4439.21" width="140" height="140" as="geometry" />
        </mxCell>
        <mxCell id="2_bzZY8JqZcMzYyIOrCb-8" value="&lt;font style=&quot;font-size: 36px;&quot;&gt;BLDC Motor&lt;/font&gt;&lt;div style=&quot;&quot;&gt;&lt;font style=&quot;font-size: 24px;&quot;&gt;&lt;font style=&quot;&quot;&gt;(&lt;/font&gt;&lt;span style=&quot;background-color: initial;&quot;&gt;BL4252-1262&lt;/span&gt;&lt;span style=&quot;background-color: initial;&quot;&gt;)&lt;/span&gt;&lt;/font&gt;&lt;/div&gt;" style="text;html=1;align=center;verticalAlign=middle;whiteSpace=wrap;rounded=0;strokeWidth=3;" parent="1" vertex="1">
          <mxGeometry x="6222" y="4605.63" width="210" height="37.41" as="geometry" />
        </mxCell>
        <mxCell id="2_bzZY8JqZcMzYyIOrCb-63" value="" style="rounded=1;whiteSpace=wrap;html=1;fillColor=none;strokeWidth=3;container=0;" parent="1" vertex="1">
          <mxGeometry x="4569" y="4454.33" width="260" height="217" as="geometry" />
        </mxCell>
        <mxCell id="2_bzZY8JqZcMzYyIOrCb-61" value="" style="shape=image;verticalLabelPosition=bottom;labelBackgroundColor=default;verticalAlign=top;aspect=fixed;imageAspect=0;image=https://www.robotechbd.com/wp-content/uploads/2021/04/slide-switch-mini-1.png;strokeWidth=3;container=0;" parent="1" vertex="1">
          <mxGeometry x="4630" y="4461.46" width="154.35" height="132.87" as="geometry" />
        </mxCell>
        <mxCell id="2_bzZY8JqZcMzYyIOrCb-62" value="&lt;font style=&quot;font-size: 36px;&quot;&gt;On-Board SW&lt;/font&gt;" style="text;html=1;align=center;verticalAlign=middle;whiteSpace=wrap;rounded=0;strokeWidth=3;container=0;" parent="1" vertex="1">
          <mxGeometry x="4584" y="4614.33" width="230" height="31" as="geometry" />
        </mxCell>
        <mxCell id="2_bzZY8JqZcMzYyIOrCb-90" value="&lt;font style=&quot;font-size: 48px;&quot;&gt;&lt;i&gt;&lt;b&gt;BLDC_Control&lt;/b&gt;&lt;/i&gt;&lt;/font&gt;" style="text;html=1;align=center;verticalAlign=middle;whiteSpace=wrap;rounded=0;" parent="1" vertex="1">
          <mxGeometry x="4534" y="3734.33" width="330" height="90" as="geometry" />
        </mxCell>
        <mxCell id="xMvxQsNB9w0MxpbsZ3xb-7" style="edgeStyle=orthogonalEdgeStyle;rounded=0;orthogonalLoop=1;jettySize=auto;html=1;entryX=1;entryY=0.5;entryDx=0;entryDy=0;" edge="1" parent="1" source="8530csM40XQxDIHOLAAI-1" target="8530csM40XQxDIHOLAAI-17">
          <mxGeometry relative="1" as="geometry" />
        </mxCell>
        <mxCell id="8530csM40XQxDIHOLAAI-1" value="" style="rounded=1;whiteSpace=wrap;html=1;container=0;glass=0;shadow=0;" parent="1" vertex="1">
          <mxGeometry x="6884" y="3728.33" width="80" height="40" as="geometry" />
        </mxCell>
        <mxCell id="xMvxQsNB9w0MxpbsZ3xb-3" style="edgeStyle=orthogonalEdgeStyle;rounded=0;orthogonalLoop=1;jettySize=auto;html=1;entryX=0;entryY=0.5;entryDx=0;entryDy=0;" edge="1" parent="1" source="8530csM40XQxDIHOLAAI-2" target="8530csM40XQxDIHOLAAI-16">
          <mxGeometry relative="1" as="geometry" />
        </mxCell>
        <mxCell id="8530csM40XQxDIHOLAAI-2" value="slv_reg0 (+0)" style="rounded=1;whiteSpace=wrap;html=1;container=0;glass=0;shadow=0;" parent="1" vertex="1">
          <mxGeometry x="6724" y="3608.33" width="120" height="40" as="geometry" />
        </mxCell>
        <mxCell id="8530csM40XQxDIHOLAAI-5" value="[23 : 0] P_TERM" style="rounded=1;whiteSpace=wrap;html=1;container=0;glass=0;shadow=0;" parent="1" vertex="1">
          <mxGeometry x="6964" y="3728.33" width="240" height="40" as="geometry" />
        </mxCell>
        <mxCell id="xMvxQsNB9w0MxpbsZ3xb-8" style="edgeStyle=orthogonalEdgeStyle;rounded=0;orthogonalLoop=1;jettySize=auto;html=1;entryX=1;entryY=0.5;entryDx=0;entryDy=0;" edge="1" parent="1" source="8530csM40XQxDIHOLAAI-6" target="8530csM40XQxDIHOLAAI-23">
          <mxGeometry relative="1" as="geometry" />
        </mxCell>
        <mxCell id="8530csM40XQxDIHOLAAI-6" value="" style="rounded=1;whiteSpace=wrap;html=1;container=0;glass=0;shadow=0;" parent="1" vertex="1">
          <mxGeometry x="6884" y="3768.33" width="80" height="40" as="geometry" />
        </mxCell>
        <mxCell id="8530csM40XQxDIHOLAAI-7" value="slv_reg1 (+4)" style="rounded=1;whiteSpace=wrap;html=1;container=0;glass=0;shadow=0;" parent="1" vertex="1">
          <mxGeometry x="6724" y="3648.33" width="120" height="40" as="geometry" />
        </mxCell>
        <mxCell id="8530csM40XQxDIHOLAAI-10" value="[23 : 0] I_TERM" style="rounded=1;whiteSpace=wrap;html=1;container=0;glass=0;shadow=0;" parent="1" vertex="1">
          <mxGeometry x="6964" y="3768.33" width="240" height="40" as="geometry" />
        </mxCell>
        <mxCell id="xMvxQsNB9w0MxpbsZ3xb-9" style="edgeStyle=orthogonalEdgeStyle;rounded=0;orthogonalLoop=1;jettySize=auto;html=1;entryX=1;entryY=0.5;entryDx=0;entryDy=0;" edge="1" parent="1" source="8530csM40XQxDIHOLAAI-11" target="8530csM40XQxDIHOLAAI-28">
          <mxGeometry relative="1" as="geometry" />
        </mxCell>
        <mxCell id="8530csM40XQxDIHOLAAI-11" value="" style="rounded=1;whiteSpace=wrap;html=1;container=0;glass=0;shadow=0;" parent="1" vertex="1">
          <mxGeometry x="6884" y="3808.33" width="80" height="40" as="geometry" />
        </mxCell>
        <mxCell id="8530csM40XQxDIHOLAAI-12" value="slv_reg2 (+8)" style="rounded=1;whiteSpace=wrap;html=1;container=0;glass=0;shadow=0;" parent="1" vertex="1">
          <mxGeometry x="6724" y="3688.33" width="120" height="40" as="geometry" />
        </mxCell>
        <mxCell id="8530csM40XQxDIHOLAAI-13" value="" style="rounded=1;whiteSpace=wrap;html=1;container=0;glass=0;shadow=0;" parent="1" vertex="1">
          <mxGeometry x="6964" y="3808.33" width="80" height="40" as="geometry" />
        </mxCell>
        <mxCell id="8530csM40XQxDIHOLAAI-15" value="[11 : 0] C_INPUT" style="rounded=1;whiteSpace=wrap;html=1;container=0;glass=0;shadow=0;" parent="1" vertex="1">
          <mxGeometry x="7044" y="3808.33" width="160" height="40" as="geometry" />
        </mxCell>
        <mxCell id="8530csM40XQxDIHOLAAI-16" value="VALID" style="rounded=1;whiteSpace=wrap;html=1;container=0;glass=0;shadow=0;" parent="1" vertex="1">
          <mxGeometry x="6884" y="3608.33" width="80" height="40" as="geometry" />
        </mxCell>
        <mxCell id="8530csM40XQxDIHOLAAI-17" value="slv_reg3 (+12)" style="rounded=1;whiteSpace=wrap;html=1;container=0;glass=0;shadow=0;" parent="1" vertex="1">
          <mxGeometry x="6724" y="3728.33" width="120" height="40" as="geometry" />
        </mxCell>
        <mxCell id="8530csM40XQxDIHOLAAI-18" value="" style="rounded=1;whiteSpace=wrap;html=1;container=0;glass=0;shadow=0;" parent="1" vertex="1">
          <mxGeometry x="6964" y="3608.33" width="80" height="40" as="geometry" />
        </mxCell>
        <mxCell id="8530csM40XQxDIHOLAAI-19" value="[12 : 0] RPM" style="rounded=1;whiteSpace=wrap;html=1;container=0;glass=0;shadow=0;" parent="1" vertex="1">
          <mxGeometry x="7044" y="3608.33" width="160" height="40" as="geometry" />
        </mxCell>
        <mxCell id="xMvxQsNB9w0MxpbsZ3xb-5" style="edgeStyle=orthogonalEdgeStyle;rounded=0;orthogonalLoop=1;jettySize=auto;html=1;entryX=1;entryY=0.5;entryDx=0;entryDy=0;" edge="1" parent="1" source="8530csM40XQxDIHOLAAI-20" target="8530csM40XQxDIHOLAAI-12">
          <mxGeometry relative="1" as="geometry" />
        </mxCell>
        <mxCell id="8530csM40XQxDIHOLAAI-20" value="" style="rounded=1;whiteSpace=wrap;html=1;container=0;glass=0;shadow=0;" parent="1" vertex="1">
          <mxGeometry x="6884" y="3688.33" width="80" height="40" as="geometry" />
        </mxCell>
        <mxCell id="8530csM40XQxDIHOLAAI-21" value="" style="rounded=1;whiteSpace=wrap;html=1;container=0;glass=0;shadow=0;" parent="1" vertex="1">
          <mxGeometry x="6964" y="3688.33" width="80" height="40" as="geometry" />
        </mxCell>
        <mxCell id="8530csM40XQxDIHOLAAI-22" value="[11 : 0] REFERENCE" style="rounded=1;whiteSpace=wrap;html=1;container=0;glass=0;shadow=0;" parent="1" vertex="1">
          <mxGeometry x="7044" y="3688.33" width="160" height="40" as="geometry" />
        </mxCell>
        <mxCell id="8530csM40XQxDIHOLAAI-23" value="slv_reg4 (+16)" style="rounded=1;whiteSpace=wrap;html=1;container=0;glass=0;shadow=0;" parent="1" vertex="1">
          <mxGeometry x="6724" y="3768.33" width="120" height="40" as="geometry" />
        </mxCell>
        <mxCell id="xMvxQsNB9w0MxpbsZ3xb-4" style="edgeStyle=orthogonalEdgeStyle;rounded=0;orthogonalLoop=1;jettySize=auto;html=1;entryX=1;entryY=0.5;entryDx=0;entryDy=0;" edge="1" parent="1" source="8530csM40XQxDIHOLAAI-25" target="8530csM40XQxDIHOLAAI-7">
          <mxGeometry relative="1" as="geometry" />
        </mxCell>
        <mxCell id="8530csM40XQxDIHOLAAI-25" value="[31 : 0] TIME COUNT" style="rounded=1;whiteSpace=wrap;html=1;container=0;glass=0;shadow=0;" parent="1" vertex="1">
          <mxGeometry x="6884" y="3648.33" width="320" height="40" as="geometry" />
        </mxCell>
        <mxCell id="8530csM40XQxDIHOLAAI-28" value="slv_reg5 (+20)" style="rounded=1;whiteSpace=wrap;html=1;container=0;glass=0;shadow=0;" parent="1" vertex="1">
          <mxGeometry x="6724" y="3808.33" width="120" height="40" as="geometry" />
        </mxCell>
        <mxCell id="8530csM40XQxDIHOLAAI-29" value="slv_reg6 (+24)" style="rounded=1;whiteSpace=wrap;html=1;container=0;glass=0;shadow=0;" parent="1" vertex="1">
          <mxGeometry x="6724" y="3848.33" width="120" height="40" as="geometry" />
        </mxCell>
        <mxCell id="xMvxQsNB9w0MxpbsZ3xb-10" style="edgeStyle=orthogonalEdgeStyle;rounded=0;orthogonalLoop=1;jettySize=auto;html=1;entryX=1;entryY=0.5;entryDx=0;entryDy=0;" edge="1" parent="1" source="8530csM40XQxDIHOLAAI-30" target="8530csM40XQxDIHOLAAI-29">
          <mxGeometry relative="1" as="geometry" />
        </mxCell>
        <mxCell id="8530csM40XQxDIHOLAAI-30" value="" style="rounded=1;whiteSpace=wrap;html=1;container=0;glass=0;shadow=0;" parent="1" vertex="1">
          <mxGeometry x="6884" y="3848.33" width="80" height="40" as="geometry" />
        </mxCell>
        <mxCell id="8530csM40XQxDIHOLAAI-31" value="" style="rounded=1;whiteSpace=wrap;html=1;container=0;glass=0;shadow=0;" parent="1" vertex="1">
          <mxGeometry x="6964" y="3848.33" width="80" height="40" as="geometry" />
        </mxCell>
        <mxCell id="8530csM40XQxDIHOLAAI-32" value="[14 : 0] ERROR" style="rounded=1;whiteSpace=wrap;html=1;container=0;glass=0;shadow=0;" parent="1" vertex="1">
          <mxGeometry x="7044" y="3848.33" width="160" height="40" as="geometry" />
        </mxCell>
        <mxCell id="xMvxQsNB9w0MxpbsZ3xb-12" value="" style="rounded=1;whiteSpace=wrap;html=1;strokeWidth=5;fillColor=none;movable=1;resizable=1;rotatable=1;deletable=1;editable=1;locked=0;connectable=1;" vertex="1" parent="1">
          <mxGeometry x="6690" y="3540" width="550" height="375.49" as="geometry" />
        </mxCell>
        <mxCell id="xMvxQsNB9w0MxpbsZ3xb-13" value="&lt;font style=&quot;font-size: 24px;&quot;&gt;&lt;b&gt;&lt;i&gt;Slave Register Mapping&lt;/i&gt;&lt;/b&gt;&lt;/font&gt;" style="text;html=1;align=center;verticalAlign=middle;whiteSpace=wrap;rounded=0;" vertex="1" parent="1">
          <mxGeometry x="6817.5" y="3560" width="295" height="30" as="geometry" />
        </mxCell>
      </root>
    </mxGraphModel>
  </diagram>
  <diagram id="lG5_dnH7y_AgQ_-idZTg" name="페이지-4">
    <mxGraphModel dx="614" dy="296" grid="1" gridSize="10" guides="1" tooltips="1" connect="1" arrows="1" fold="1" page="1" pageScale="1" pageWidth="827" pageHeight="1169" math="0" shadow="0">
      <root>
        <mxCell id="0" />
        <mxCell id="1" parent="0" />
      </root>
    </mxGraphModel>
  </diagram>
</mxfile>
